<svg width="614" height="90" viewBox="0 0 614 90" fill="none" xmlns="http://www.w3.org/2000/svg">
<g clip-path="url(#clip0_3696_24537)">
<rect width="614" height="90" rx="12" fill="url(#paint0_linear_3696_24537)"/>
<path d="M442.233 32.4489L453.889 18.83C454.544 18.0644 454.544 16.9356 453.889 16.17L443.303 3.80083C441.919 2.18434 443.616 -0.207361 445.599 0.564816L461.644 6.81385C462.693 7.22244 463.875 6.70643 464.288 5.65932L470.322 -9.61597C470.98 -11.2803 473.307 -11.3577 474.073 -9.74063L481.906 6.78436C482.139 7.27615 482.559 7.65475 483.072 7.8364L494.765 11.9767C496.661 12.648 496.551 15.3656 494.607 15.8818L484.818 18.4813C483.527 18.8241 482.906 20.2924 483.559 21.4579L490.329 33.5435C491.18 35.0634 489.864 36.8839 488.154 36.551L476.779 34.3359C475.978 34.1799 475.161 34.5148 474.7 35.188L468.441 44.3291C467.36 45.9087 464.895 45.2698 464.717 43.3636L463.764 33.1571C463.647 31.902 462.433 31.0506 461.213 31.3674L444.301 35.7587C442.363 36.2618 440.931 33.9697 442.233 32.4489Z" fill="#2A2F37"/>
<path d="M571.595 99.2633L566.392 89.4617C566.1 88.9106 565.45 88.6548 564.86 88.8587L555.335 92.1528C554.09 92.5833 553.097 91.0634 553.992 90.0964L561.229 82.2705C561.702 81.7588 561.672 80.9609 561.163 80.4852L553.732 73.5466C552.922 72.7906 553.405 71.4327 554.51 71.3577L565.805 70.5917C566.141 70.5689 566.454 70.4131 566.675 70.1587L571.711 64.3613C572.528 63.4214 574.068 64.1007 573.925 65.3375L573.203 71.5658C573.108 72.3872 573.813 73.078 574.632 72.9661L583.129 71.8059C584.197 71.66 584.948 72.8313 584.368 73.7408L580.514 79.791C580.242 80.217 580.25 80.7635 580.533 81.1817L584.38 86.8592C585.045 87.8403 584.118 89.1154 582.98 88.7858L576.884 87.0209C576.135 86.8039 575.369 87.3099 575.275 88.0845L573.971 98.8223C573.821 100.052 572.176 100.358 571.595 99.2633Z" fill="#2A2F37"/>
<ellipse cx="525.757" cy="45.1211" rx="24.3769" ry="28.8648" transform="rotate(28.5701 525.757 45.1211)" fill="url(#paint1_linear_3696_24537)"/>
<path d="M36.6289 48.0234V53.0039H39.0312V55.0547H36.6289V60.7578H34.1094V48.0234H36.6289ZM31.7852 49.3516C31.7852 54.1562 28.7773 57.5156 23.4453 59.0195L22.4102 57.0469C26.3848 55.9336 28.6406 53.873 29.0508 51.3828H23.1914V49.3516H31.7852ZM37.2344 63.4922V65.4844H25.0664V59.4492H27.5859V63.4922H37.2344ZM54.793 48.0234V61.1094H52.3125V56.7344H50.0469V54.6836H52.3125V53.1406H50.0469V51.1484H52.3125V48.0234H54.793ZM49.7344 49.293V51.2852H48.2695V56.6758C48.8652 56.6367 49.4512 56.5781 50.0078 56.5195L50.1055 58.3359C46.7852 58.8828 42.8789 58.9609 40.0664 58.9609L39.8125 56.9297C40.3984 56.9297 41.043 56.9199 41.707 56.9102V51.2852H40.2617V49.293H49.7344ZM55.2227 63.4922V65.4844H42.9766V60.1328H45.4766V63.4922H55.2227ZM44.1094 56.8711C44.6953 56.8613 45.291 56.8418 45.8867 56.8125V51.2852H44.1094V56.8711ZM71.0234 54.3125V56.5H77.918V58.4922H61.707V56.5H68.5625V54.3125H71.0234ZM71.0625 48.9023C71.0625 50.9727 73.0547 52.9453 77.0586 53.4336L76.1016 55.3672C73.1035 54.918 70.8965 53.6582 69.7734 51.8711C68.6309 53.6582 66.4238 54.9277 63.4258 55.3672L62.5469 53.4336C66.4727 52.9453 68.5234 50.9141 68.5234 48.9023V48.3164H71.0625V48.9023ZM69.793 59.4688C73.6602 59.4688 75.9648 60.6211 75.9844 62.6523C75.9648 64.6836 73.6602 65.7969 69.793 65.7969C65.8867 65.7969 63.5625 64.6836 63.5625 62.6523C63.5625 60.6211 65.8867 59.4688 69.793 59.4688ZM69.793 61.3633C67.3125 61.3633 66.082 61.7734 66.1016 62.6523C66.082 63.5312 67.3125 63.9414 69.793 63.9414C72.2148 63.9414 73.4648 63.5312 73.4844 62.6523C73.4648 61.7734 72.2148 61.3633 69.793 61.3633ZM93.3281 48.8242V50.25C93.3281 51.6367 93.3281 53.1797 92.918 55.2109H95.2617V57.2227H78.9922V55.2109H90.3984C90.7891 53.4336 90.8379 52.0566 90.8477 50.8164H80.9844V48.8242H93.3281ZM93.2695 59.0977V65.6016H80.9258V59.0977H93.2695ZM83.3672 61.0508V63.6094H90.7891V61.0508H83.3672ZM106.863 59.0977H109.383L110.457 60.4844C111.131 59.6934 111.512 58.502 111.512 56.9297C111.512 53.9023 110.086 52.2617 107.898 52.2617C105.711 52.2617 104.266 53.9023 104.266 56.9297C104.266 59.957 105.711 61.5977 107.898 61.5977C108.182 61.5977 108.455 61.5684 108.719 61.5195L106.863 59.0977ZM114.5 56.9297C114.5 59.4492 113.641 61.3926 112.254 62.6133L114.266 65.1719H111.512L110.379 63.7461C109.617 64.0488 108.777 64.1953 107.898 64.1953C104.129 64.1953 101.277 61.5195 101.277 56.9297C101.277 52.3203 104.129 49.6641 107.898 49.6641C111.629 49.6641 114.5 52.3203 114.5 56.9297ZM116.629 64V49.8594H122.176C125.398 49.8594 127.234 51.6758 127.234 54.4688C127.234 56.4023 126.346 57.8086 124.734 58.4922L127.742 64H124.5L121.805 58.9805H119.559V64H116.629ZM119.559 56.5977H121.629C123.367 56.5977 124.207 55.875 124.207 54.4688C124.207 53.043 123.367 52.2617 121.629 52.2617H119.559V56.5977ZM136.219 48.8242V50.9336H139.852V48.8242H142.352V56.5781H133.738V48.8242H136.219ZM136.219 54.625H139.852V52.8086H136.219V54.625ZM147.312 48.0234V51.4805H149.715V53.4922H147.312V57.0664H144.812V48.0234H147.312ZM147.312 57.7305V62.5547H137.996V63.707H147.82V65.6797H135.555V60.7773H144.832V59.6641H135.516V57.7305H147.312ZM154.891 58.1406V60.0352H162.293V58.1406H164.754V65.6016H152.449V58.1406H154.891ZM154.891 63.5898H162.293V61.9297H154.891V63.5898ZM164.832 48.7461V50.1719C164.832 51.5195 164.832 52.9648 164.422 54.9766H166.766V56.9688H150.496V54.9766H161.941C162.293 53.2578 162.342 51.9199 162.352 50.7383H152.488V48.7461H164.832ZM186.414 48.0234V54.8398H188.934V56.8906H186.414V65.7578H183.914V48.0234H186.414ZM181.668 49.8398C181.648 55.1523 179.578 59.7617 173.602 62.6914L172.195 60.7773C176.404 58.668 178.66 55.8359 179.129 51.8711H173.211V49.8398H181.668ZM204.559 48.0234V65.8359H202.039V48.0234H204.559ZM194.91 49.2734C197.586 49.2734 199.578 51.7344 199.578 55.6016C199.578 59.5078 197.586 61.9492 194.91 61.9492C192.176 61.9492 190.184 59.5078 190.203 55.6016C190.184 51.7344 192.176 49.2734 194.91 49.2734ZM194.91 51.5195C193.523 51.5195 192.605 52.9648 192.605 55.6016C192.605 58.2578 193.523 59.6836 194.91 59.6836C196.258 59.6836 197.176 58.2578 197.176 55.6016C197.176 52.9648 196.258 51.5195 194.91 51.5195ZM221.453 56.2461V58.2383H208.875V49.5078H221.316V51.5195H211.336V56.2461H221.453ZM223.23 61.5781V63.6289H206.961V61.5781H223.23Z" fill="white"/>
<path d="M26.4297 24.1016V34H25.1855V25.3867H25.1309L22.7246 26.9863V25.7422L25.1855 24.1016H26.4297ZM39.7461 29.3926V30.2676H34.7969V32.6465H33.7305V30.2676H28.6172V29.3926H39.7461ZM38.502 33.9453V34.8477H30.0391V31.5254H31.1055V33.9453H38.502ZM31.1738 23.3496V24.9082H37.1895V23.3496H38.2559V28.2031H30.1074V23.3496H31.1738ZM31.1738 27.3281H37.1895V25.7285H31.1738V27.3281ZM50.752 22.9531V35.1348H49.6719V22.9531H50.752ZM44.2852 23.8965C46.0898 23.9102 47.3887 25.5508 47.3887 28.1348C47.3887 30.7188 46.0898 32.3594 44.2852 32.3594C42.4668 32.3594 41.1816 30.7188 41.1816 28.1348C41.1816 25.5508 42.4668 23.9102 44.2852 23.8965ZM44.2852 24.8535C43.0684 24.8672 42.2207 26.1523 42.2207 28.1348C42.2207 30.1172 43.0684 31.4023 44.2852 31.4023C45.502 31.4023 46.3496 30.1172 46.3496 28.1348C46.3496 26.1523 45.502 24.8672 44.2852 24.8535ZM58.9824 24.0195V25.0996H61.8262V22.9668H62.9062V31.8398H61.8262V28.5996H58.9824V29.6934H53.4043V24.0195H58.9824ZM54.4707 24.9082V28.832H57.9297V24.9082H54.4707ZM63.1797 33.9453V34.8477H55.0449V31.0469H56.125V33.9453H63.1797ZM58.9824 27.7109H61.8262V26.002H58.9824V27.7109ZM79.5586 27.6562V28.5312H68.4434V27.6562H71.8887C72.2646 26.1729 72.3535 25.0586 72.3809 24.3203H69.4824V23.4453H73.4473V23.7598C73.4336 24.3955 73.4336 25.7627 72.9688 27.6562H76.6875C77.043 26.1592 77.1045 25.0723 77.125 24.3203H74.2676V23.4453H78.1641V23.9375C78.1641 24.6758 78.1641 25.9404 77.7676 27.6562H79.5586ZM78.1914 29.8301V30.6641H70.9043V31.9492H77.877V32.7559H70.9043V34.0957H78.2734V34.9434H69.8242V29.8301H78.1914ZM82.5117 24.1016L82.416 31.2109H81.2676L81.1719 24.1016H82.5117ZM81.8418 34.082C81.3633 34.082 80.9531 33.6855 80.9668 33.1934C80.9531 32.7148 81.3633 32.3184 81.8418 32.3184C82.3203 32.3184 82.7168 32.7148 82.7168 33.1934C82.7168 33.6855 82.3203 34.082 81.8418 34.082ZM90.6602 30.5273V31.8535H96.5527V30.5273H97.6055V34.9434H89.5938V30.5273H90.6602ZM90.6602 34.0684H96.5527V32.7012H90.6602V34.0684ZM97.6055 22.9668V29.9395H96.5391V22.9668H97.6055ZM87.666 28.2852C89.9766 28.2852 93.0254 28.2852 95.7051 27.9434L95.7734 28.709C94.6729 28.8936 93.5381 29.0029 92.4238 29.0645V30.8965H91.3574V29.1191C90.0791 29.1738 88.8691 29.1738 87.8164 29.1738L87.666 28.2852ZM92.3145 23.8691C92.3145 25.1133 93.5586 26.1387 95.3086 26.5215L94.8438 27.3418C93.4219 27.0205 92.3076 26.2754 91.7812 25.25C91.2617 26.3438 90.1475 27.1572 88.7051 27.5332L88.2129 26.6855C89.9766 26.2754 91.207 25.168 91.2207 23.8691V23.2539H92.3145V23.8691ZM110.156 22.9531V35.1074H109.131V22.9531H110.156ZM107.6 23.2812V34.4922H106.574V28.8184H104.004C103.259 30.2334 102.09 31.4844 100.395 32.4824L99.7656 31.7031C102.411 30.1377 103.737 27.9434 103.936 25.4004H100.285V24.5117H105.002C104.995 25.708 104.804 26.8633 104.4 27.9434H106.574V23.2812H107.6ZM126.453 28.7363V29.6387H115.365V28.7363H126.453ZM125.154 26.6992V27.5742H116.773V23.4453H125.072V24.3477H117.826V26.6992H125.154ZM120.902 30.7051C123.514 30.7051 125.072 31.498 125.086 32.8926C125.072 34.3008 123.514 35.0801 120.902 35.0801C118.277 35.0801 116.705 34.3008 116.705 32.8926C116.705 31.498 118.277 30.7051 120.902 30.7051ZM120.902 31.5391C118.947 31.5527 117.785 32.0449 117.799 32.8926C117.785 33.7539 118.947 34.2324 120.902 34.2324C122.83 34.2324 124.006 33.7539 124.006 32.8926C124.006 32.0449 122.83 31.5527 120.902 31.5391ZM138.58 29.6523V30.541H127.451V29.6523H132.482V28.3672H128.9V25.4004H136.064V24.1426H128.859V23.2676H137.145V26.207H129.967V27.5059H137.404V28.3672H133.535V29.6523H138.58ZM137.213 31.4707V34.998H136.133V32.3457H128.695V31.4707H137.213ZM148.971 22.9531V27.9707H151.008V28.8594H148.971V35.1074H147.904V22.9531H148.971ZM146.729 24.9082V25.7969H139.496V24.9082H142.627V23.1035H143.693V24.9082H146.729ZM143.174 26.8086C144.896 26.8086 146.141 27.957 146.154 29.5977C146.141 31.2383 144.896 32.3867 143.174 32.3867C141.438 32.3867 140.18 31.2383 140.193 29.5977C140.18 27.957 141.438 26.8086 143.174 26.8086ZM143.174 27.7109C142.039 27.7109 141.205 28.5039 141.219 29.5977C141.205 30.7051 142.039 31.4844 143.174 31.4707C144.295 31.4844 145.115 30.7051 145.129 29.5977C145.115 28.5039 144.295 27.7109 143.174 27.7109ZM161.494 26.6445V27.5059H153.168V23.4043H154.234V26.6445H161.494ZM162.779 29.1602V30.0352H151.65V29.1602H162.779ZM161.562 33.918V34.8066H153.1V31.2793H154.166V33.918H161.562Z" fill="white"/>
<path d="M512.304 57.5951L522.138 28.9986L527.442 31.9257L517.607 60.5222L512.304 57.5951Z" fill="#EBB000"/>
<path d="M527.372 52.7199L534.85 31.0561L540.154 33.9832L532.676 55.6469L527.372 52.7199Z" fill="#EBB000"/>
<path d="M527.25 52.6424L523.958 29.9988L527.373 31.8835L530.665 54.5272L527.25 52.6424Z" fill="#EBB000"/>
</g>
<defs>
<linearGradient id="paint0_linear_3696_24537" x1="0" y1="45" x2="614" y2="45" gradientUnits="userSpaceOnUse">
<stop stop-color="#383D46"/>
<stop offset="1" stop-color="#16191E"/>
</linearGradient>
<linearGradient id="paint1_linear_3696_24537" x1="545.533" y1="62.111" x2="497.771" y2="45.2279" gradientUnits="userSpaceOnUse">
<stop stop-color="#F2BD00"/>
<stop offset="1" stop-color="#FFD500"/>
</linearGradient>
<clipPath id="clip0_3696_24537">
<rect width="614" height="90" rx="12" fill="white"/>
</clipPath>
</defs>
</svg>
