<svg width="16" height="16" viewBox="0 0 16 16" fill="none" xmlns="http://www.w3.org/2000/svg">
<g clip-path="url(#clip0_2073_10416)">
<path d="M8.47443 0.734375C11.0973 0.734375 12.9361 2.42987 13.0848 4.7832C13.0917 4.89344 13.053 5.00248 12.9774 5.08301C12.9018 5.16345 12.7958 5.20898 12.6854 5.20898H12.0545C11.845 5.20897 11.6705 5.04682 11.6551 4.83789C11.5952 4.02595 11.2604 3.3556 10.7254 2.88672C10.189 2.41681 9.42547 2.12695 8.47443 2.12695C6.54198 2.12712 5.29594 3.27373 5.29572 4.73242C5.29581 5.32919 5.50803 5.80544 5.91974 6.20312C6.29084 6.56145 6.83544 6.86597 7.56037 7.11621L7.88263 7.2207H7.88459L9.43049 7.69824C10.5868 8.04122 11.5462 8.49586 12.2195 9.13477C12.9072 9.78741 13.2772 10.6151 13.2772 11.6426C13.2771 12.8507 12.7755 13.9087 11.8973 14.6592C11.023 15.4063 9.79665 15.832 8.36017 15.832C6.98531 15.832 5.81863 15.4468 4.97053 14.7529C4.11864 14.0559 3.61373 13.0663 3.53986 11.916C3.53296 11.806 3.57096 11.6976 3.64631 11.6172C3.72192 11.5366 3.82878 11.4912 3.93928 11.4912H4.57013L4.64631 11.498C4.81988 11.5318 4.95567 11.6789 4.96955 11.8613C5.0282 12.6298 5.37501 13.2581 5.94318 13.7002C6.51677 14.1464 7.33865 14.4199 8.36017 14.4199C9.44692 14.4199 10.3223 14.1185 10.9178 13.6318C11.5066 13.1504 11.8454 12.4698 11.8455 11.6426C11.8455 11.0098 11.6423 10.5386 11.2186 10.1426C10.7757 9.72891 10.0703 9.37668 9.02912 9.05762V9.05859L7.44025 8.58008L7.43928 8.5791C6.31159 8.23288 5.41779 7.75632 4.80353 7.11816C4.17965 6.46986 3.86417 5.67538 3.86408 4.75195C3.86408 2.38903 5.90228 0.734557 8.47443 0.734375ZM6.14826 14.3096C6.74985 14.6377 7.50035 14.8203 8.36115 14.8203C8.91842 14.8203 9.43207 14.7447 9.89142 14.6055C9.43187 14.7448 8.91771 14.8193 8.36017 14.8193C7.49981 14.8193 6.7497 14.6374 6.14826 14.3096ZM10.3621 14.4307C10.2166 14.4948 10.0643 14.5518 9.9051 14.6006C10.0644 14.5518 10.2166 14.4948 10.3621 14.4307ZM4.95197 14.1982C5.05716 14.3039 5.1709 14.4025 5.29084 14.4961C5.12225 14.3645 4.96717 14.2216 4.82795 14.0664L4.95197 14.1982ZM10.5701 14.332C11.6175 13.7931 12.2459 12.841 12.2459 11.6426C12.2459 11.2906 12.1888 10.9754 12.075 10.6895C12.1886 10.9752 12.2459 11.2908 12.2459 11.6426L12.241 11.8184C12.1824 12.934 11.5657 13.8197 10.5701 14.332ZM5.84553 14.124C5.88727 14.1528 5.92992 14.1808 5.97345 14.208C5.92991 14.1808 5.88728 14.1528 5.84553 14.124ZM5.46369 13.8145C5.53743 13.8848 5.61528 13.9519 5.69709 14.0156C5.61489 13.9517 5.53677 13.8842 5.46271 13.8135L5.46369 13.8145ZM4.06037 12.6426C4.07471 12.6963 4.0906 12.7493 4.10724 12.8018C4.07209 12.6908 4.04222 12.5771 4.0174 12.4609L4.06037 12.6426ZM12.8094 10.9561C12.8182 10.9986 12.8267 11.0414 12.8338 11.085C12.8268 11.0414 12.8181 10.9986 12.8094 10.9561ZM12.4178 9.99023C12.45 10.0401 12.4806 10.0909 12.5096 10.1426C12.4807 10.0909 12.45 10.0401 12.4178 9.99023ZM11.492 9.85059C11.5752 9.9283 11.6494 10.0103 11.7186 10.0938C11.5965 9.94653 11.4549 9.80674 11.2889 9.67676L11.492 9.85059ZM11.2528 8.90332C11.6331 9.13759 11.952 9.40014 12.2029 9.7002C11.9521 9.40003 11.6331 9.13767 11.2528 8.90332ZM10.8055 9.35547C10.8482 9.37988 10.8887 9.40662 10.9295 9.43164C10.804 9.35464 10.6704 9.27854 10.5262 9.20703L10.8055 9.35547ZM6.93049 7.30078C7.18747 7.41104 7.4662 7.51351 7.7674 7.60449L9.31818 8.08301C9.9461 8.26928 10.4989 8.48712 10.9715 8.74121C10.4987 8.48687 9.94563 8.26844 9.3172 8.08203L7.7674 7.60352C7.4664 7.51259 7.18737 7.41097 6.93049 7.30078ZM4.33088 5.41016C4.43983 5.93998 4.68535 6.40563 5.0672 6.81152C4.68555 6.40559 4.43967 5.94001 4.33088 5.41016ZM8.2508 1.13867C5.95254 1.23035 4.26349 2.73076 4.26349 4.75195C4.26351 4.92028 4.27936 5.08265 4.30256 5.24023C4.27943 5.0828 4.26447 4.92011 4.26447 4.75195C4.2647 2.66616 6.06345 1.13526 8.47443 1.13477L8.2508 1.13867ZM11.6815 3.4668C11.8656 3.81814 11.9872 4.21216 12.0379 4.63965L12.0545 4.80957C12.0181 4.3163 11.8899 3.86423 11.6815 3.4668ZM12.1727 3.07227C12.1691 3.06608 12.1655 3.05987 12.1619 3.05371C12.1656 3.05987 12.1691 3.06608 12.1727 3.07227ZM12.0965 2.94727C12.0836 2.92697 12.0707 2.90674 12.0574 2.88672C12.0707 2.90674 12.0836 2.92697 12.0965 2.94727ZM12.0135 2.82227C11.9939 2.79404 11.9743 2.76593 11.9539 2.73828C11.9743 2.76593 11.9939 2.79404 12.0135 2.82227ZM11.8904 2.65527C11.8771 2.63812 11.8631 2.62141 11.8494 2.60449C11.8631 2.62141 11.877 2.63812 11.8904 2.65527ZM11.7908 2.5332C11.7697 2.50846 11.7482 2.48416 11.7264 2.45996C11.7482 2.48415 11.7697 2.50846 11.7908 2.5332ZM11.659 2.38672C11.6412 2.36803 11.6235 2.34938 11.6053 2.33105C11.6235 2.34938 11.6412 2.36804 11.659 2.38672ZM11.5379 2.26465C11.5127 2.24044 11.4868 2.21689 11.4608 2.19336C11.4868 2.21688 11.5126 2.24045 11.5379 2.26465ZM11.409 2.14746C11.3782 2.12063 11.347 2.09426 11.3153 2.06836C11.347 2.09425 11.3782 2.12064 11.409 2.14746ZM11.284 2.04297C11.2453 2.01206 11.206 1.98166 11.1658 1.95215C11.206 1.98165 11.2453 2.01207 11.284 2.04297ZM11.1444 1.93652C11.1024 1.90615 11.0598 1.87649 11.0164 1.84766C11.0598 1.87647 11.1024 1.90617 11.1444 1.93652ZM10.9852 1.82715C10.9449 1.80093 10.9037 1.77585 10.8621 1.75098C10.9037 1.77583 10.9449 1.80095 10.9852 1.82715ZM10.8231 1.72754C10.7844 1.705 10.7456 1.6825 10.7059 1.66113C10.7456 1.68248 10.7844 1.70502 10.8231 1.72754ZM10.1365 1.4082C10.3194 1.47352 10.494 1.55019 10.66 1.63672C10.494 1.55012 10.3194 1.47358 10.1365 1.4082ZM8.47834 1.13477C9.00647 1.13502 9.49764 1.20809 9.94416 1.34473C9.56098 1.22735 9.14507 1.15661 8.70099 1.13867L8.47834 1.13477ZM10.4178 14.4072C10.4583 14.3886 10.4976 14.3684 10.5369 14.3486C10.4976 14.3684 10.4583 14.3886 10.4178 14.4072ZM10.1365 1.4082C10.0823 1.3888 10.0272 1.37096 9.9715 1.35352C10.0272 1.37094 10.0823 1.38883 10.1365 1.4082Z" fill="#444444"/>
<path d="M1.60156 8L14.4016 8" stroke="#444444" stroke-width="1.44" stroke-linecap="round" stroke-linejoin="round"/>
</g>
<defs>
<clipPath id="clip0_2073_10416">
<rect width="16" height="16" fill="white"/>
</clipPath>
</defs>
</svg>
