<svg width="20" height="20" viewBox="0 0 20 20" fill="none" xmlns="http://www.w3.org/2000/svg">
<mask id="mask0_778_4133" style="mask-type:alpha" maskUnits="userSpaceOnUse" x="0" y="0" width="20" height="20">
<rect width="20" height="20" fill="#D9D9D9"/>
</mask>
<g mask="url(#mask0_778_4133)">
<path d="M9.66667 11.5556H4.94444C4.67685 11.5556 4.45255 11.465 4.27153 11.284C4.09051 11.103 4 10.8787 4 10.6111C4 10.3435 4.09051 10.1192 4.27153 9.93819C4.45255 9.75718 4.67685 9.66667 4.94444 9.66667H9.66667V4.94444C9.66667 4.67685 9.75718 4.45255 9.93819 4.27153C10.1192 4.09051 10.3435 4 10.6111 4C10.8787 4 11.103 4.09051 11.284 4.27153C11.465 4.45255 11.5556 4.67685 11.5556 4.94444V9.66667H16.2778C16.5454 9.66667 16.7697 9.75718 16.9507 9.93819C17.1317 10.1192 17.2222 10.3435 17.2222 10.6111C17.2222 10.8787 17.1317 11.103 16.9507 11.284C16.7697 11.465 16.5454 11.5556 16.2778 11.5556H11.5556V16.2778C11.5556 16.5454 11.465 16.7697 11.284 16.9507C11.103 17.1317 10.8787 17.2222 10.6111 17.2222C10.3435 17.2222 10.1192 17.1317 9.93819 16.9507C9.75718 16.7697 9.66667 16.5454 9.66667 16.2778V11.5556Z" fill="currentColor"/>
</g>
</svg>
