<svg width="8" height="12" viewBox="0 0 8 12" fill="none" xmlns="http://www.w3.org/2000/svg">
<path d="M5.08125 6.00078L1.18125 2.10078C0.997917 1.91745 0.90625 1.68411 0.90625 1.40078C0.90625 1.11745 0.997917 0.884115 1.18125 0.700781C1.36458 0.517448 1.59792 0.425781 1.88125 0.425781C2.16458 0.425781 2.39792 0.517448 2.58125 0.700781L7.18125 5.30078C7.28125 5.40078 7.35208 5.50911 7.39375 5.62578C7.43542 5.74245 7.45625 5.86745 7.45625 6.00078C7.45625 6.13411 7.43542 6.25911 7.39375 6.37578C7.35208 6.49245 7.28125 6.60078 7.18125 6.70078L2.58125 11.3008C2.39792 11.4841 2.16458 11.5758 1.88125 11.5758C1.59792 11.5758 1.36458 11.4841 1.18125 11.3008C0.997917 11.1174 0.90625 10.8841 0.90625 10.6008C0.90625 10.3174 0.997917 10.0841 1.18125 9.90078L5.08125 6.00078Z"/>
</svg>
