<svg width="12" height="20" viewBox="0 0 12 20" fill="none" xmlns="http://www.w3.org/2000/svg">
<path d="M3.54922 9.99962L10.8992 17.3496C11.1492 17.5996 11.2701 17.8913 11.2617 18.2246C11.2534 18.558 11.1242 18.8496 10.8742 19.0996C10.6242 19.3496 10.3326 19.4746 9.99922 19.4746C9.66589 19.4746 9.37422 19.3496 9.12422 19.0996L1.42422 11.4246C1.22422 11.2246 1.07422 10.9996 0.974219 10.7496C0.874219 10.4996 0.824219 10.2496 0.824219 9.99962C0.824219 9.74962 0.874219 9.49962 0.974219 9.24962C1.07422 8.99962 1.22422 8.77462 1.42422 8.57462L9.12422 0.874622C9.37422 0.624622 9.67005 0.503789 10.0117 0.512122C10.3534 0.520455 10.6492 0.649622 10.8992 0.899622C11.1492 1.14962 11.2742 1.44129 11.2742 1.77462C11.2742 2.10796 11.1492 2.39962 10.8992 2.64962L3.54922 9.99962Z" fill="#1C1B1F"/>
</svg>
