<svg width="20" height="20" viewBox="0 0 20 20" fill="none" xmlns="http://www.w3.org/2000/svg">
<mask id="mask0_1148_7668" style="mask-type:alpha" maskUnits="userSpaceOnUse" x="0" y="0" width="20" height="20">
<rect width="20" height="20" fill="#D9D9D9"/>
</mask>
<g mask="url(#mask0_1148_7668)">
<path d="M9.99497 12.7493C9.89497 12.7493 9.80122 12.732 9.71372 12.6973C9.62622 12.6625 9.54775 12.6105 9.4783 12.541L5.52705 8.58977C5.36955 8.43227 5.29428 8.25282 5.30122 8.05143C5.30817 7.85004 5.38803 7.67296 5.5408 7.52018C5.69358 7.3674 5.87067 7.29102 6.07205 7.29102C6.27344 7.29102 6.45053 7.3674 6.6033 7.52018L9.99914 10.9368L13.4158 7.52018C13.5686 7.3674 13.7457 7.29449 13.9471 7.30143C14.1484 7.30838 14.3255 7.38824 14.4783 7.54102C14.6311 7.69379 14.7075 7.87088 14.7075 8.07227C14.7075 8.27365 14.6287 8.45268 14.4712 8.60935L10.52 12.541C10.445 12.6105 10.3637 12.6625 10.2762 12.6973C10.1887 12.732 10.095 12.7493 9.99497 12.7493Z" fill="#1C1B1F"/>
</g>
</svg>
