<svg width="300" height="300" viewBox="0 0 300 300" fill="none" xmlns="http://www.w3.org/2000/svg">
<g clip-path="url(#clip0_2073_10204)">
<path d="M180.375 171L180.375 321" stroke="url(#paint0_linear_2073_10204)" stroke-width="13.5"/>
<path d="M132.409 164.422C131.873 159.123 135.733 154.393 141.031 153.856L215.653 146.298C218.233 146.037 220.809 146.825 222.8 148.485L237.586 160.813C241.515 164.09 242.202 169.866 239.149 173.972L227.06 190.233C225.444 192.407 222.989 193.8 220.294 194.073L145.868 201.612C140.57 202.149 135.84 198.289 135.303 192.99L132.409 164.422Z" fill="#7A1F00"/>
<path d="M148.289 168.018L153.815 167.459L158.82 176.869L159.03 176.848L162.046 166.625L167.573 166.065L169.283 182.947L164.946 183.387L163.939 173.453L163.8 173.467L160.946 183.674L158.288 183.943L153.463 174.444L153.323 174.458L154.336 184.461L149.999 184.901L148.289 168.018ZM175.742 182.293L170.938 182.78L174.848 165.328L180.887 164.716L188.194 181.032L183.414 181.516L182.076 178.307L176.409 178.88L175.742 182.293ZM177.095 175.419L180.709 175.053L178.387 169.563L178.247 169.578L177.095 175.419ZM189.873 180.862L188.163 163.98L195.345 163.252C199.122 162.869 201.835 164.998 202.194 168.542C202.56 172.156 200.247 174.676 196.4 175.065L193.788 175.33L194.303 180.413L189.873 180.862ZM193.439 171.879L195.164 171.704C196.843 171.534 197.705 170.504 197.554 169.012C197.405 167.543 196.357 166.73 194.678 166.9L192.952 167.075L193.439 171.879ZM214.91 178.726L212.396 176.696L216.797 171.303L206.047 172.392L205.709 169.057L216.459 167.969L211.064 163.544L213.12 161.051L222.852 168.994L214.91 178.726Z" fill="#FF4103"/>
<path d="M84.9375 171L84.9375 321" stroke="url(#paint1_linear_2073_10204)" stroke-width="13.5"/>
<rect x="12" y="209.139" width="142.906" height="48" rx="9.64259" transform="rotate(-5.78379 12 209.139)" fill="#FF4103" stroke="white" stroke-width="6"/>
<path d="M32.9706 240.078L31.2606 223.196L42.7098 222.036L43.0381 225.277L35.553 226.035L35.9144 229.603L42.6533 228.92L42.9816 232.162L36.2427 232.844L36.9347 239.676L32.9706 240.078ZM46.4719 238.71L44.7618 221.828L56.4442 220.645L56.7726 223.886L49.0542 224.668L49.4156 228.235L56.5276 227.515L56.856 230.756L49.7439 231.477L50.1076 235.068L57.8493 234.284L58.1776 237.525L46.4719 238.71ZM68.6111 224.477C68.3927 223.251 67.4101 222.62 65.7778 222.785C64.1688 222.948 63.4236 223.731 63.4971 224.689C63.58 225.741 64.658 226.15 66.2068 226.323L67.7112 226.524C71.0257 226.918 73.0774 228.336 73.3747 231.038C73.675 234.235 71.3993 236.421 67.202 236.846C63.0048 237.271 60.0828 235.636 59.6208 231.772L63.445 231.385C63.7036 233.007 65.0012 233.724 66.82 233.54C68.4989 233.37 69.426 232.522 69.3407 231.447C69.2182 230.47 68.3034 230.044 66.3955 229.814L64.5808 229.573C61.5975 229.192 59.6789 227.926 59.4214 225.384C59.0816 222.262 61.6439 219.883 65.4681 219.495C69.3622 219.101 72.0722 220.97 72.4353 224.09L68.6111 224.477ZM73.9581 222.145L73.6297 218.904L87.8305 217.466L88.1588 220.707L83.0288 221.226L84.4105 234.868L80.4698 235.267L79.0881 221.626L73.9581 222.145ZM93.7767 216.863L95.4867 233.746L91.5226 234.147L89.8126 217.265L93.7767 216.863ZM100.003 216.233L105.111 228.295L105.251 228.281L107.838 215.439L112.268 214.99L108.265 232.451L102.995 232.985L95.5488 216.684L100.003 216.233ZM116.8 231.587L112.509 232.022L116.535 214.558L121.805 214.024L129.228 230.328L124.961 230.76L123.452 227.262L117.576 227.857L116.8 231.587ZM118.225 224.729L122.189 224.327L119.663 218.458L119.523 218.472L118.225 224.729ZM131.024 230.146L129.314 213.264L133.278 212.862L134.659 226.503L141.748 225.785L142.076 229.027L131.024 230.146Z" fill="white"/>
<path d="M72.2096 66.7279C79.239 59.6985 90.636 59.6985 97.6654 66.7279L139.71 108.772C146.739 115.802 146.739 127.198 139.71 134.228L97.6654 176.272C90.636 183.302 79.239 183.302 72.2096 176.272L30.1654 134.228C23.136 127.198 23.136 115.802 30.1654 108.772L72.2096 66.7279Z" fill="url(#paint2_linear_2073_10204)" stroke="#7A1F00" stroke-width="7.5"/>
<path d="M95.4375 111H80.4375C72.1532 111 65.4375 117.716 65.4375 126V144" stroke="#4F1400" stroke-width="12"/>
<path d="M115.34 108.452C117.228 109.626 117.228 112.374 115.34 113.548L94.7716 126.336C92.7732 127.579 90.1875 126.142 90.1875 123.789L90.1875 98.2114C90.1875 95.8582 92.7732 94.4211 94.7716 95.6637L115.34 108.452Z" fill="#4F1400"/>
<circle cx="84.1875" cy="75.75" r="3.75" fill="#7A1F00"/>
<circle cx="84.1875" cy="165.75" r="3.75" fill="#7A1F00"/>
</g>
<defs>
<linearGradient id="paint0_linear_2073_10204" x1="180.875" y1="171" x2="180.875" y2="321" gradientUnits="userSpaceOnUse">
<stop stop-color="#4F1400"/>
<stop offset="1" stop-color="#B05B3F"/>
</linearGradient>
<linearGradient id="paint1_linear_2073_10204" x1="85.4375" y1="171" x2="85.4375" y2="321" gradientUnits="userSpaceOnUse">
<stop stop-color="#4F1400"/>
<stop offset="1" stop-color="#B05B3F"/>
</linearGradient>
<linearGradient id="paint2_linear_2073_10204" x1="119.997" y1="160.5" x2="52.4971" y2="87" gradientUnits="userSpaceOnUse">
<stop stop-color="#FF4103"/>
<stop offset="1" stop-color="#FF784D"/>
</linearGradient>
<clipPath id="clip0_2073_10204">
<rect width="300" height="300" fill="white"/>
</clipPath>
</defs>
</svg>
