<svg width="100" height="100" viewBox="0 0 100 100" fill="none" xmlns="http://www.w3.org/2000/svg">
<g clip-path="url(#clip0_2290_11060)">
<path d="M62.75 68.5L62.75 102L58.25 102L58.25 69L62.75 68.5Z" fill="#211F20"/>
<path d="M26 53.5L25.5 102" stroke="#211F20" stroke-width="4.5" stroke-linejoin="round"/>
<path d="M42.8363 52.4899C42.8363 51.4658 43.6099 50.6071 44.6285 50.5007L73.8721 47.4459C74.4484 47.3857 75.0225 47.5784 75.4458 47.9741L82.2314 54.318C82.9599 54.9991 83.0753 56.1129 82.5018 56.9289L77.1209 64.5853C76.7899 65.0563 76.272 65.3618 75.6997 65.4237L45.0514 68.7397C43.8686 68.8677 42.8363 67.941 42.8363 66.7513L42.8363 52.4899Z" fill="#E5E5E5"/>
<path d="M73.7678 52.432C74.0356 52.1439 74.4795 52.1253 74.7734 52.383C75.7116 53.206 77.0486 54.4789 77.7648 55.1386C78.0709 55.4205 78.1181 55.9084 77.8629 56.2407C77.6558 56.5101 77.4004 56.8486 77.0967 57.256C77.0809 57.2773 76.9745 57.3988 76.8247 57.5696C76.6704 57.7454 76.4614 57.9825 76.2311 58.2453C75.7703 58.7712 75.2248 59.3971 74.8614 59.8285C74.6234 60.1111 74.2067 60.1985 73.8839 59.9906C73.8485 59.9678 73.8119 59.9451 73.7755 59.9212C73.4201 59.6871 73.3554 59.2102 73.637 58.8905C74.1374 58.3222 74.9761 57.4008 75.4443 56.9078C73.2819 57.2309 71.7112 57.4602 70.7336 57.594C70.3431 57.6472 69.9625 57.3858 69.9147 56.9793C69.9102 56.9412 69.9068 56.9042 69.9035 56.8686C69.8979 56.8086 69.8928 56.7422 69.8891 56.6708C69.8695 56.295 70.1461 55.9791 70.5093 55.923C71.3801 55.7884 72.9423 55.5609 75.1949 55.2411C75.2013 55.2402 75.2042 55.2382 75.2062 55.2361C75.2091 55.233 75.2126 55.2268 75.2143 55.2177C75.2181 55.1977 75.2102 55.1837 75.1998 55.1769L75.1925 55.1727C75.1722 55.1578 75.1415 55.1295 75.1102 55.0999C75.0759 55.0674 75.0322 55.0241 74.9809 54.9736C74.8777 54.8721 74.7431 54.7367 74.595 54.5876C74.2989 54.2893 73.946 53.9308 73.6763 53.6575C73.3902 53.3675 73.3611 52.8799 73.6413 52.5702C73.6832 52.5239 73.7254 52.4777 73.7678 52.432Z" fill="#292929" stroke="#292929" stroke-width="0.30123"/>
<path d="M66.3081 53.3512C67.108 53.2772 67.7315 53.441 68.1787 53.8427C68.6318 54.2371 68.8939 54.8179 68.9649 55.585C69.0462 56.4636 68.8792 57.1601 68.464 57.6747C68.0487 58.1892 67.4242 58.5148 66.5905 58.6515C65.9759 58.7666 65.5312 59.3147 65.588 59.9373C65.6094 60.1729 65.6284 60.3828 65.6448 60.567C65.6943 61.12 65.3485 61.6232 64.7973 61.6899C64.7008 61.7015 64.5997 61.7123 64.4942 61.722C64.2646 61.7433 64.0683 61.5763 64.0427 61.3472C63.9668 60.6688 63.8584 59.568 63.7173 58.0446C63.5897 56.6657 63.4946 55.5995 63.4322 54.8461C63.3816 54.2353 63.808 53.6933 64.4137 53.5987C65.17 53.4806 65.8015 53.3981 66.3081 53.3512ZM66.368 57.1049C66.7315 57.0316 66.9837 56.8992 67.1247 56.7076C67.2716 56.5088 67.3293 56.239 67.2977 55.8981C67.2631 55.5243 67.1563 55.2631 66.9772 55.1144C66.8047 54.965 66.5283 54.908 66.148 54.9432C65.5701 54.9967 65.1791 55.5429 65.2341 56.1207C65.2374 56.1547 65.2407 56.1895 65.244 56.2251C65.2978 56.7922 65.8066 57.2022 66.368 57.1049Z" fill="#292929" stroke="#292929" stroke-width="0.1"/>
<path d="M62.3548 61.7301C62.0789 61.8397 61.7758 61.6981 61.6531 61.4277C61.5089 61.11 61.3843 60.8321 61.2791 60.594C61.1675 60.3416 60.9006 60.1943 60.6278 60.2364C60.0431 60.3267 59.4721 60.41 58.9147 60.4862C58.6597 60.5211 58.4514 60.7123 58.3948 60.9634C58.3324 61.2397 58.2393 61.6502 58.1155 62.1949C58.0773 62.3504 57.9389 62.4617 57.779 62.4545C57.5977 62.4463 57.4054 62.4276 57.202 62.3985C57.1185 62.3861 57.0385 62.3729 56.962 62.3588C56.6578 62.303 56.4804 62.0014 56.5456 61.6991C56.7107 60.9331 56.9624 59.8076 57.3008 58.3226C57.6832 56.6612 57.9852 55.3796 58.2067 54.4779C58.2589 54.2656 58.4225 54.0978 58.6368 54.0549C58.748 54.0326 58.8699 54.0107 59.0025 53.9893C59.2891 53.9429 59.5505 53.9088 59.7865 53.8869C59.9795 53.8691 60.1548 53.9778 60.2372 54.1533C60.6088 54.9448 61.1246 56.0871 61.7848 57.5802C62.3981 58.9546 62.8677 60.0159 63.1937 60.7641C63.309 61.0289 63.2184 61.3389 62.9585 61.465C62.87 61.5079 62.7746 61.5511 62.6722 61.5945C62.5631 61.6442 62.4573 61.6893 62.3548 61.7301ZM58.9438 58.4774C58.8999 58.6832 59.0747 58.8702 59.283 58.8399C59.5541 58.8005 59.8087 58.7642 60.0468 58.7309C60.2438 58.7034 60.3611 58.4963 60.2835 58.3132C60.1032 57.8881 59.9415 57.5026 59.7985 57.1568C59.6829 56.8771 59.2646 56.9181 59.2052 57.2149C59.1258 57.6117 59.0387 58.0326 58.9438 58.4774Z" fill="#292929" stroke="#292929" stroke-width="0.1"/>
<path d="M48.7845 63.1871C48.5665 63.2073 48.3812 63.0371 48.3584 62.8194C48.2755 62.0291 48.1902 61.161 48.1027 60.2151C47.9669 58.7481 47.8498 57.4427 47.7514 56.2988C47.6989 55.6883 48.1153 55.1397 48.7209 55.0463C48.8099 55.0325 48.9026 55.0185 48.999 55.0041C49.1077 54.9878 49.211 54.9728 49.309 54.9589C49.8749 54.8788 50.3939 55.2403 50.5483 55.7906C50.5539 55.8106 50.5596 55.8307 50.5652 55.851C50.6803 56.2371 50.8002 56.6392 50.9249 57.0575L51.4231 58.7682C51.5162 59.0879 51.9843 59.0429 52.0147 58.7113C52.0768 58.0336 52.1536 57.2002 52.2451 56.2112L52.3165 55.4221C52.3643 54.8929 52.7536 54.4593 53.2792 54.3811C53.4089 54.3618 53.5482 54.3418 53.6969 54.3212C53.753 54.3128 53.8079 54.3047 53.8615 54.2969C54.5055 54.2033 55.0735 54.6731 55.1376 55.3208C55.2483 56.4398 55.3695 57.7107 55.5012 59.1335C55.5672 59.847 55.6268 60.5205 55.6798 61.1539C55.7276 61.7246 55.3628 62.2551 54.7939 62.3212C54.7328 62.3283 54.6708 62.3348 54.6078 62.3406C54.3712 62.3625 54.17 62.1829 54.1463 61.9465C54.1339 61.8228 54.1197 61.6755 54.1039 61.5045C54.0408 60.8226 53.9931 60.2715 53.9608 59.8513L53.7294 57.2443C53.7206 57.1491 53.5779 57.1481 53.5673 57.2431C53.4828 57.9985 53.3755 58.8635 53.2454 59.8382C53.1381 60.6354 53.0503 61.2749 52.9818 61.7569C52.9161 62.2187 52.5695 62.5887 52.1073 62.6514C51.6211 62.7286 51.1674 62.4303 51.0062 61.9652C50.8574 61.5362 50.6652 60.9736 50.4294 60.2774C50.1093 59.3133 49.8357 58.461 49.6087 57.7206C49.5844 57.6415 49.4636 57.6651 49.4712 57.7475L49.7241 60.3725C49.7707 60.8046 49.8265 61.3714 49.8914 62.0729C49.9401 62.5984 49.6084 63.0817 49.0854 63.1528C48.9867 63.1663 48.8863 63.1777 48.7845 63.1871Z" fill="#292929" stroke="#292929" stroke-width="0.1"/>
<path d="M21.3409 21.3673C23.0785 19.6422 25.81 19.4292 27.794 20.864L46.1088 34.1089C48.6088 35.9168 48.891 39.5352 46.7016 41.7089L30.6617 57.6332C28.9242 59.3582 26.1927 59.5713 24.2087 58.1365L5.89384 44.8916C3.3939 43.0837 3.11169 39.4652 5.3011 37.2916L21.3409 21.3673Z" fill="#FF3700" stroke="white" stroke-width="2"/>
<path d="M29.7588 36.197L24.7739 36.5858C22.0209 36.8005 19.9631 39.2064 20.1778 41.9595L20.6444 47.9413" stroke="#4F1400" stroke-width="4"/>
<path d="M36.308 34.836C36.9658 35.1772 37.037 36.0903 36.44 36.5293L29.9361 41.3124C29.3042 41.7771 28.4077 41.3666 28.3467 40.5846L27.6838 32.0846C27.6228 31.3026 28.4448 30.758 29.1411 31.1191L36.308 34.836Z" fill="#4F1400"/>
<path d="M3.48864 64.4497C3.62846 63.0308 4.86774 61.9781 6.29055 62.0695L42.5166 64.3985L48.4516 64.3978C49.9698 64.3977 51.1766 65.6728 51.0928 67.1888L50.406 79.6142C50.3203 81.1642 48.9244 82.3075 47.3878 82.0861L24.7399 78.8229C24.5913 78.8015 24.4412 78.7928 24.2911 78.7968L4.28225 79.3382C3.07895 79.3707 2.11974 78.3407 2.23779 77.1428L3.48864 64.4497Z" fill="#211F20"/>
<path d="M42.3396 72.355L42.5173 69.275C42.5319 69.0223 42.7238 68.8152 42.9768 68.8056C43.0194 68.804 43.0635 68.8027 43.1091 68.8017C43.341 68.7971 43.5464 68.7998 43.7253 68.8097C43.899 68.8193 44.0224 68.9738 44.0151 69.1476C43.9871 69.8106 43.9489 70.5814 43.9003 71.4597C43.8437 72.4851 43.7949 73.311 43.754 73.9377C43.7335 74.2512 43.9873 74.5152 44.3015 74.5112C44.5605 74.5079 44.8455 74.5069 45.1564 74.5082C45.4742 74.5095 45.7528 74.5123 45.9923 74.5166C46.2695 74.5216 46.4917 74.7442 46.4813 75.0213C46.479 75.0835 46.476 75.148 46.4723 75.2149C46.4678 75.2959 46.4628 75.3726 46.4572 75.4448C46.4378 75.6982 46.2257 75.8856 45.9716 75.8876C45.5807 75.8907 45.0144 75.8894 44.2726 75.8838C43.5992 75.8824 43.0721 75.8792 42.6915 75.874C42.3962 75.87 42.1673 75.6208 42.1829 75.3259L42.3396 72.355Z" fill="#FF3700" stroke="#FF3700" stroke-width="0.1"/>
<path d="M40.7466 75.6236C40.4928 75.6831 40.2478 75.5211 40.1762 75.2704C40.092 74.9759 40.0195 74.7184 39.9589 74.4981C39.8946 74.2644 39.6817 74.102 39.4394 74.1034C38.9199 74.1064 38.4132 74.1051 37.9193 74.0994C37.6933 74.0968 37.4877 74.236 37.4061 74.4467C37.3163 74.6787 37.1825 75.0232 37.0047 75.4803C36.9514 75.6104 36.8169 75.6892 36.6789 75.6623C36.5225 75.6318 36.3579 75.5908 36.185 75.5392C36.1141 75.5177 36.0464 75.4959 35.9817 75.4738C35.7247 75.3861 35.6095 75.1013 35.7051 74.8471C35.9474 74.2031 36.3112 73.2581 36.7967 72.012C37.3432 70.6183 37.7708 69.5442 38.0796 68.7896C38.1523 68.612 38.316 68.4874 38.5077 68.4777C38.6072 68.4727 38.7159 68.4694 38.8338 68.4679C39.0887 68.4646 39.3201 68.4687 39.5279 68.4802C39.6979 68.4896 39.8361 68.6067 39.885 68.7697C40.1056 69.5051 40.4063 70.5638 40.787 71.9458C41.1423 73.2186 41.4132 74.2009 41.5998 74.8928C41.6658 75.1377 41.5471 75.3953 41.3051 75.4712C41.2228 75.4971 41.1343 75.5223 41.0397 75.5468C40.9386 75.5758 40.8409 75.6014 40.7466 75.6236ZM38.177 72.43C38.1251 72.5685 38.2273 72.7165 38.3751 72.7168C38.6713 72.7176 38.9457 72.7192 39.1984 72.7215C39.3381 72.7228 39.441 72.5911 39.4059 72.4559C39.2773 71.9608 39.166 71.5231 39.072 71.1429C39.021 70.9365 38.7272 70.9217 38.6558 71.122C38.5113 71.5276 38.3517 71.9636 38.177 72.43Z" fill="#FF3700" stroke="#FF3700" stroke-width="0.1"/>
<path d="M32.6641 75.2511C32.4632 75.24 32.2982 75.1013 32.2415 74.9082C32.0134 74.1312 31.7213 73.0693 31.3651 71.7225C31.0385 70.4818 30.7998 69.5408 30.6491 68.8995C30.5919 68.6561 30.7178 68.4081 30.9564 68.3335C31.0519 68.3037 31.1566 68.2735 31.2707 68.2431C31.3695 68.2149 31.4621 68.1897 31.5485 68.1674C31.8092 68.1003 32.065 68.2624 32.1342 68.5225C32.3872 69.4725 32.6961 70.7581 33.0609 72.3793C33.1102 72.5983 33.4163 72.6164 33.4901 72.4044C33.6138 72.0523 33.8551 71.3534 34.2139 70.3078C34.4873 69.5239 34.7058 68.9095 34.8694 68.4647C34.9534 68.2362 35.1846 68.0993 35.4208 68.1581C35.5202 68.1828 35.6306 68.2126 35.7521 68.2474C35.8539 68.2762 35.9455 68.3039 36.0271 68.3305C36.2655 68.4081 36.3663 68.6627 36.2829 68.8991C35.9854 69.743 35.5927 70.8109 35.1049 72.1028C34.6206 73.3852 34.2573 74.3334 34.015 74.9473C33.9434 75.1285 33.777 75.2552 33.5823 75.26C33.506 75.2618 33.4227 75.2625 33.3323 75.2619C33.0946 75.2662 32.8719 75.2625 32.6641 75.2511Z" fill="#FF3700" stroke="#FF3700" stroke-width="0.1"/>
<path d="M28.6003 75.1207C28.4035 75.1098 28.259 74.9433 28.2665 74.7463C28.2939 74.0216 28.3441 72.9966 28.4174 71.6712C28.4894 70.3671 28.5538 69.3117 28.6106 68.505C28.6284 68.2525 28.824 68.0502 29.077 68.0423C29.111 68.0412 29.1462 68.0403 29.1825 68.0395C29.4144 68.0349 29.6313 68.0382 29.8334 68.0494C29.9867 68.0579 30.0962 68.1882 30.0892 68.3416C30.0431 69.3533 29.9875 70.4474 29.9225 71.624C29.861 72.7376 29.801 73.747 29.7425 74.6522C29.7259 74.9085 29.5272 75.1176 29.2705 75.1273C29.0526 75.1355 28.8292 75.1334 28.6003 75.1207Z" fill="#FF3700" stroke="#FF3700" stroke-width="0.1"/>
<path d="M27.5911 67.7835C27.8728 67.7893 28.0998 68.0182 28.0902 68.2998C28.0885 68.3508 28.0863 68.4002 28.0837 68.4479C28.0795 68.5239 28.0733 68.6087 28.0652 68.7023C28.0426 68.9636 27.8243 69.1624 27.562 69.1654C27.3546 69.1678 27.1099 69.169 26.8279 69.1689L26.7995 69.1692C26.5182 69.1721 26.2882 69.3944 26.2743 69.6753C26.2477 70.2105 26.2052 71.0077 26.1467 72.0669C26.0847 73.1898 26.039 73.9714 26.0096 74.4117C25.9935 74.6523 25.8101 74.8412 25.5694 74.8541C25.3334 74.8667 25.0982 74.8665 24.8637 74.8536C24.6477 74.8417 24.494 74.6592 24.5033 74.4431C24.5216 74.0173 24.5621 73.2378 24.6247 72.1045C24.6824 71.0603 24.7276 70.2674 24.7603 69.7256C24.7786 69.4231 24.541 69.1657 24.238 69.1612L23.5984 69.1516C23.3059 69.1472 23.0709 68.9062 23.082 68.6139C23.0845 68.5501 23.0871 68.4926 23.0899 68.4413C23.0933 68.3807 23.0975 68.3164 23.1025 68.2484C23.122 67.9827 23.3431 67.7788 23.6095 67.7747C24.1786 67.7657 24.869 67.7635 25.6806 67.768C26.4482 67.7679 27.085 67.7731 27.5911 67.7835Z" fill="#FF3700" stroke="#FF3700" stroke-width="0.1"/>
<path d="M20.2347 74.6579C19.7023 74.6517 19.2299 74.5561 18.8174 74.3712C18.5215 74.2385 18.246 74.0593 17.9909 73.8335C17.8101 73.6734 17.7909 73.4029 17.9405 73.2133C18.0039 73.133 18.0732 73.0492 18.1483 72.9619C18.21 72.8884 18.2699 72.8202 18.3279 72.7574C18.5049 72.5654 18.7961 72.5747 19.0073 72.7284C19.1713 72.8476 19.3381 72.9505 19.5078 73.037C19.8064 73.1867 20.0913 73.269 20.3627 73.284C20.6282 73.2987 20.8453 73.247 21.0139 73.1289C21.1887 73.0054 21.2823 72.831 21.2947 72.6059C21.304 72.4385 21.2795 72.304 21.2215 72.2023C21.1692 72.101 21.0474 71.9987 20.8562 71.8955C20.6712 71.7869 20.3772 71.6577 19.9744 71.5081C19.3441 71.2822 18.8845 71.0078 18.5954 70.685C18.3124 70.3567 18.1847 69.9443 18.2121 69.4479C18.2488 68.784 18.4736 68.2782 18.8865 67.9304C19.3056 67.5772 19.8943 67.4013 20.6528 67.4026L20.8351 67.404C21.2334 67.426 21.6074 67.5219 21.957 67.6918C22.1839 67.8004 22.3895 67.9315 22.5738 68.085C22.7581 68.2386 22.777 68.5094 22.6208 68.6915C22.564 68.7578 22.5031 68.8243 22.4379 68.8909C22.3802 68.9521 22.3219 69.0112 22.2631 69.0681C22.0764 69.2487 21.7877 69.2318 21.5725 69.0863C21.4671 69.0151 21.3644 68.9573 21.2642 68.9129C21.0611 68.8148 20.8326 68.7588 20.5786 68.7448C20.3189 68.7304 20.1106 68.7797 19.9538 68.8926C19.8031 69.0001 19.7219 69.1607 19.7101 69.3743C19.7015 69.5301 19.7289 69.6619 19.7924 69.7697C19.8621 69.8719 19.984 69.9713 20.1581 70.0678C20.3323 70.1643 20.5897 70.274 20.9303 70.3971C21.617 70.6492 22.099 70.9393 22.3762 71.2673C22.6594 71.5898 22.7867 72.0109 22.758 72.5304C22.7201 73.2174 22.4884 73.7431 22.0629 74.1075C21.643 74.478 21.0335 74.6615 20.2347 74.6579Z" fill="#FF3700" stroke="#FF3700" stroke-width="0.1"/>
<path d="M16.7168 72.8974C16.9993 72.9 17.2285 73.1268 17.2181 73.4091C17.2161 73.4632 17.2136 73.5177 17.2105 73.5727C17.2065 73.6461 17.2015 73.7195 17.1956 73.7928C17.1746 74.0542 16.9532 74.2492 16.6909 74.2498C16.3116 74.2507 15.7747 74.2493 15.0802 74.2454C14.3179 74.2457 13.6673 74.2428 13.1284 74.2368C12.8286 74.2335 12.5934 73.9802 12.61 73.6808C12.7453 71.2367 12.8581 69.2384 12.9483 67.686C12.9641 67.4141 13.1836 67.1997 13.456 67.1964C13.8795 67.1911 14.4841 67.1905 15.2699 67.1946C16.021 67.1948 16.5953 67.1986 16.9928 67.2061C17.2696 67.2112 17.4892 67.4354 17.48 67.7121C17.4778 67.7773 17.4749 67.8422 17.4714 67.9069C17.4667 67.991 17.4608 68.0755 17.4535 68.1603C17.4328 68.4028 17.238 68.5821 16.9947 68.585C16.7815 68.5875 16.4907 68.5885 16.1222 68.588C15.6736 68.5841 15.2908 68.5796 14.974 68.5746C14.676 68.5699 14.424 68.8101 14.4084 69.1077C14.4057 69.1573 14.4029 69.21 14.3998 69.2658L14.3921 69.4432C14.3789 69.7468 14.6236 69.9989 14.9274 69.9969C15.266 69.9947 15.6152 69.9942 15.975 69.9956C16.185 69.9963 16.363 69.9978 16.5089 69.9999C16.7745 70.0037 16.9783 70.2146 16.9703 70.48C16.9679 70.5568 16.9647 70.6335 16.9604 70.7101C16.9557 70.7952 16.9498 70.8803 16.9426 70.9652C16.9219 71.2109 16.7227 71.3946 16.4762 71.3987C16.3122 71.4014 16.1047 71.4034 15.8538 71.4046C15.4752 71.4064 15.1202 71.4058 14.7889 71.4028C14.5056 71.4002 14.2686 71.619 14.2513 71.9018L14.2263 72.3119C14.2072 72.6236 14.4611 72.8879 14.7733 72.8882C14.9925 72.8884 15.2645 72.8899 15.5892 72.8926C16.0385 72.893 16.4144 72.8946 16.7168 72.8974Z" fill="#FF3700" stroke="#FF3700" stroke-width="0.1"/>
<path d="M12.3214 67.8635C12.2974 68.1234 12.0751 68.3153 11.8141 68.3161C11.4867 68.3171 11.0791 68.3173 10.5912 68.3168C10.2641 68.3141 9.99348 68.3111 9.7793 68.3079C9.48213 68.3033 9.23018 68.5389 9.21808 68.8359C9.21233 68.977 9.20596 69.1212 9.19895 69.2686C9.18437 69.5754 9.43111 69.8318 9.73829 69.8308C10.0598 69.8297 10.4001 69.8319 10.7591 69.8374C10.9873 69.8387 11.1793 69.8406 11.3351 69.8432C11.6013 69.8477 11.8057 70.0596 11.7976 70.3256C11.7953 70.4019 11.792 70.4781 11.7878 70.5543C11.7834 70.635 11.7777 70.7168 11.7707 70.7997C11.7495 71.0537 11.5394 71.2415 11.2845 71.2436C10.9129 71.2467 10.3122 71.2495 9.48238 71.2521C9.26257 71.2399 9.08239 71.4183 9.06997 71.6381C9.028 72.3811 8.98955 73.0108 8.95463 73.5271C8.93822 73.7697 8.75703 73.9699 8.5141 73.9805C8.29724 73.99 8.04303 73.9867 7.75148 73.9706C7.55003 73.9594 7.40354 73.7888 7.41333 73.5873C7.44012 73.0363 7.48884 72.1211 7.55949 70.8419C7.64848 69.2308 7.71549 68.0813 7.76053 67.3933C7.77816 67.124 7.99766 66.914 8.26752 66.9109C8.69927 66.9058 9.30868 66.905 10.0958 66.9085C10.8783 66.9122 11.4758 66.9178 11.8884 66.9253C12.1502 66.9301 12.3613 67.1305 12.3519 67.3923C12.3502 67.4407 12.3478 67.4916 12.3449 67.5452C12.339 67.6519 12.3312 67.758 12.3214 67.8635Z" fill="#FF3700" stroke="#FF3700" stroke-width="0.1"/>
</g>
<defs>
<clipPath id="clip0_2290_11060">
<rect width="100" height="100" fill="white"/>
</clipPath>
</defs>
</svg>
