<svg width="13" height="17" viewBox="0 0 13 17" fill="none" xmlns="http://www.w3.org/2000/svg">
<path d="M6.48112 14.5L2.63112 16.15C2.02001 16.4097 1.43945 16.3601 0.889453 16.001C0.339453 15.642 0.0644531 15.134 0.0644531 14.4771V2.58333C0.0644531 2.07917 0.243967 1.64757 0.602995 1.28854C0.962023 0.929514 1.39362 0.75 1.89779 0.75H11.0645C11.5686 0.75 12.0002 0.929514 12.3592 1.28854C12.7183 1.64757 12.8978 2.07917 12.8978 2.58333V14.4771C12.8978 15.134 12.6228 15.642 12.0728 16.001C11.5228 16.3601 10.9422 16.4097 10.3311 16.15L6.48112 14.5ZM6.48112 12.4833L11.0645 14.4542V2.58333H1.89779V14.4542L6.48112 12.4833Z" fill="#888888"/>
</svg>
