<svg width="32" height="42" viewBox="0 0 32 42" fill="none" xmlns="http://www.w3.org/2000/svg">
<path d="M32 16.0851C32 24.9703 23.9296 34.3063 19.2521 38.971C17.4284 40.7898 14.5716 40.7898 12.7479 38.971C8.07044 34.3063 0 24.9703 0 16.0851C6.32325e-08 11.8191 1.68571 7.72776 4.68629 4.71122C7.68687 1.69468 11.7565 0 16 0C20.2435 0 24.3131 1.69468 27.3137 4.71122C30.3143 7.72776 32 11.8191 32 16.0851Z" fill="#FF4103"/>
<mask id="mask0_3064_13329" style="mask-type:alpha" maskUnits="userSpaceOnUse" x="6" y="6" width="20" height="20">
<rect x="6" y="6" width="20" height="20" fill="#D9D9D9"/>
</mask>
<g mask="url(#mask0_3064_13329)">
<path d="M11.8333 24.3346C11.5972 24.3346 11.3993 24.2548 11.2396 24.0951C11.0799 23.9353 11 23.7374 11 23.5013V16.7096C10.25 16.5152 9.64583 16.1194 9.1875 15.5221C8.72917 14.9249 8.5 14.2513 8.5 13.5013V8.5013C8.5 8.26519 8.57986 8.06727 8.73958 7.90755C8.89931 7.74783 9.09722 7.66797 9.33333 7.66797C9.56944 7.66797 9.76736 7.74783 9.92708 7.90755C10.0868 8.06727 10.1667 8.26519 10.1667 8.5013V12.668H11V8.5013C11 8.26519 11.0799 8.06727 11.2396 7.90755C11.3993 7.74783 11.5972 7.66797 11.8333 7.66797C12.0694 7.66797 12.2674 7.74783 12.4271 7.90755C12.5868 8.06727 12.6667 8.26519 12.6667 8.5013V12.668H13.5V8.5013C13.5 8.26519 13.5799 8.06727 13.7396 7.90755C13.8993 7.74783 14.0972 7.66797 14.3333 7.66797C14.5694 7.66797 14.7674 7.74783 14.9271 7.90755C15.0868 8.06727 15.1667 8.26519 15.1667 8.5013V13.5013C15.1667 14.2513 14.9375 14.9249 14.4792 15.5221C14.0208 16.1194 13.4167 16.5152 12.6667 16.7096V23.5013C12.6667 23.7374 12.5868 23.9353 12.4271 24.0951C12.2674 24.2548 12.0694 24.3346 11.8333 24.3346ZM20.1667 24.3346C19.9306 24.3346 19.7326 24.2548 19.5729 24.0951C19.4132 23.9353 19.3333 23.7374 19.3333 23.5013V16.3971C18.5833 16.1471 17.9792 15.6228 17.5208 14.8242C17.0625 14.0256 16.8333 13.1194 16.8333 12.1055C16.8333 10.8694 17.1597 9.82075 17.8125 8.95964C18.4653 8.09852 19.25 7.66797 20.1667 7.66797C21.0833 7.66797 21.8681 8.102 22.5208 8.97005C23.1736 9.83811 23.5 10.8902 23.5 12.1263C23.5 13.1402 23.2708 14.043 22.8125 14.8346C22.3542 15.6263 21.75 16.1471 21 16.3971V23.5013C21 23.7374 20.9201 23.9353 20.7604 24.0951C20.6007 24.2548 20.4028 24.3346 20.1667 24.3346Z" fill="white"/>
</g>
</svg>
