<svg width="21" height="21" viewBox="0 0 21 21" fill="none" xmlns="http://www.w3.org/2000/svg">
<mask id="mask0_373_4190" style="mask-type:alpha" maskUnits="userSpaceOnUse" x="0" y="0" width="21" height="21">
<rect x="0.5" y="0.5" width="20" height="20" fill="#D9D9D9"/>
</mask>
<g mask="url(#mask0_373_4190)">
<path d="M8 15.5C7.5875 15.5 7.23438 15.3531 6.94062 15.0594C6.64687 14.7656 6.5 14.4125 6.5 14V4C6.5 3.5875 6.64687 3.23438 6.94062 2.94063C7.23438 2.64688 7.5875 2.5 8 2.5H16C16.4125 2.5 16.7656 2.64688 17.0594 2.94063C17.3531 3.23438 17.5 3.5875 17.5 4V14C17.5 14.4125 17.3531 14.7656 17.0594 15.0594C16.7656 15.3531 16.4125 15.5 16 15.5H8ZM8 14H16V4H8V14ZM5 18.5C4.5875 18.5 4.23437 18.3531 3.94062 18.0594C3.64687 17.7656 3.5 17.4125 3.5 17V6.25C3.5 6.0375 3.57146 5.85937 3.71437 5.71562C3.85729 5.57187 4.03437 5.5 4.24562 5.5C4.45687 5.5 4.63542 5.57187 4.78125 5.71562C4.92708 5.85937 5 6.0375 5 6.25V17H13.75C13.9625 17 14.1406 17.0715 14.2844 17.2144C14.4281 17.3573 14.5 17.5344 14.5 17.7456C14.5 17.9569 14.4281 18.1354 14.2844 18.2812C14.1406 18.4271 13.9625 18.5 13.75 18.5H5Z" fill="#8A96A9"/>
</g>
</svg>
