<svg width="16" height="16" viewBox="0 0 16 16" fill="none" xmlns="http://www.w3.org/2000/svg">
<mask id="mask0_1982_9568" style="mask-type:alpha" maskUnits="userSpaceOnUse" x="0" y="0" width="16" height="16">
<rect width="16" height="16" fill="#D9D9D9"/>
</mask>
<g mask="url(#mask0_1982_9568)">
<path d="M7.99973 11.9996C8.22317 11.9996 8.41267 11.9224 8.56823 11.7681C8.72379 11.6139 8.80156 11.425 8.80156 11.2014C8.80156 10.978 8.7244 10.7885 8.57006 10.6329C8.41584 10.4774 8.22695 10.3996 8.0034 10.3996C7.77995 10.3996 7.59045 10.4768 7.4349 10.6311C7.27934 10.7853 7.20156 10.9742 7.20156 11.1978C7.20156 11.4212 7.27873 11.6107 7.43306 11.7663C7.58729 11.9218 7.77617 11.9996 7.99973 11.9996ZM8.00623 14.3996C7.12534 14.3996 6.29601 14.2329 5.51823 13.8996C4.74045 13.5663 4.0599 13.1079 3.47656 12.5246C2.89323 11.9413 2.4349 11.2609 2.10156 10.4836C1.76823 9.70628 1.60156 8.87572 1.60156 7.99194C1.60156 7.10817 1.76823 6.28017 2.10156 5.50794C2.4349 4.73572 2.89323 4.05794 3.47656 3.47461C4.0599 2.89128 4.74023 2.43294 5.51756 2.09961C6.2949 1.76628 7.12545 1.59961 8.00923 1.59961C8.89301 1.59961 9.72101 1.76628 10.4932 2.09961C11.2655 2.43294 11.9432 2.89128 12.5266 3.47461C13.1099 4.05794 13.5682 4.73694 13.9016 5.51161C14.2349 6.28639 14.4016 7.11417 14.4016 7.99494C14.4016 8.87583 14.2349 9.70516 13.9016 10.4829C13.5682 11.2607 13.1099 11.9413 12.5266 12.5246C11.9432 13.1079 11.2642 13.5663 10.4896 13.8996C9.71479 14.2329 8.88701 14.3996 8.00623 14.3996ZM8.00156 13.1996C9.44601 13.1996 10.6738 12.6941 11.6849 11.6829C12.696 10.6718 13.2016 9.44405 13.2016 7.99961C13.2016 6.55516 12.696 5.32739 11.6849 4.31628C10.6738 3.30517 9.44601 2.79961 8.00156 2.79961C6.55712 2.79961 5.32934 3.30517 4.31823 4.31628C3.30712 5.32739 2.80156 6.55516 2.80156 7.99961C2.80156 9.44405 3.30712 10.6718 4.31823 11.6829C5.32934 12.6941 6.55712 13.1996 8.00156 13.1996ZM8.0554 5.13294C8.33662 5.13294 8.58129 5.223 8.7894 5.40311C8.99751 5.58311 9.10156 5.80816 9.10156 6.07828C9.10156 6.32583 9.02934 6.54405 8.8849 6.73294C8.74045 6.92183 8.57379 7.09405 8.3849 7.24961C8.12934 7.47183 7.90156 7.72183 7.70156 7.99961C7.50156 8.27739 7.40712 8.5885 7.41823 8.93294C7.41823 9.0885 7.47423 9.2135 7.58623 9.30794C7.69823 9.40239 7.8289 9.44961 7.97823 9.44961C8.13823 9.44961 8.27379 9.40239 8.3849 9.30794C8.49601 9.2135 8.56823 9.0885 8.60156 8.93294C8.65712 8.6885 8.76267 8.47272 8.91823 8.28561C9.07379 8.09839 9.24045 7.91972 9.41823 7.74961C9.67379 7.50517 9.88212 7.23294 10.0432 6.93294C10.2043 6.63294 10.2849 6.31072 10.2849 5.96628C10.2849 5.39961 10.0655 4.93017 9.62656 4.55794C9.18767 4.18572 8.66595 3.99961 8.0614 3.99961C7.64373 3.99961 7.24879 4.09128 6.87656 4.27461C6.50434 4.45794 6.20623 4.72889 5.98223 5.08744C5.89512 5.21778 5.87101 5.36072 5.9099 5.51628C5.94878 5.67183 6.04045 5.78294 6.1849 5.84961C6.34045 5.92739 6.49601 5.94405 6.65156 5.89961C6.80712 5.85517 6.9349 5.77183 7.0349 5.64961C7.15712 5.49405 7.30712 5.36905 7.4849 5.27461C7.66267 5.18017 7.85284 5.13294 8.0554 5.13294Z" fill="#AAAAAA"/>
</g>
</svg>
