<svg width="24" height="24" viewBox="0 0 24 24" fill="none" xmlns="http://www.w3.org/2000/svg">
<path d="M12 0.75C14.3869 0.75 16.6764 1.69791 18.3643 3.38574C20.0521 5.07357 21 7.36305 21 9.75C21 14.7205 16.4623 19.9431 13.8311 22.5537C12.803 23.5737 11.197 23.5737 10.1689 22.5537C7.53766 19.9431 3 14.7205 3 9.75C3 7.36305 3.94791 5.07357 5.63574 3.38574C7.32357 1.69791 9.61305 0.75 12 0.75ZM12 6.75C10.3431 6.75 9 8.09315 9 9.75C9 11.4069 10.3431 12.75 12 12.75C13.6569 12.75 15 11.4069 15 9.75C15 8.09315 13.6569 6.75 12 6.75Z" fill="#444444"/>
</svg>
