<svg width="19" height="19" viewBox="0 0 19 19" fill="none" xmlns="http://www.w3.org/2000/svg">
<path d="M9.48047 1.0625C11.2707 1.0625 12.988 1.77319 14.2539 3.03906C15.5198 4.30493 16.2305 6.02229 16.2305 7.8125C16.2305 11.5404 12.827 15.4571 10.8535 17.415C10.0825 18.18 8.87848 18.18 8.10742 17.415C6.13395 15.4571 2.73047 11.5404 2.73047 7.8125C2.73047 6.02229 3.44116 4.30493 4.70703 3.03906C5.9729 1.77319 7.69026 1.0625 9.48047 1.0625ZM9.48047 5.5625C8.23783 5.5625 7.23047 6.56986 7.23047 7.8125C7.23047 9.05514 8.23783 10.0625 9.48047 10.0625C10.7231 10.0625 11.7305 9.05514 11.7305 7.8125C11.7305 6.56986 10.7231 5.5625 9.48047 5.5625Z"/>
</svg>
