<svg width="12" height="8" viewBox="0 0 12 8" fill="none" xmlns="http://www.w3.org/2000/svg">
<path d="M5.9924 7.3C5.8724 7.3 5.7599 7.27917 5.6549 7.2375C5.5499 7.19583 5.45574 7.13333 5.3724 7.05L0.630903 2.3085C0.441903 2.1195 0.35157 1.90417 0.359903 1.6625C0.368236 1.42083 0.46407 1.20833 0.647403 1.025C0.830736 0.841667 1.04324 0.75 1.2849 0.75C1.52657 0.75 1.73907 0.841667 1.9224 1.025L5.9974 5.125L10.0974 1.025C10.2807 0.841667 10.4932 0.754167 10.7349 0.7625C10.9766 0.770833 11.1891 0.866667 11.3724 1.05C11.5557 1.23333 11.6474 1.44583 11.6474 1.6875C11.6474 1.92917 11.5529 2.144 11.3639 2.332L6.6224 7.05C6.5324 7.13333 6.4349 7.19583 6.3299 7.2375C6.2249 7.27917 6.1124 7.3 5.9924 7.3Z" fill="#222222"/>
</svg>
