<svg width="14" height="14" viewBox="0 0 14 14" fill="none" xmlns="http://www.w3.org/2000/svg">
<path d="M5.66667 7.55556H0.944444C0.676852 7.55556 0.452546 7.46505 0.271528 7.28403C0.0905093 7.10301 0 6.8787 0 6.61111C0 6.34352 0.0905093 6.11921 0.271528 5.93819C0.452546 5.75718 0.676852 5.66667 0.944444 5.66667H5.66667V0.944444C5.66667 0.676852 5.75718 0.452546 5.93819 0.271528C6.11921 0.0905093 6.34352 0 6.61111 0C6.8787 0 7.10301 0.0905093 7.28403 0.271528C7.46505 0.452546 7.55556 0.676852 7.55556 0.944444V5.66667H12.2778C12.5454 5.66667 12.7697 5.75718 12.9507 5.93819C13.1317 6.11921 13.2222 6.34352 13.2222 6.61111C13.2222 6.8787 13.1317 7.10301 12.9507 7.28403C12.7697 7.46505 12.5454 7.55556 12.2778 7.55556H7.55556V12.2778C7.55556 12.5454 7.46505 12.7697 7.28403 12.9507C7.10301 13.1317 6.8787 13.2222 6.61111 13.2222C6.34352 13.2222 6.11921 13.1317 5.93819 12.9507C5.75718 12.7697 5.66667 12.5454 5.66667 12.2778V7.55556Z" fill="#97A7B2"/>
</svg>
