<svg width="20" height="20" viewBox="0 0 20 20" fill="none" xmlns="http://www.w3.org/2000/svg">
<mask id="mask0_2290_10788" style="mask-type:alpha" maskUnits="userSpaceOnUse" x="0" y="0" width="20" height="20">
<rect width="20" height="20" fill="#D9D9D9"/>
</mask>
<g mask="url(#mask0_2290_10788)">
<path d="M10 16C8.33333 16 6.91667 15.4167 5.75 14.25C4.58333 13.0833 4 11.6667 4 10C4 8.33333 4.58333 6.91667 5.75 5.75C6.91667 4.58333 8.33333 4 10 4C10.9028 4 11.7396 4.1875 12.5104 4.5625C13.2812 4.9375 13.9444 5.4375 14.5 6.0625V4.75C14.5 4.5375 14.5715 4.35937 14.7144 4.21562C14.8573 4.07187 15.0344 4 15.2456 4C15.4569 4 15.6354 4.07187 15.7812 4.21562C15.9271 4.35937 16 4.5375 16 4.75V8.25C16 8.4625 15.9281 8.64063 15.7844 8.78438C15.6406 8.92813 15.4625 9 15.25 9H11.75C11.5375 9 11.3594 8.92854 11.2156 8.78563C11.0719 8.64271 11 8.46563 11 8.25438C11 8.04313 11.0719 7.86458 11.2156 7.71875C11.3594 7.57292 11.5375 7.5 11.75 7.5H13.7292C13.3264 6.88889 12.7986 6.40278 12.1458 6.04167C11.4931 5.68056 10.7778 5.5 10 5.5C8.75 5.5 7.6875 5.9375 6.8125 6.8125C5.9375 7.6875 5.5 8.75 5.5 10C5.5 11.25 5.9375 12.3125 6.8125 13.1875C7.6875 14.0625 8.75 14.5 10 14.5C11.0417 14.5 11.9583 14.184 12.75 13.5521C13.5417 12.9201 14.0625 12.125 14.3125 11.1667C14.3681 10.9722 14.4826 10.8194 14.6562 10.7083C14.8299 10.5972 15.0141 10.5556 15.209 10.5833C15.4169 10.6111 15.5833 10.7049 15.7083 10.8646C15.8333 11.0243 15.875 11.2014 15.8333 11.3958C15.5139 12.7292 14.8194 13.8299 13.75 14.6979C12.6806 15.566 11.4306 16 10 16Z" fill="#6F6F6F"/>
</g>
</svg>
