<svg width="18" height="17" viewBox="0 0 18 17" fill="currentColor" xmlns="http://www.w3.org/2000/svg">
<path fill-rule="evenodd" clip-rule="evenodd" d="M12.1322 12.8127C10.9262 13.7646 9.40312 14.3327 7.7474 14.3327C3.83538 14.3327 0.664062 11.1614 0.664062 7.24935C0.664062 3.33733 3.83538 0.166016 7.7474 0.166016C11.6594 0.166016 14.8307 3.33733 14.8307 7.24935C14.8307 8.90507 14.2626 10.4281 13.3108 11.6342L17.0867 15.4101C17.4121 15.7355 17.4121 16.2632 17.0867 16.5886C16.7612 16.914 16.2336 16.914 15.9081 16.5886L12.1322 12.8127ZM13.1641 7.24935C13.1641 10.2409 10.7389 12.666 7.7474 12.666C4.75585 12.666 2.33073 10.2409 2.33073 7.24935C2.33073 4.25781 4.75585 1.83268 7.7474 1.83268C10.7389 1.83268 13.1641 4.25781 13.1641 7.24935Z" fill="currentColor"/>
</svg>
