<svg width="16" height="16" viewBox="0 0 16 16" fill="none" xmlns="http://www.w3.org/2000/svg">
<path fill-rule="evenodd" clip-rule="evenodd" d="M7.9987 14.6673C11.6806 14.6673 14.6654 11.6826 14.6654 8.00065C14.6654 4.31875 11.6806 1.33398 7.9987 1.33398C4.3168 1.33398 1.33203 4.31875 1.33203 8.00065C1.33203 11.6826 4.3168 14.6673 7.9987 14.6673ZM6.83203 6.16732C6.83203 6.62756 6.45894 7.00065 5.9987 7.00065C5.53846 7.00065 5.16536 6.62756 5.16536 6.16732C5.16536 5.70708 5.53846 5.33398 5.9987 5.33398C6.45894 5.33398 6.83203 5.70708 6.83203 6.16732ZM10.832 6.16732C10.832 6.62756 10.4589 7.00065 9.9987 7.00065C9.53846 7.00065 9.16536 6.62756 9.16536 6.16732C9.16536 5.70708 9.53846 5.33398 9.9987 5.33398C10.4589 5.33398 10.832 5.70708 10.832 6.16732ZM5.33203 8.66732C5.33203 10.1401 6.52594 11.334 7.9987 11.334C9.47146 11.334 10.6654 10.1401 10.6654 8.66732H5.33203Z" fill="#888888"/>
</svg>
