<svg width="32" height="42" viewBox="0 0 32 42" fill="none" xmlns="http://www.w3.org/2000/svg">
<path d="M32 16.0851C32 24.9703 23.9296 34.3063 19.2521 38.971C17.4284 40.7898 14.5716 40.7898 12.7479 38.971C8.07044 34.3063 0 24.9703 0 16.0851C6.32325e-08 11.8191 1.68571 7.72776 4.68629 4.71122C7.68687 1.69468 11.7565 0 16 0C20.2435 0 24.3131 1.69468 27.3137 4.71122C30.3143 7.72776 32 11.8191 32 16.0851Z" fill="#363D4A"/>
<mask id="mask0_3064_13330" style="mask-type:alpha" maskUnits="userSpaceOnUse" x="6" y="6" width="20" height="20">
<rect x="6" y="6" width="20" height="20" fill="#D9D9D9"/>
</mask>
<g mask="url(#mask0_3064_13330)">
<path d="M8.91406 21.8346C8.56684 21.8346 8.2717 21.7131 8.02865 21.4701C7.78559 21.227 7.66406 20.9319 7.66406 20.5846C7.66406 20.2374 7.78559 19.9423 8.02865 19.6992C8.2717 19.4562 8.56684 19.3346 8.91406 19.3346H19.5391C19.7196 19.3346 19.8689 19.3937 19.987 19.5117C20.105 19.6298 20.1641 19.7791 20.1641 19.9596V21.2096C20.1641 21.3902 20.105 21.5395 19.987 21.6576C19.8689 21.7756 19.7196 21.8346 19.5391 21.8346H8.91406ZM21.6224 21.8346C21.4418 21.8346 21.2925 21.7756 21.1745 21.6576C21.0564 21.5395 20.9974 21.3902 20.9974 21.2096V19.9596C20.9974 19.7791 21.0564 19.6298 21.1745 19.5117C21.2925 19.3937 21.4418 19.3346 21.6224 19.3346C21.803 19.3346 21.9523 19.3937 22.0703 19.5117C22.1884 19.6298 22.2474 19.7791 22.2474 19.9596V21.2096C22.2474 21.3902 22.1884 21.5395 22.0703 21.6576C21.9523 21.7756 21.803 21.8346 21.6224 21.8346ZM23.7057 21.8346C23.5252 21.8346 23.3759 21.7756 23.2578 21.6576C23.1398 21.5395 23.0807 21.3902 23.0807 21.2096V19.9596C23.0807 19.7791 23.1398 19.6298 23.2578 19.5117C23.3759 19.3937 23.5252 19.3346 23.7057 19.3346C23.8863 19.3346 24.0356 19.3937 24.1536 19.5117C24.2717 19.6298 24.3307 19.7791 24.3307 19.9596V21.2096C24.3307 21.3902 24.2717 21.5395 24.1536 21.6576C24.0356 21.7756 23.8863 21.8346 23.7057 21.8346ZM21.6224 18.5013C21.4418 18.5013 21.2925 18.4423 21.1745 18.3242C21.0564 18.2062 20.9974 18.0569 20.9974 17.8763V17.418C20.9974 16.8763 20.8377 16.4631 20.5182 16.1784C20.1988 15.8937 19.8168 15.7513 19.3724 15.7513H18.0807C17.303 15.7513 16.6432 15.4805 16.1016 14.9388C15.5599 14.3971 15.2891 13.7374 15.2891 12.9596C15.2891 12.1819 15.5599 11.5221 16.1016 10.9805C16.6432 10.4388 17.303 10.168 18.0807 10.168C18.2613 10.168 18.4106 10.227 18.5286 10.3451C18.6467 10.4631 18.7057 10.6124 18.7057 10.793C18.7057 10.9735 18.6467 11.1228 18.5286 11.2409C18.4106 11.3589 18.2613 11.418 18.0807 11.418C17.6641 11.418 17.303 11.5638 16.9974 11.8555C16.6918 12.1471 16.5391 12.5152 16.5391 12.9596C16.5391 13.4041 16.6918 13.7721 16.9974 14.0638C17.303 14.3555 17.6641 14.5013 18.0807 14.5013H19.3724C20.1502 14.5013 20.8238 14.7513 21.3932 15.2513C21.9627 15.7513 22.2474 16.3763 22.2474 17.1263V17.8763C22.2474 18.0569 22.1884 18.2062 22.0703 18.3242C21.9523 18.4423 21.803 18.5013 21.6224 18.5013ZM23.7057 18.5013C23.5252 18.5013 23.3759 18.4423 23.2578 18.3242C23.1398 18.2062 23.0807 18.0569 23.0807 17.8763V16.6263C23.0807 15.7096 22.7613 14.918 22.1224 14.2513C21.4835 13.5846 20.6918 13.2513 19.7474 13.2513C19.5668 13.2513 19.4175 13.1923 19.2995 13.0742C19.1814 12.9562 19.1224 12.8069 19.1224 12.6263C19.1224 12.4457 19.1814 12.2964 19.2995 12.1784C19.4175 12.0603 19.5668 12.0013 19.7474 12.0013C20.1641 12.0013 20.5252 11.8485 20.8307 11.543C21.1363 11.2374 21.2891 10.8763 21.2891 10.4596C21.2891 10.043 21.1363 9.68186 20.8307 9.3763C20.5252 9.07075 20.1641 8.91797 19.7474 8.91797C19.5668 8.91797 19.4175 8.85894 19.2995 8.74089C19.1814 8.62283 19.1224 8.47352 19.1224 8.29297C19.1224 8.11241 19.1814 7.96311 19.2995 7.84505C19.4175 7.727 19.5668 7.66797 19.7474 7.66797C20.5252 7.66797 21.1849 7.9388 21.7266 8.48047C22.2682 9.02214 22.5391 9.68186 22.5391 10.4596C22.5391 10.8624 22.4627 11.227 22.3099 11.5534C22.1571 11.8798 21.9557 12.1819 21.7057 12.4596C22.4835 12.8207 23.1155 13.3763 23.6016 14.1263C24.0877 14.8763 24.3307 15.7096 24.3307 16.6263V17.8763C24.3307 18.0569 24.2717 18.2062 24.1536 18.3242C24.0356 18.4423 23.8863 18.5013 23.7057 18.5013Z" fill="white"/>
</g>
</svg>
