<svg width="15" height="17" viewBox="0 0 15 17" fill="none" xmlns="http://www.w3.org/2000/svg">
<path d="M7.48047 0.0625C9.27068 0.0625 10.988 0.773192 12.2539 2.03906C13.5198 3.30493 14.2305 5.02229 14.2305 6.8125C14.2305 10.5404 10.827 14.4571 8.85352 16.415C8.08246 17.18 6.87848 17.18 6.10742 16.415C4.13395 14.4571 0.730469 10.5404 0.730469 6.8125C0.730469 5.02229 1.44116 3.30493 2.70703 2.03906C3.9729 0.773192 5.69026 0.0625 7.48047 0.0625ZM7.48047 4.5625C6.23783 4.5625 5.23047 5.56986 5.23047 6.8125C5.23047 8.05514 6.23783 9.0625 7.48047 9.0625C8.72311 9.0625 9.73047 8.05514 9.73047 6.8125C9.73047 5.56986 8.72311 4.5625 7.48047 4.5625Z" fill="#CCCCCC"/>
</svg>
