<svg width="32" height="42" viewBox="0 0 32 42" fill="none" xmlns="http://www.w3.org/2000/svg">
<path d="M32 16.0851C32 24.9703 23.9296 34.3063 19.2521 38.971C17.4284 40.7898 14.5716 40.7898 12.7479 38.971C8.07044 34.3063 0 24.9703 0 16.0851C6.32325e-08 11.8191 1.68571 7.72776 4.68629 4.71122C7.68687 1.69468 11.7565 0 16 0C20.2435 0 24.3131 1.69468 27.3137 4.71122C30.3143 7.72776 32 11.8191 32 16.0851Z" fill="#363D4A"/>
<mask id="mask0_3064_13331" style="mask-type:alpha" maskUnits="userSpaceOnUse" x="6" y="6" width="20" height="20">
<rect x="6" y="6" width="20" height="20" fill="#D9D9D9"/>
</mask>
<g mask="url(#mask0_3064_13331)">
<path d="M10.5781 23.4993V18.0827H10.1615C9.92535 18.0827 9.72743 18.0028 9.56771 17.8431C9.40799 17.6834 9.32812 17.4855 9.32812 17.2493V13.4993C9.32812 13.041 9.49132 12.6487 9.81771 12.3223C10.1441 11.9959 10.5365 11.8327 10.9948 11.8327H13.4948C13.9531 11.8327 14.3455 11.9959 14.6719 12.3223C14.9983 12.6487 15.1615 13.041 15.1615 13.4993V17.2493C15.1615 17.4855 15.0816 17.6834 14.9219 17.8431C14.7622 18.0028 14.5642 18.0827 14.3281 18.0827H13.9115V23.4993C13.9115 23.7355 13.8316 23.9334 13.6719 24.0931C13.5122 24.2528 13.3142 24.3327 13.0781 24.3327H11.4115C11.1753 24.3327 10.9774 24.2528 10.8177 24.0931C10.658 23.9334 10.5781 23.7355 10.5781 23.4993ZM12.2448 10.9993C11.7865 10.9993 11.3941 10.8362 11.0677 10.5098C10.7413 10.1834 10.5781 9.79102 10.5781 9.33268C10.5781 8.87435 10.7413 8.48199 11.0677 8.1556C11.3941 7.82921 11.7865 7.66602 12.2448 7.66602C12.7031 7.66602 13.0955 7.82921 13.4219 8.1556C13.7483 8.48199 13.9115 8.87435 13.9115 9.33268C13.9115 9.79102 13.7483 10.1834 13.4219 10.5098C13.0955 10.8362 12.7031 10.9993 12.2448 10.9993ZM18.4948 23.4993V19.3327H17.1406C16.8628 19.3327 16.6406 19.2181 16.474 18.9889C16.3073 18.7598 16.2726 18.5063 16.3698 18.2285L18.1198 12.9577C18.2309 12.5966 18.4358 12.3188 18.7344 12.1243C19.033 11.9299 19.3698 11.8327 19.7448 11.8327C20.1198 11.8327 20.4566 11.9299 20.7552 12.1243C21.0538 12.3188 21.2587 12.5966 21.3698 12.9577L23.1198 18.2285C23.217 18.5063 23.1823 18.7598 23.0156 18.9889C22.849 19.2181 22.6267 19.3327 22.349 19.3327H20.9948V23.4993C20.9948 23.7355 20.9149 23.9334 20.7552 24.0931C20.5955 24.2528 20.3976 24.3327 20.1615 24.3327H19.3281C19.092 24.3327 18.8941 24.2528 18.7344 24.0931C18.5747 23.9334 18.4948 23.7355 18.4948 23.4993ZM19.7448 10.9993C19.2865 10.9993 18.8941 10.8362 18.5677 10.5098C18.2413 10.1834 18.0781 9.79102 18.0781 9.33268C18.0781 8.87435 18.2413 8.48199 18.5677 8.1556C18.8941 7.82921 19.2865 7.66602 19.7448 7.66602C20.2031 7.66602 20.5955 7.82921 20.9219 8.1556C21.2483 8.48199 21.4115 8.87435 21.4115 9.33268C21.4115 9.79102 21.2483 10.1834 20.9219 10.5098C20.5955 10.8362 20.2031 10.9993 19.7448 10.9993Z" fill="white"/>
</g>
</svg>
