<svg width="16" height="16" viewBox="0 0 16 16" fill="none" xmlns="http://www.w3.org/2000/svg">
<path d="M8.83333 7.66667V4.66667C8.83333 4.43056 8.75347 4.23264 8.59375 4.07292C8.43403 3.91319 8.23611 3.83333 8 3.83333C7.76389 3.83333 7.56597 3.91319 7.40625 4.07292C7.24653 4.23264 7.16667 4.43056 7.16667 4.66667V7.97917C7.16667 8.09028 7.1875 8.19792 7.22917 8.30208C7.27083 8.40625 7.33333 8.5 7.41667 8.58333L9.75 10.9167C9.90278 11.0694 10.0972 11.1458 10.3333 11.1458C10.5694 11.1458 10.7639 11.0694 10.9167 10.9167C11.0694 10.7639 11.1458 10.5694 11.1458 10.3333C11.1458 10.0972 11.0694 9.90278 10.9167 9.75L8.83333 7.66667ZM8 15.5C6.95833 15.5 5.98264 15.3021 5.07292 14.9062C4.16319 14.5104 3.37153 13.9757 2.69792 13.3021C2.02431 12.6285 1.48958 11.8368 1.09375 10.9271C0.697917 10.0174 0.5 9.04167 0.5 8C0.5 6.95833 0.697917 5.98264 1.09375 5.07292C1.48958 4.16319 2.02431 3.37153 2.69792 2.69792C3.37153 2.02431 4.16319 1.48958 5.07292 1.09375C5.98264 0.697917 6.95833 0.5 8 0.5C9.04167 0.5 10.0174 0.697917 10.9271 1.09375C11.8368 1.48958 12.6285 2.02431 13.3021 2.69792C13.9757 3.37153 14.5104 4.16319 14.9062 5.07292C15.3021 5.98264 15.5 6.95833 15.5 8C15.5 9.04167 15.3021 10.0174 14.9062 10.9271C14.5104 11.8368 13.9757 12.6285 13.3021 13.3021C12.6285 13.9757 11.8368 14.5104 10.9271 14.9062C10.0174 15.3021 9.04167 15.5 8 15.5ZM8 13.8333C9.625 13.8333 11.0035 13.2674 12.1354 12.1354C13.2674 11.0035 13.8333 9.625 13.8333 8C13.8333 6.375 13.2674 4.99653 12.1354 3.86458C11.0035 2.73264 9.625 2.16667 8 2.16667C6.375 2.16667 4.99653 2.73264 3.86458 3.86458C2.73264 4.99653 2.16667 6.375 2.16667 8C2.16667 9.625 2.73264 11.0035 3.86458 12.1354C4.99653 13.2674 6.375 13.8333 8 13.8333Z" fill="#888888"/>
</svg>
