<svg width="16" height="17" viewBox="0 0 16 17" fill="none" xmlns="http://www.w3.org/2000/svg">
<path fill-rule="evenodd" clip-rule="evenodd" d="M1.33203 8.4987C1.33203 4.81775 4.31775 1.83203 7.9987 1.83203C11.6797 1.83203 14.6654 4.81775 14.6654 8.4987C14.6654 12.1797 11.6797 15.1654 7.9987 15.1654C4.31775 15.1654 1.33203 12.1797 1.33203 8.4987ZM11.1568 6.94918C11.4056 6.67777 11.3873 6.25606 11.1159 6.00727C10.8445 5.75847 10.4227 5.77681 10.1739 6.04822L7.02262 9.48602L5.8442 8.07191C5.60849 7.78906 5.18811 7.75084 4.90526 7.98655C4.62241 8.22226 4.58419 8.64264 4.8199 8.92549L6.24245 10.6325C6.63003 11.0976 7.33873 11.1144 7.74782 10.6681L11.1568 6.94918Z" fill="#BBBBBB"/>
</svg>
