<svg width="12" height="12" viewBox="0 0 12 12" fill="none" xmlns="http://www.w3.org/2000/svg">
<path d="M5.90483 6.925L1.61082 11.025C1.41881 11.2083 1.20062 11.2958 0.956247 11.2875C0.711873 11.2792 0.493682 11.1833 0.301673 11C0.109665 10.8167 0.0136607 10.6042 0.0136607 10.3625C0.0136607 10.1208 0.109665 9.90833 0.301673 9.725L4.5695 5.65L0.27549 1.55C0.0834819 1.36667 -0.00815846 1.15417 0.000569195 0.9125C0.00929685 0.670833 0.109665 0.458333 0.301673 0.275C0.493682 0.0916667 0.716237 0 0.969339 0C1.22244 0 1.445 0.0916667 1.637 0.275L5.90483 4.375L10.1988 0.275C10.3908 0.0916667 10.6134 0 10.8665 0C11.1196 0 11.3422 0.0916667 11.5342 0.275C11.7262 0.458333 11.8222 0.670833 11.8222 0.9125C11.8222 1.15417 11.7262 1.36667 11.5342 1.55L7.24016 5.65L11.5342 9.75C11.7262 9.93333 11.8222 10.1417 11.8222 10.375C11.8222 10.6083 11.7262 10.8167 11.5342 11C11.3422 11.1833 11.1196 11.275 10.8665 11.275C10.6134 11.275 10.3908 11.1833 10.1988 11L5.90483 6.925Z" fill="#AAAAAA"/>
</svg>
