<svg width="20" height="20" viewBox="0 0 20 20" fill="none" xmlns="http://www.w3.org/2000/svg">
<mask id="mask0_569_413" style="mask-type:alpha" maskUnits="userSpaceOnUse" x="0" y="0" width="20" height="20">
<rect width="20" height="20" fill="#D9D9D9"/>
</mask>
<g mask="url(#mask0_569_413)">
<path d="M9.15635 10.8389C9.3908 10.8389 9.59003 10.7584 9.75406 10.5973C9.91823 10.4362 10.0003 10.2383 10.0003 10.0037C10.0003 9.76928 9.91976 9.56997 9.75865 9.40581C9.5974 9.24178 9.39955 9.15977 9.1651 9.15977C8.93052 9.15977 8.73122 9.24032 8.56719 9.40143C8.40302 9.56254 8.32094 9.76039 8.32094 9.99497C8.32094 10.2294 8.40156 10.4287 8.56281 10.5929C8.72392 10.7569 8.92177 10.8389 9.15635 10.8389ZM6.0651 17.1379V15.4346L10.9057 14.4596V6.50122C10.9057 6.24497 10.8211 6.01581 10.652 5.81372C10.483 5.61164 10.2655 5.47956 9.99948 5.41747L6.0651 4.60893V2.88477L10.3718 3.68331C11.0352 3.80734 11.5783 4.13789 12.0009 4.67497C12.4236 5.2122 12.6349 5.82095 12.6349 6.50122V14.4464C12.6349 14.8621 12.4986 15.2288 12.2259 15.5464C11.9533 15.8641 11.6082 16.0626 11.1905 16.1421L6.0651 17.1379ZM6.0651 15.4346H13.9355V4.61393L6.0651 4.60893V15.4346ZM3.70052 17.1637C3.45816 17.1637 3.25344 17.0807 3.08635 16.9146C2.91941 16.7483 2.83594 16.5446 2.83594 16.3035C2.83594 16.0624 2.91941 15.8573 3.08635 15.6883C3.25344 15.5191 3.45816 15.4346 3.70052 15.4346H4.33594V4.61393C4.33594 4.13504 4.50441 3.72713 4.84135 3.39018C5.1783 3.05324 5.58622 2.88477 6.0651 2.88477H13.9355C14.4144 2.88477 14.8223 3.05324 15.1593 3.39018C15.4962 3.72713 15.6647 4.13504 15.6647 4.61393V15.4346H16.2957C16.5368 15.4346 16.742 15.5176 16.9111 15.6837C17.0802 15.85 17.1647 16.0537 17.1647 16.2948C17.1647 16.5359 17.0812 16.741 16.9143 16.9102C16.7472 17.0792 16.5425 17.1637 16.3001 17.1637H3.70052Z" fill="#2C7CF6"/>
</g>
</svg>
