<svg width="10" height="6" viewBox="0 0 10 6" fill="none" xmlns="http://www.w3.org/2000/svg">
<path d="M4.99497 5.74935C4.89497 5.74935 4.80122 5.73199 4.71372 5.69727C4.62622 5.66254 4.54775 5.61046 4.47831 5.54102L0.527054 1.58977C0.369554 1.43227 0.294277 1.25282 0.301221 1.05143C0.308166 0.850043 0.388027 0.67296 0.540805 0.520182C0.693582 0.367404 0.870666 0.291016 1.07205 0.291016C1.27344 0.291016 1.45053 0.367404 1.6033 0.520182L4.99914 3.93685L8.4158 0.520182C8.56858 0.367404 8.74567 0.294488 8.94705 0.301432C9.14844 0.308377 9.32553 0.388238 9.47831 0.541016C9.63108 0.693793 9.70747 0.870877 9.70747 1.07227C9.70747 1.27365 9.62872 1.45268 9.47122 1.60935L5.51997 5.54102C5.44497 5.61046 5.36372 5.66254 5.27622 5.69727C5.18872 5.73199 5.09497 5.74935 4.99497 5.74935Z" fill="#222222"/>
</svg>
