<svg width="20" height="20" viewBox="0 0 20 20" fill="none" xmlns="http://www.w3.org/2000/svg">
<mask id="mask0_1989_11027" style="mask-type:alpha" maskUnits="userSpaceOnUse" x="0" y="0" width="20" height="20">
<rect width="20" height="20" fill="#D9D9D9"/>
</mask>
<g mask="url(#mask0_1989_11027)">
<path d="M4 20C3.45 20 2.97917 19.8042 2.5875 19.4125C2.19583 19.0208 2 18.55 2 18C2 17.45 2.19583 16.9792 2.5875 16.5875C2.97917 16.1958 3.45 16 4 16H16C16.55 16 17.0208 16.1958 17.4125 16.5875C17.8042 16.9792 18 17.45 18 18C18 18.55 17.8042 19.0208 17.4125 19.4125C17.0208 19.8042 16.55 20 16 20H4ZM4 13.2483V11.125C4 11.0139 4.02083 10.9132 4.0625 10.8229C4.10417 10.7326 4.15972 10.6528 4.22917 10.5833L12.375 2.4375C12.5278 2.28472 12.6933 2.17361 12.8717 2.10417C13.0499 2.03472 13.2374 2 13.4342 2C13.6308 2 13.8194 2.03472 14 2.10417C14.1806 2.17361 14.3479 2.28431 14.5021 2.43625L15.5625 3.5C15.7153 3.65278 15.8264 3.81944 15.8958 4C15.9653 4.18056 16 4.37076 16 4.57063C16 4.75799 15.9656 4.94222 15.8969 5.12333C15.8281 5.30444 15.7188 5.47 15.569 5.62L7.41667 13.7708C7.34722 13.8403 7.26736 13.8958 7.17708 13.9375C7.08681 13.9792 6.98611 14 6.875 14H4.75167C4.53875 14 4.36021 13.928 4.21604 13.784C4.07201 13.6398 4 13.4613 4 13.2483ZM13.4375 5.625L14.5 4.5625L13.4375 3.5L12.375 4.5625L13.4375 5.625Z" fill="#444444"/>
</g>
</svg>
