<svg width="16" height="16" viewBox="0 0 16 16" fill="none" xmlns="http://www.w3.org/2000/svg">
<g clip-path="url(#clip0_4724_21772)">
<path d="M11.9613 11.9594C10.8217 12.828 9.43404 13.3093 8.0013 13.3327C3.33464 13.3327 0.667969 7.99937 0.667969 7.99937C1.49723 6.45396 2.64739 5.10377 4.0413 4.03937M6.6013 2.82603C7.06019 2.71862 7.53001 2.66492 8.0013 2.66603C12.668 2.66603 15.3346 7.99937 15.3346 7.99937C14.93 8.75644 14.4473 9.46919 13.8946 10.126M9.41464 9.4127C9.23154 9.6092 9.01074 9.7668 8.7654 9.87611C8.52007 9.98543 8.25524 10.0442 7.9867 10.0489C7.71815 10.0537 7.45141 10.0043 7.20238 9.90369C6.95334 9.8031 6.72712 9.65338 6.5372 9.46347C6.34728 9.27355 6.19756 9.04733 6.09697 8.79829C5.99639 8.54926 5.94699 8.28251 5.95172 8.01397C5.95646 7.74543 6.01524 7.4806 6.12455 7.23526C6.23387 6.98993 6.39147 6.76913 6.58797 6.58603" stroke="black" stroke-width="1.33333" stroke-linecap="round" stroke-linejoin="round"/>
<path d="M0.667969 0.666016L15.3346 15.3327" stroke="black" stroke-width="1.33333" stroke-linecap="round" stroke-linejoin="round"/>
</g>
<defs>
<clipPath id="clip0_4724_21772">
<rect width="16" height="16" fill="white"/>
</clipPath>
</defs>
</svg>
