<svg width="48" height="48" viewBox="0 0 48 48" fill="none" xmlns="http://www.w3.org/2000/svg">
<mask id="mask0_1989_10594" style="mask-type:alpha" maskUnits="userSpaceOnUse" x="0" y="0" width="48" height="48">
<rect width="48" height="48" fill="#D9D9D9"/>
</mask>
<g mask="url(#mask0_1989_10594)">
<path d="M7 40C6.2 40 5.5 39.7 4.9 39.1C4.3 38.5 4 37.8 4 37V11C4 10.2 4.3 9.5 4.9 8.9C5.5 8.3 6.2 8 7 8H41C41.8 8 42.5 8.3 43.1 8.9C43.7 9.5 44 10.2 44 11V37C44 37.8 43.7 38.5 43.1 39.1C42.5 39.7 41.8 40 41 40H7ZM7 37H41V11H7V37ZM22.3 30.75L18.3 25.15C18.1333 24.95 17.9333 24.8417 17.7 24.825C17.4667 24.8083 17.2667 24.9 17.1 25.1L12.75 30.8C12.55 31.0667 12.525 31.3333 12.675 31.6C12.825 31.8667 13.05 32 13.35 32H34.7C34.9833 32 35.1958 31.8667 35.3375 31.6C35.4792 31.3333 35.4667 31.0667 35.3 30.8L29.45 22.85C29.2833 22.65 29.0833 22.55 28.85 22.55C28.6167 22.55 28.4167 22.65 28.25 22.85L22.3 30.75Z" fill="#CCCCCC"/>
</g>
</svg>
