<svg width="124" height="52" viewBox="0 0 124 52" fill="none" xmlns="http://www.w3.org/2000/svg">
<rect y="6" width="40" height="40" rx="8.07578" fill="#16191E"/>
<path d="M9.7896 35.9172L17.1067 13.9243L21.0526 16.1754L13.7354 38.1683L9.7896 35.9172Z" fill="#FF4103"/>
<path d="M21.0014 32.1674L26.5648 15.5063L30.5106 17.7575L24.9472 34.4186L21.0014 32.1674Z" fill="#FF4103"/>
<path d="M20.9065 32.1102L18.4566 14.6954L20.9973 16.1449L23.4472 33.5597L20.9065 32.1102Z" fill="#FF4103"/>
<path d="M85.2123 20.4139C85.2123 25.1486 83.7993 28.9869 78.7995 28.9869C73.7997 28.9869 72.3867 25.1486 72.3867 20.4139C72.3867 15.6791 73.9084 11.8408 78.7995 11.8408C84.2341 11.8408 85.2123 15.6791 85.2123 20.4139Z" fill="black"/>
<path d="M116.408 20.4139C116.408 25.1486 114.995 28.9869 109.071 28.9869C103.147 28.9869 101.734 25.1486 101.734 20.4139C101.734 15.6791 103.202 11.8408 109.071 11.8408C114.614 11.8408 116.408 15.6791 116.408 20.4139Z" fill="black"/>
<path d="M81.0484 20.7546C80.5533 23.149 79.6167 25.0096 77.904 24.7521C76.1914 24.4946 76.0576 22.4731 76.5527 20.0787C77.0478 17.6842 77.7703 15.7914 79.6971 16.0811C81.3562 16.3306 81.5435 18.3602 81.0484 20.7546Z" fill="white"/>
<path d="M111.378 20.7546C110.883 23.1491 109.947 25.0097 108.234 24.7521C106.521 24.4946 106.388 22.4731 106.883 20.0787C107.378 17.6842 108.1 15.7914 110.027 16.0811C111.686 16.3306 111.874 18.3602 111.378 20.7546Z" fill="white"/>
<rect x="50.707" y="11.9346" width="4.96431" height="17.7386" fill="black"/>
<rect x="57.8008" y="26.0479" width="4.96431" height="14.1103" fill="black"/>
<rect x="76.4688" y="30.0752" width="4.96431" height="10.0788" fill="black"/>
<rect x="84.9863" y="30.0752" width="4.23308" height="12.2926" transform="rotate(90 84.9863 30.0752)" fill="black"/>
<rect x="90.9961" y="35.9229" width="4.23308" height="7.09187" transform="rotate(90 90.9961 35.9229)" fill="black"/>
<rect x="123.359" y="35.9229" width="4.23308" height="10.4014" transform="rotate(90 123.359 35.9229)" fill="black"/>
<rect x="116.035" y="36.2314" width="4.96431" height="6.04725" transform="rotate(180 116.035 36.2314)" fill="black"/>
<rect x="118.166" y="11.9346" width="4.96431" height="20.7622" fill="black"/>
<rect x="87.3398" y="11.9346" width="4.96431" height="28.2205" fill="black"/>
<rect x="71.0391" y="35.9229" width="4.23308" height="21.0392" transform="rotate(90 71.0391 35.9229)" fill="black"/>
<rect x="70.3301" y="25.8438" width="4.23308" height="19.6208" transform="rotate(90 70.3301 25.8438)" fill="black"/>
<rect x="93.8164" y="11.9346" width="4.96431" height="28.2205" fill="black"/>
<path d="M101.379 35.5222L115.917 32.7002V37.3364L101.379 40.1585V35.5222Z" fill="black"/>
</svg>
