<svg width="123" height="52" viewBox="0 0 123 52" fill="none" xmlns="http://www.w3.org/2000/svg">
<rect y="6.18555" width="39.6289" height="39.6289" rx="8.00085" fill="#FF4103"/>
<path d="M9.69439 35.824L16.9436 14.0352L20.8529 16.2654L13.6036 38.0543L9.69439 35.824Z" fill="black"/>
<path d="M20.8097 32.1107L26.3215 15.6041L30.2307 17.8344L24.719 34.341L20.8097 32.1107Z" fill="black"/>
<path d="M20.7143 32.0529L18.2871 14.7997L20.8043 16.2358L23.2315 33.489L20.7143 32.0529Z" fill="black"/>
<path d="M84.8412 20.4149C84.8412 25.1496 83.4283 28.9879 78.4284 28.9879C73.4286 28.9879 72.0156 25.1496 72.0156 20.4149C72.0156 15.6801 73.5373 11.8418 78.4284 11.8418C83.863 11.8418 84.8412 15.6801 84.8412 20.4149Z" fill="black"/>
<path d="M116.037 20.4149C116.037 25.1496 114.624 28.9879 108.7 28.9879C102.776 28.9879 101.363 25.1496 101.363 20.4149C101.363 15.6801 102.831 11.8418 108.7 11.8418C114.243 11.8418 116.037 15.6801 116.037 20.4149Z" fill="black"/>
<path d="M80.6773 20.7536C80.1822 23.1481 79.2456 25.0087 77.5329 24.7512C75.8203 24.4937 75.6865 22.4721 76.1816 20.0777C76.6767 17.6833 77.3992 15.7905 79.326 16.0802C80.9851 16.3296 81.1724 18.3592 80.6773 20.7536Z" fill="white"/>
<path d="M111.005 20.7537C110.51 23.1481 109.574 25.0087 107.861 24.7512C106.148 24.4937 106.015 22.4721 106.51 20.0777C107.005 17.6833 107.727 15.7905 109.654 16.0802C111.313 16.3296 111.501 18.3592 111.005 20.7537Z" fill="white"/>
<rect x="50.3359" y="11.9336" width="4.96431" height="17.7386" fill="black"/>
<rect x="57.4297" y="26.0469" width="4.96431" height="14.1103" fill="black"/>
<rect x="76.0977" y="30.0742" width="4.96431" height="10.0788" fill="black"/>
<rect x="84.6172" y="30.0742" width="4.23308" height="12.2926" transform="rotate(90 84.6172 30.0742)" fill="black"/>
<rect x="90.625" y="35.9219" width="4.23308" height="7.09187" transform="rotate(90 90.625 35.9219)" fill="black"/>
<rect x="122.988" y="35.9219" width="4.23308" height="10.4014" transform="rotate(90 122.988 35.9219)" fill="black"/>
<rect x="115.664" y="36.2324" width="4.96431" height="6.04725" transform="rotate(180 115.664 36.2324)" fill="black"/>
<rect x="117.797" y="11.9336" width="4.96431" height="20.7622" fill="black"/>
<rect x="86.9688" y="11.9336" width="4.96431" height="28.2205" fill="black"/>
<rect x="70.668" y="35.9219" width="4.23308" height="21.0392" transform="rotate(90 70.668 35.9219)" fill="black"/>
<rect x="69.9609" y="25.8438" width="4.23308" height="19.6208" transform="rotate(90 69.9609 25.8438)" fill="black"/>
<rect x="93.4453" y="11.9336" width="4.96431" height="28.2205" fill="black"/>
<path d="M101.008 35.5213L115.546 32.6992V37.3354L101.008 40.1575V35.5213Z" fill="black"/>
</svg>
