<svg width="55" height="15" viewBox="0 0 55 15" fill="none" xmlns="http://www.w3.org/2000/svg">
<path d="M13.375 13.25H0.46875V11.8125H6.03125V9.51562H2V4.89062H10.125V3.14062H1.96875V1.73438H11.8438V6.26562H3.73438V8.09375H12.1719V9.51562H7.75V11.8125H13.375V13.25ZM25.5312 3.73438C25.5312 4.57812 25.5208 5.30469 25.5 5.91406C25.4844 6.51823 25.4401 7.21094 25.3672 7.99219C25.2943 8.77344 25.1771 9.625 25.0156 10.5469L23.25 10.3906C23.4219 9.53125 23.5469 8.71875 23.625 7.95312C23.7031 7.18229 23.75 6.49479 23.7656 5.89062C23.7865 5.28125 23.7969 4.5625 23.7969 3.73438V3.54688H15.6562V2.14062H25.5312V3.73438ZM27.1719 12.9531H14.2969V11.5312H27.1719V12.9531ZM31.9219 1.79688C32.6302 1.79688 33.2604 2.0026 33.8125 2.41406C34.3646 2.82031 34.7969 3.40104 35.1094 4.15625C35.4271 4.90625 35.5885 5.78125 35.5938 6.78125C35.5885 7.79167 35.4271 8.67448 35.1094 9.42969C34.7969 10.1849 34.3646 10.7656 33.8125 11.1719C33.2604 11.5781 32.6302 11.7812 31.9219 11.7812C31.2083 11.7812 30.5729 11.5781 30.0156 11.1719C29.4583 10.7604 29.0234 10.1771 28.7109 9.42188C28.3984 8.66667 28.2448 7.78646 28.25 6.78125C28.2448 5.78646 28.3984 4.91146 28.7109 4.15625C29.0234 3.40104 29.4583 2.82031 30.0156 2.41406C30.5729 2.0026 31.2083 1.79688 31.9219 1.79688ZM31.9219 3.35938C31.526 3.35938 31.1771 3.4974 30.875 3.77344C30.5729 4.04427 30.3385 4.4375 30.1719 4.95312C30.0052 5.46354 29.9219 6.07292 29.9219 6.78125C29.9219 7.49479 30.0052 8.10938 30.1719 8.625C30.3385 9.14062 30.5729 9.53646 30.875 9.8125C31.1771 10.0833 31.526 10.2188 31.9219 10.2188C32.3229 10.2188 32.6745 10.0833 32.9766 9.8125C33.2786 9.53646 33.5104 9.14062 33.6719 8.625C33.8385 8.10938 33.9219 7.49479 33.9219 6.78125C33.9219 6.07292 33.8385 5.46094 33.6719 4.94531C33.5104 4.42969 33.2786 4.03646 32.9766 3.76562C32.6745 3.49479 32.3229 3.35938 31.9219 3.35938ZM39.1875 6.1875H41.3594V7.65625H39.1875V14.8906H37.4531V0.765625H39.1875V6.1875ZM54.8281 8.48438H49.2188V9.89062H47.5V8.48438H41.9531V7.04688H54.8281V8.48438ZM49.2344 10.7969C49.2344 11.2344 49.4193 11.6432 49.7891 12.0234C50.1641 12.4036 50.7005 12.724 51.3984 12.9844C52.1016 13.2448 52.9271 13.4167 53.875 13.5L53.3438 14.8125C52.1719 14.7031 51.1536 14.4531 50.2891 14.0625C49.4245 13.6719 48.776 13.1745 48.3438 12.5703C47.9062 13.1693 47.2604 13.6641 46.4062 14.0547C45.5521 14.4505 44.5469 14.7031 43.3906 14.8125L42.8125 13.5C43.75 13.4167 44.5677 13.2422 45.2656 12.9766C45.9688 12.7109 46.5078 12.388 46.8828 12.0078C47.263 11.6224 47.4531 11.2188 47.4531 10.7969V10.4688H49.2344V10.7969ZM48.375 0.953125C49.4219 0.953125 50.3255 1.05729 51.0859 1.26562C51.8464 1.46875 52.4323 1.76823 52.8438 2.16406C53.2552 2.5599 53.4635 3.03646 53.4688 3.59375C53.4635 4.14583 53.2552 4.61979 52.8438 5.01562C52.4323 5.41146 51.8438 5.71354 51.0781 5.92188C50.3177 6.125 49.4167 6.22396 48.375 6.21875C47.3385 6.22396 46.4375 6.125 45.6719 5.92188C44.9062 5.71354 44.3151 5.41146 43.8984 5.01562C43.487 4.61979 43.2812 4.14583 43.2812 3.59375C43.2812 3.03646 43.487 2.5599 43.8984 2.16406C44.3151 1.76823 44.9062 1.46875 45.6719 1.26562C46.4375 1.05729 47.3385 0.953125 48.375 0.953125ZM48.375 2.26562C47.3281 2.25521 46.5182 2.36719 45.9453 2.60156C45.3724 2.83594 45.0885 3.16667 45.0938 3.59375C45.0833 4.01042 45.3646 4.33333 45.9375 4.5625C46.5156 4.79167 47.3281 4.90625 48.375 4.90625C49.4167 4.90625 50.2266 4.79167 50.8047 4.5625C51.3828 4.32812 51.6719 4.00521 51.6719 3.59375C51.6719 3.16667 51.3828 2.83594 50.8047 2.60156C50.2266 2.36719 49.4167 2.25521 48.375 2.26562Z" fill="#999999"/>
</svg>
