<svg width="68" height="36" viewBox="0 0 68 36" fill="none" xmlns="http://www.w3.org/2000/svg">
<path d="M31.9727 13.4526C31.9727 17.3075 30.8503 20.4325 26.8789 20.4325C22.9075 20.4325 21.7852 17.3075 21.7852 13.4526C21.7852 9.59767 22.9938 6.47266 26.8789 6.47266C31.1957 6.47266 31.9727 9.59767 31.9727 13.4526Z" fill="black"/>
<path d="M56.7529 13.4526C56.7529 17.3075 55.6305 20.4325 50.9253 20.4325C46.22 20.4325 45.0977 17.3075 45.0977 13.4526C45.0977 9.59767 46.2632 6.47266 50.9253 6.47266C55.3284 6.47266 56.7529 9.59767 56.7529 13.4526Z" fill="black"/>
<path d="M28.6675 13.7286C28.2742 15.6781 27.5302 17.1929 26.1699 16.9833C24.8095 16.7736 24.7032 15.1277 25.0965 13.1783C25.4898 11.2288 26.0637 9.68775 27.5941 9.92361C28.9119 10.1267 29.0608 11.7791 28.6675 13.7286Z" fill="white"/>
<path d="M52.7573 13.7286C52.364 15.6781 51.6201 17.1929 50.2597 16.9833C48.8993 16.7736 48.7931 15.1277 49.1863 13.1783C49.5796 11.2288 50.1535 9.68775 51.6839 9.92361C53.0018 10.1267 53.1506 11.7791 52.7573 13.7286Z" fill="white"/>
<rect x="4.56641" y="6.54883" width="3.9432" height="14.4422" fill="black"/>
<rect x="10.1992" y="18.0371" width="3.9432" height="11.4881" fill="black"/>
<rect x="25.0273" y="21.3184" width="3.9432" height="8.20581" fill="black"/>
<rect x="31.793" y="21.3184" width="3.44644" height="9.76412" transform="rotate(90 31.793 21.3184)" fill="black"/>
<rect x="36.5664" y="26.0801" width="3.44644" height="5.63315" transform="rotate(90 36.5664 26.0801)" fill="black"/>
<rect x="62.2734" y="26.0801" width="3.44644" height="8.26195" transform="rotate(90 62.2734 26.0801)" fill="black"/>
<rect x="56.457" y="26.332" width="3.9432" height="4.92348" transform="rotate(180 56.457 26.332)" fill="black"/>
<rect x="58.1484" y="6.54883" width="3.9432" height="16.904" fill="black"/>
<rect x="33.6641" y="6.54883" width="3.9432" height="22.9763" fill="black"/>
<rect x="20.7148" y="26.0801" width="3.44644" height="16.7117" transform="rotate(90 20.7148 26.0801)" fill="black"/>
<rect x="20.1523" y="17.873" width="3.44644" height="15.585" transform="rotate(90 20.1523 17.873)" fill="black"/>
<rect x="38.8047" y="6.54883" width="3.9432" height="22.9763" fill="black"/>
<path d="M44.8164 25.7527L56.3644 23.4551V27.2298L44.8164 29.5274V25.7527Z" fill="black"/>
</svg>
