<svg width="26" height="16" viewBox="0 0 26 16" fill="none" xmlns="http://www.w3.org/2000/svg">
<path d="M5.89844 15.2148C2.69531 15.2148 0.703125 13.0078 0.703125 9.72656C0.703125 6.44531 2.69531 4.25781 5.89844 4.25781C9.10156 4.25781 11.1133 6.44531 11.1133 9.72656C11.1133 13.0078 9.10156 15.2148 5.89844 15.2148ZM5.91797 12.9688C7.40234 12.9688 8.16406 11.582 8.16406 9.72656C8.16406 7.85156 7.40234 6.46484 5.91797 6.46484C4.41406 6.46484 3.63281 7.85156 3.63281 9.72656C3.63281 11.582 4.41406 12.9688 5.91797 12.9688ZM18.3742 4.39453V6.5625H16.2648V15H13.3742V6.5625H11.8703V4.39453H13.3742V3.59375C13.3742 1.36719 14.7219 0.195312 16.8508 0.195312C17.5148 0.195312 18.0617 0.253906 18.5695 0.371094V2.55859C18.1594 2.51953 17.8469 2.5 17.6906 2.5C16.7531 2.5 16.2648 2.87109 16.2648 3.75V4.39453H18.3742ZM25.518 4.39453V6.5625H23.4086V15H20.518V6.5625H19.0141V4.39453H20.518V3.59375C20.518 1.36719 21.8656 0.195312 23.9945 0.195312C24.6586 0.195312 25.2055 0.253906 25.7133 0.371094V2.55859C25.3031 2.51953 24.9906 2.5 24.8344 2.5C23.8969 2.5 23.4086 2.87109 23.4086 3.75V4.39453H25.518Z" fill="#99A3B4"/>
</svg>
