<svg width="23" height="12" viewBox="0 0 23 12" fill="none" xmlns="http://www.w3.org/2000/svg">
<path d="M5.89844 11.2148C2.69531 11.2148 0.703125 9.00781 0.703125 5.72656C0.703125 2.44531 2.69531 0.257812 5.89844 0.257812C9.10156 0.257812 11.1133 2.44531 11.1133 5.72656C11.1133 9.00781 9.10156 11.2148 5.89844 11.2148ZM5.91797 8.96875C7.40234 8.96875 8.16406 7.58203 8.16406 5.72656C8.16406 3.85156 7.40234 2.46484 5.91797 2.46484C4.41406 2.46484 3.63281 3.85156 3.63281 5.72656C3.63281 7.58203 4.41406 8.96875 5.91797 8.96875ZM15.6203 4.86719V11H12.7297V0.394531H15.4836V2.25H15.6008C16.0891 1.01953 17.2219 0.257812 18.7844 0.257812C20.9914 0.257812 22.4563 1.76172 22.4367 4.24219V11H19.5656V4.75C19.5656 3.44141 18.843 2.66016 17.6516 2.66016C16.4406 2.66016 15.6203 3.46094 15.6203 4.86719Z" fill="#FF4103"/>
</svg>
