<svg width="24" height="24" viewBox="0 0 24 24" fill="none" xmlns="http://www.w3.org/2000/svg">
<g clip-path="url(#clip0_236_7108)">
<mask id="mask0_236_7108" style="mask-type:alpha" maskUnits="userSpaceOnUse" x="0" y="0" width="24" height="24">
<rect width="24" height="24" fill="#D9D9D9"/>
</mask>
<g mask="url(#mask0_236_7108)">
<path d="M4 21C3.45 21 2.97917 20.8042 2.5875 20.4125C2.19583 20.0208 2 19.55 2 19V17C2 16.7167 2.09583 16.4792 2.2875 16.2875C2.47917 16.0958 2.71667 16 3 16H21C21.2833 16 21.5208 16.0958 21.7125 16.2875C21.9042 16.4792 22 16.7167 22 17V19C22 19.55 21.8042 20.0208 21.4125 20.4125C21.0208 20.8042 20.55 21 20 21H4ZM4 18V19H20V18H4ZM12 13.5C11.4 13.5 10.925 13.6667 10.575 14C10.225 14.3333 9.58333 14.5 8.65 14.5C7.71667 14.5 7.08333 14.3333 6.75 14C6.41667 13.6667 5.95 13.5 5.35 13.5C4.88333 13.5 4.50417 13.6125 4.2125 13.8375C3.92083 14.0625 3.525 14.2417 3.025 14.375C2.75833 14.4583 2.52083 14.4042 2.3125 14.2125C2.10417 14.0208 2 13.7833 2 13.5C2 13.2167 2.09583 12.9708 2.2875 12.7625C2.47917 12.5542 2.70833 12.3833 2.975 12.25C3.25833 12.1 3.56667 11.9375 3.9 11.7625C4.23333 11.5875 4.71667 11.5 5.35 11.5C6.28333 11.5 6.91667 11.6667 7.25 12C7.58333 12.3333 8.05 12.5 8.65 12.5C9.25 12.5 9.725 12.3333 10.075 12C10.425 11.6667 11.0667 11.5 12 11.5C12.9333 11.5 13.575 11.6667 13.925 12C14.275 12.3333 14.75 12.5 15.35 12.5C15.95 12.5 16.4167 12.3333 16.75 12C17.0833 11.6667 17.7167 11.5 18.65 11.5C19.25 11.5 19.725 11.5833 20.075 11.75C20.425 11.9167 20.7417 12.075 21.025 12.225C21.2917 12.3583 21.5208 12.5333 21.7125 12.75C21.9042 12.9667 22 13.2167 22 13.5C22 13.7833 21.9 14.0208 21.7 14.2125C21.5 14.4042 21.2667 14.4583 21 14.375C20.5167 14.2417 20.1375 14.0625 19.8625 13.8375C19.5875 13.6125 19.2167 13.5 18.75 13.5C18.15 13.5 17.6667 13.6667 17.3 14C16.9333 14.3333 16.2833 14.5 15.35 14.5C14.4167 14.5 13.775 14.3333 13.425 14C13.075 13.6667 12.6 13.5 12 13.5ZM12 3C13.2333 3 14.4458 3.1125 15.6375 3.3375C16.8292 3.5625 17.8958 3.9125 18.8375 4.3875C19.7792 4.8625 20.5417 5.47917 21.125 6.2375C21.7083 6.99583 22 7.91667 22 9C22 9.28333 21.9042 9.52083 21.7125 9.7125C21.5208 9.90417 21.2833 10 21 10H3C2.71667 10 2.47917 9.90417 2.2875 9.7125C2.09583 9.52083 2 9.28333 2 9C2 7.91667 2.29167 6.99583 2.875 6.2375C3.45833 5.47917 4.22083 4.8625 5.1625 4.3875C6.10417 3.9125 7.17083 3.5625 8.3625 3.3375C9.55417 3.1125 10.7667 3 12 3ZM12 5C9.93333 5 8.20417 5.25833 6.8125 5.775C5.42083 6.29167 4.53333 7.03333 4.15 8H19.85C19.4667 7.03333 18.5792 6.29167 17.1875 5.775C15.7958 5.25833 14.0667 5 12 5Z" fill="#AAAAAA"/>
</g>
</g>
<defs>
<clipPath id="clip0_236_7108">
<rect width="24" height="24" fill="white"/>
</clipPath>
</defs>
</svg>
