<svg width="16" height="16" viewBox="0 0 16 16" fill="none" xmlns="http://www.w3.org/2000/svg">
<path d="M8.03906 15.5C5.94523 15.5 4.17181 14.7736 2.71881 13.3207C1.26565 11.8679 0.539062 10.0948 0.539062 8.0015C0.539062 5.90817 1.26565 4.13458 2.71881 2.68075C4.17181 1.22692 5.94523 0.5 8.03906 0.5C9.20823 0.5 10.3146 0.759917 11.3583 1.27975C12.4018 1.79975 13.2697 2.53342 13.9621 3.48075V0.5H15.4621V6.61525H9.34681V5.1155H13.2968C12.7698 4.15 12.039 3.38942 11.1043 2.83375C10.1698 2.27792 9.14806 2 8.03906 2C6.3724 2 4.95573 2.58333 3.78906 3.75C2.6224 4.91667 2.03906 6.33333 2.03906 8C2.03906 9.66667 2.6224 11.0833 3.78906 12.25C4.95573 13.4167 6.3724 14 8.03906 14C9.3224 14 10.4807 13.6333 11.5141 12.9C12.5474 12.1667 13.2724 11.2 13.6891 10H15.2698C14.816 11.632 13.9221 12.9567 12.5881 13.974C11.2541 14.9913 9.73773 15.5 8.03906 15.5Z" fill="#888888"/>
</svg>
