<svg width="499" height="395" viewBox="0 0 499 395" fill="none" xmlns="http://www.w3.org/2000/svg">
<path d="M233.913 45.5343L226.271 142.047C226.18 143.199 226.941 144.246 228.065 144.514L320.406 166.529C322.78 167.095 322.819 170.458 320.46 171.079L224.175 196.432C222.927 196.761 222.179 198.037 222.502 199.287L244.081 282.864C244.594 284.851 242.488 286.492 240.686 285.51L161.295 242.212C160.748 241.913 160.103 241.845 159.505 242.023L90.3983 262.538C88.1873 263.194 86.456 260.6 87.9105 258.81L130.825 205.998C131.791 204.809 131.376 203.029 129.985 202.388L60.2538 170.299C58.4391 169.464 58.4323 166.888 60.2426 166.043L118.065 139.065C118.913 138.67 119.445 137.808 119.418 136.873L117.555 71.5334C117.493 69.3391 120.209 68.269 121.66 69.9165L164.679 118.771C165.634 119.856 167.334 119.827 168.252 118.71L229.763 43.86C231.22 42.0866 234.094 43.246 233.913 45.5343Z" fill="#F6F6F6"/>
<rect x="276.742" y="236.781" width="55.9844" height="9.50678" rx="4.75339" transform="rotate(102.387 276.742 236.781)" fill="#A12300"/>
<path d="M270.441 377.072L325.429 281.001L335.096 391.272L270.441 377.072Z" fill="url(#paint0_linear_4905_22439)"/>
<path d="M202.521 254.004L325.433 281L271.618 377.329L149.047 350.408L202.521 254.004Z" fill="#FF4D12"/>
<path d="M264.423 267.6L210.949 364.004" stroke="#DE3000" stroke-width="1.40841"/>
<path d="M234.158 260.953L180.684 357.357" stroke="#DE3000" stroke-width="1.40841"/>
<path d="M294.689 274.248L241.215 370.652" stroke="#DE3000" stroke-width="1.40841"/>
<rect x="227.547" y="219.486" width="94.0115" height="30.633" rx="15.3165" transform="rotate(12.3874 227.547 219.486)" fill="#FF4D12"/>
<path d="M241.247 231.492L247.649 232.898C248.841 233.16 249.729 233.667 250.311 234.42C250.908 235.164 251.085 236.085 250.844 237.185C250.736 237.676 250.523 238.113 250.206 238.497C249.901 238.883 249.514 239.166 249.046 239.345C249.562 239.728 249.903 240.158 250.067 240.636C250.244 241.116 250.258 241.695 250.109 242.373C249.942 243.133 249.614 243.76 249.126 244.253C248.64 244.735 248.054 245.06 247.367 245.228C246.695 245.386 245.985 245.384 245.237 245.219L238.554 243.751L241.247 231.492ZM245.658 237.443C246.055 237.53 246.373 237.508 246.61 237.376C246.859 237.247 247.026 236.989 247.111 236.604C247.198 236.206 247.159 235.909 246.993 235.714C246.831 235.506 246.539 235.356 246.118 235.264L244.311 234.867L243.834 237.042L245.658 237.443ZM244.786 242.417C245.265 242.523 245.635 242.512 245.896 242.386C246.156 242.259 246.334 241.979 246.429 241.547C246.522 241.126 246.473 240.79 246.283 240.54C246.104 240.292 245.769 240.115 245.278 240.007L243.279 239.568L242.751 241.971L244.786 242.417ZM256.114 247.884C254.875 247.612 253.806 247.095 252.906 246.334C252.019 245.575 251.388 244.652 251.014 243.565C250.654 242.468 250.612 241.295 250.887 240.044C251.161 238.793 251.692 237.745 252.478 236.9C253.276 236.058 254.237 235.478 255.36 235.161C256.496 234.847 257.683 234.826 258.923 235.098C260.162 235.37 261.22 235.884 262.095 236.641C262.983 237.399 263.606 238.327 263.966 239.423C264.338 240.522 264.386 241.697 264.111 242.948C263.836 244.199 263.3 245.246 262.502 246.088C261.719 246.921 260.765 247.496 259.641 247.813C258.529 248.133 257.354 248.156 256.114 247.884ZM256.862 244.481C257.399 244.6 257.91 244.589 258.394 244.45C258.893 244.302 259.319 244.035 259.674 243.647C260.031 243.247 260.277 242.743 260.41 242.135C260.608 241.235 260.491 240.456 260.06 239.797C259.628 239.138 258.998 238.718 258.167 238.536C257.326 238.351 256.565 238.466 255.886 238.88C255.218 239.297 254.785 239.956 254.587 240.856C254.454 241.464 254.466 242.025 254.623 242.537C254.782 243.038 255.057 243.46 255.448 243.803C255.841 244.135 256.312 244.361 256.862 244.481ZM269.954 250.924C268.714 250.651 267.645 250.135 266.746 249.373C265.858 248.615 265.228 247.692 264.854 246.604C264.494 245.508 264.451 244.334 264.726 243.083C265.001 241.832 265.531 240.784 266.318 239.94C267.115 239.097 268.076 238.518 269.2 238.201C270.335 237.886 271.523 237.865 272.762 238.138C274.001 238.41 275.059 238.924 275.935 239.68C276.822 240.439 277.446 241.366 277.806 242.463C278.177 243.562 278.226 244.737 277.951 245.988C277.676 247.239 277.14 248.286 276.342 249.128C275.558 249.961 274.605 250.536 273.481 250.853C272.369 251.172 271.193 251.196 269.954 250.924ZM270.701 247.521C271.239 247.639 271.75 247.629 272.234 247.49C272.732 247.342 273.159 247.074 273.514 246.686C273.871 246.287 274.116 245.783 274.25 245.175C274.448 244.275 274.331 243.495 273.899 242.837C273.468 242.178 272.837 241.758 272.007 241.575C271.165 241.39 270.404 241.505 269.725 241.92C269.057 242.337 268.625 242.996 268.427 243.896C268.293 244.504 268.305 245.064 268.462 245.577C268.622 246.078 268.897 246.5 269.287 246.843C269.68 247.174 270.152 247.4 270.701 247.521ZM281.747 243.586L278.45 242.862L279.12 239.81L289.345 242.056L288.675 245.107L285.378 244.383L283.355 253.591L279.725 252.794L281.747 243.586ZM290.131 242.228L293.761 243.026L292.771 247.533L296.858 248.431L297.848 243.923L301.478 244.72L298.786 256.98L295.155 256.183L296.187 251.482L292.101 250.585L291.068 255.285L287.438 254.488L290.131 242.228Z" fill="#140707"/>
<rect x="382.109" y="138.143" width="7.74983" height="18.4855" rx="2.0822" transform="rotate(-8.63311 382.109 138.143)" fill="black"/>
<path d="M365.482 163.412C370.77 156.11 378.742 151.207 387.644 149.782C396.547 148.357 405.652 150.528 412.954 155.816C420.257 161.104 425.16 169.076 426.585 177.978C428.009 186.881 425.839 195.986 420.551 203.288C415.263 210.591 407.291 215.494 398.388 216.919C389.486 218.343 380.381 216.173 373.078 210.885C365.776 205.597 360.873 197.625 359.448 188.722C358.023 179.82 360.194 170.715 365.482 163.412Z" fill="white" stroke="black" stroke-width="7.03359"/>
<path d="M393.135 184.792L389.643 169.598" stroke="black" stroke-width="6.7196" stroke-linecap="round" stroke-linejoin="round"/>
<rect x="371.339" y="137.697" width="29.7106" height="5.76538" transform="rotate(-8.63311 371.339 137.697)" fill="black" stroke="black" stroke-width="1.52231"/>
<path d="M392.876 185.081L408.572 169.105" stroke="#FF4103" stroke-width="6.7196" stroke-linecap="round" stroke-linejoin="round"/>
<path d="M481.704 317.982L439.882 328.02C439.187 328.187 438.716 328.836 438.774 329.549L442.14 371.255C442.261 372.761 440.289 373.428 439.471 372.158L415.694 335.228C415.262 334.556 414.367 334.36 413.693 334.789L381.257 355.454C380.186 356.136 378.817 355.211 379.05 353.962L386.501 314.086C386.572 313.707 386.488 313.314 386.269 312.996L368.24 286.819C367.43 285.644 368.625 284.128 369.958 284.641L397.58 295.285C398.465 295.626 399.434 295.041 399.544 294.099L403.505 260.321C403.649 259.093 405.164 258.596 406.008 259.5L425.313 280.177C425.709 280.6 426.318 280.748 426.863 280.553L453.964 270.873C455.244 270.416 456.394 271.81 455.702 272.98L441.21 297.473C440.754 298.243 441.097 299.238 441.93 299.565L481.895 315.218C483.218 315.737 483.086 317.651 481.704 317.982Z" fill="#F6F6F6"/>
<path d="M161.87 154.093C161.204 153.441 161.553 152.308 162.471 152.144L291.688 129.129C292.606 128.966 293.325 129.909 292.925 130.751L278.706 160.643C278.547 160.978 278.236 161.215 277.872 161.28L186.538 177.547C186.174 177.612 185.8 177.497 185.535 177.238L161.87 154.093Z" fill="#140707"/>
<path d="M279.495 131.301C277.942 122.579 272.987 114.831 265.721 109.762C258.455 104.693 249.473 102.718 240.751 104.271C232.028 105.825 224.28 110.78 219.211 118.046C214.142 125.312 212.167 134.294 213.721 143.016L246.608 137.159L279.495 131.301Z" fill="#FFA006"/>
<path d="M242.495 137.891C240.942 129.169 235.987 121.421 228.721 116.352C221.455 111.283 212.473 109.308 203.751 110.861C195.028 112.415 187.28 117.369 182.211 124.636C177.142 131.902 175.167 140.884 176.721 149.606L209.608 143.748L242.495 137.891Z" fill="url(#paint1_linear_4905_22439)"/>
<path d="M267.387 95.0405C269.656 92.4297 273.612 92.153 276.223 94.422L276.322 94.5076C277.419 95.4611 278.102 96.7128 278.359 98.0371C280.134 97.7458 282.021 98.2176 283.485 99.4898L283.583 99.5754C286.194 101.844 286.472 105.8 284.203 108.411C282.156 110.767 278.736 111.223 276.169 109.623L268.858 117.087C266.87 119.116 263.615 119.148 261.586 117.161C259.558 115.174 259.525 111.919 261.512 109.891L267.692 103.581C265.378 101.277 265.213 97.5421 267.387 95.0405Z" fill="#EDEDED"/>
<defs>
<linearGradient id="paint0_linear_4905_22439" x1="340.3" y1="364.297" x2="307.857" y2="341.309" gradientUnits="userSpaceOnUse">
<stop stop-color="#641A03"/>
<stop offset="1" stop-color="#140707"/>
</linearGradient>
<linearGradient id="paint1_linear_4905_22439" x1="214.394" y1="111.086" x2="183.549" y2="146.269" gradientUnits="userSpaceOnUse">
<stop stop-color="#FFB43C"/>
<stop offset="1" stop-color="#FFA006"/>
</linearGradient>
</defs>
</svg>
