<svg width="303" height="205" viewBox="0 0 303 205" fill="none" xmlns="http://www.w3.org/2000/svg">
<rect width="85.7879" height="94.0367" transform="matrix(1 0 -0.173648 0.984808 202.5 107.477)" fill="#FF4D12"/>
<rect x="2.04493" y="2.43705" width="28.046" height="28.046" rx="4.12442" transform="matrix(1 0 -0.173648 0.984808 245.747 117.262)" stroke="black" stroke-width="4.9493"/>
<rect width="13.1981" height="13.1981" rx="1.64977" transform="matrix(1 0 -0.173648 0.984808 253.504 126.975)" fill="black"/>
<rect width="9.8986" height="9.8986" rx="1.23733" transform="matrix(1 0 -0.173648 0.984808 230.188 118.85)" fill="black"/>
<rect width="9.8986" height="9.8986" rx="1.23733" transform="matrix(1 0 -0.173648 0.984808 210.391 118.85)" fill="black"/>
<rect width="9.8986" height="19.7972" rx="1.23733" transform="matrix(1 0 -0.173648 0.984808 215.129 148.098)" fill="black"/>
<rect width="9.8986" height="9.8986" rx="1.23733" transform="matrix(1 0 -0.173648 0.984808 218.57 128.602)" fill="black"/>
<rect width="9.8986" height="9.8986" rx="1.23733" transform="matrix(1 0 -0.173648 0.984808 206.965 138.35)" fill="black"/>
<rect width="9.8986" height="9.8986" rx="1.23733" transform="matrix(1 0 -0.173648 0.984808 226.762 138.35)" fill="black"/>
<rect width="9.8986" height="9.8986" rx="1.23733" transform="matrix(1 0 -0.173648 0.984808 201.508 169.215)" fill="black"/>
<rect width="9.8986" height="9.8986" rx="1.23733" transform="matrix(1 0 -0.173648 0.984808 221.309 169.215)" fill="black"/>
<rect width="9.8986" height="9.8986" rx="1.23733" transform="matrix(1 0 -0.173648 0.984808 262.91 157.842)" fill="black"/>
<rect width="19.7972" height="9.8986" rx="1.23733" transform="matrix(1 0 -0.173648 0.984808 229.199 180.59)" fill="black"/>
<rect width="19.7972" height="9.8986" rx="1.23733" transform="matrix(1 0 -0.173648 0.984808 233.219 157.842)" fill="black"/>
<path d="M298.19 200.159L288.188 107.477L268.852 200.159H298.19Z" fill="url(#paint0_linear_4905_22380)"/>
<path d="M2.77107 164.159C1.61117 162.535 2.77195 160.279 4.76753 160.279H176.437C178.433 160.279 179.594 162.535 178.434 164.159L154.061 198.281C153.6 198.925 152.857 199.308 152.064 199.308H29.1402C28.3479 199.308 27.6043 198.925 27.1438 198.281L2.77107 164.159Z" fill="#140707"/>
<path d="M2.77107 164.159C1.61117 162.535 2.77195 160.279 4.76753 160.279H176.437C178.433 160.279 179.594 162.535 178.434 164.159L154.061 198.281C153.6 198.925 152.857 199.308 152.064 199.308H29.1402C28.3479 199.308 27.6043 198.925 27.1438 198.281L2.77107 164.159Z" fill="url(#paint1_linear_4905_22380)"/>
<path d="M161.689 160.278C161.689 148.448 156.99 137.103 148.625 128.738C140.26 120.373 128.914 115.674 117.085 115.674C105.255 115.674 93.9097 120.373 85.5448 128.738C77.1798 137.103 72.4805 148.448 72.4805 160.278L117.085 160.278H161.689Z" fill="#FFA006"/>
<path d="M111.513 160.278C111.513 148.448 106.814 137.103 98.4489 128.738C90.084 120.373 78.7387 115.674 66.9089 115.674C55.0791 115.674 43.7339 120.373 35.369 128.738C27.0041 137.103 22.3047 148.448 22.3047 160.278L66.9089 160.278H111.513Z" fill="url(#paint2_linear_4905_22380)"/>
<path d="M154.263 109.778C157.857 106.877 163.122 107.438 166.023 111.032L166.133 111.168C167.352 112.678 167.956 114.483 167.984 116.284C170.385 116.318 172.753 117.38 174.379 119.394L174.488 119.529C177.389 123.123 176.827 128.389 173.233 131.29C169.992 133.906 165.392 133.705 162.393 131.005L151.039 139.101C147.952 141.302 143.664 140.583 141.463 137.496C139.262 134.409 139.98 130.121 143.067 127.92L152.663 121.077C150.161 117.506 150.819 112.558 154.263 109.778Z" fill="#F0F0F0"/>
<path d="M164.383 67.1901C164.383 56.3501 173.17 47.5625 184.01 47.5625H283.375C294.215 47.5625 303.003 56.3501 303.003 67.1901C303.003 78.0302 294.215 86.8178 283.375 86.8178H274.732H184.01C173.17 86.8178 164.383 78.0302 164.383 67.1901Z" fill="#EEEEEE"/>
<path d="M137.387 20.5769C137.387 9.73681 146.174 0.949219 157.014 0.949219H239.205C250.045 0.949219 258.833 9.73681 258.833 20.5769C258.833 31.4169 250.045 40.2045 239.205 40.2045H234.064H157.014C146.174 40.2045 137.387 31.4169 137.387 20.5769Z" fill="#EEEEEE"/>
<path d="M269.433 83.0801H257.444C255.491 83.0801 254.321 85.2516 255.395 86.8829L261.535 96.2075C262.518 97.6992 264.714 97.6748 265.663 96.1617L271.511 86.8371C272.536 85.2031 271.361 83.0801 269.433 83.0801Z" fill="#EEEEEE"/>
<path d="M158.831 17.5588H155.141V14.1436H166.584V17.5588H162.894V27.8633H158.831V17.5588ZM170.112 14.1436H174.018L179.494 27.8633H175.333L174.312 25.2528H169.818L168.778 27.8633H164.616L170.112 14.1436ZM173.37 22.1713L172.055 18.3242L170.74 22.1713H173.37ZM180.669 14.1436H187.833C189.168 14.1436 190.234 14.4772 191.032 15.1446C191.844 15.7988 192.249 16.741 192.249 17.971C192.249 18.5205 192.125 19.0374 191.876 19.5215C191.641 20.0057 191.294 20.3982 190.836 20.6992C191.477 20.9871 191.942 21.3665 192.23 21.8376C192.531 22.3087 192.681 22.9237 192.681 23.6826C192.681 24.5331 192.478 25.279 192.073 25.9201C191.667 26.5482 191.117 27.0324 190.424 27.3726C189.743 27.6997 188.985 27.8633 188.147 27.8633H180.669V14.1436ZM186.773 19.4627C187.218 19.4627 187.552 19.3645 187.774 19.1682C188.01 18.972 188.127 18.6579 188.127 18.2261C188.127 17.7812 188.016 17.4737 187.794 17.3036C187.571 17.1204 187.225 17.0288 186.754 17.0288H184.732V19.4627H186.773ZM187.009 24.978C187.545 24.978 187.938 24.8799 188.186 24.6836C188.435 24.4873 188.559 24.1471 188.559 23.663C188.559 23.1919 188.428 22.8451 188.167 22.6227C187.918 22.4003 187.519 22.289 186.969 22.289H184.732V24.978H187.009ZM193.856 14.1436H197.919V24.4481H203.454V27.8633H193.856V14.1436ZM203.958 14.1436H213.909V17.5588H208.021V19.443H212.26V22.5638H208.021V24.4481H213.909V27.8633H203.958V14.1436Z" fill="#140707"/>
<path d="M187.578 66.1435L184.85 68.1062V64.2985L188.265 61.7861H191.641V75.5059H187.578V66.1435ZM206.648 75.8003C205.13 75.8003 203.802 75.5124 202.663 74.9367C201.525 74.3609 200.648 73.5366 200.033 72.4636C199.418 71.3906 199.111 70.1213 199.111 68.6558C199.111 67.1903 199.418 65.921 200.033 64.8481C200.648 63.762 201.525 62.9311 202.663 62.3553C203.802 61.7796 205.13 61.4917 206.648 61.4917C207.629 61.4917 208.506 61.5833 209.278 61.7665C210.05 61.9497 210.769 62.2441 211.437 62.6498V66.3986C210.861 65.9537 210.213 65.6332 209.494 65.4369C208.774 65.2406 207.943 65.1425 207.001 65.1425C205.771 65.1425 204.835 65.4369 204.194 66.0257C203.566 66.6145 203.252 67.4912 203.252 68.6558C203.252 69.8204 203.579 70.7036 204.233 71.3055C204.888 71.8944 205.81 72.1888 207.001 72.1888C207.93 72.1888 208.761 72.0841 209.494 71.8747C210.239 71.6654 210.939 71.3317 211.594 70.8737V74.603C210.324 75.4012 208.676 75.8003 206.648 75.8003ZM212.767 61.7861H216.83V66.8304H221.403V61.7861H225.466V75.5059H221.403V70.2457H216.83V75.5059H212.767V61.7861ZM227.028 61.7861H231.091V75.5059H227.028V61.7861ZM239.808 75.8003C238.29 75.8003 236.962 75.5124 235.823 74.9367C234.685 74.3609 233.808 73.5366 233.193 72.4636C232.578 71.3906 232.27 70.1213 232.27 68.6558C232.27 67.1903 232.578 65.921 233.193 64.8481C233.808 63.762 234.685 62.9311 235.823 62.3553C236.962 61.7796 238.29 61.4917 239.808 61.4917C240.789 61.4917 241.666 61.5833 242.438 61.7665C243.21 61.9497 243.929 62.2441 244.597 62.6498V66.3986C244.021 65.9537 243.373 65.6332 242.654 65.4369C241.934 65.2406 241.103 65.1425 240.161 65.1425C238.931 65.1425 237.995 65.4369 237.354 66.0257C236.726 66.6145 236.412 67.4912 236.412 68.6558C236.412 69.8204 236.739 70.7036 237.393 71.3055C238.048 71.8944 238.97 72.1888 240.161 72.1888C241.09 72.1888 241.921 72.0841 242.654 71.8747C243.399 71.6654 244.099 71.3317 244.754 70.8737V74.603C243.484 75.4012 241.836 75.8003 239.808 75.8003ZM245.927 61.7861H249.99V67.1052L254.21 61.7861H258.999L253.719 68.4399L259.372 75.5059H254.583L249.99 69.7746V75.5059H245.927V61.7861ZM260.552 61.7861H270.503V65.2013H264.615V67.0856H268.854V70.2064H264.615V72.0906H270.503V75.5059H260.552V61.7861ZM271.477 61.7861H275.423L279.701 68.9699V61.7861H283.764V75.5059H279.839L275.54 68.3221V75.5059H271.477V61.7861Z" fill="#140707"/>
<rect x="222.039" y="8.30664" width="24.5346" height="24.5346" rx="12.2673" fill="white"/>
<path d="M233.619 26.9381C232.784 26.9381 231.987 26.8707 231.226 26.7357C230.466 26.6008 229.822 26.3861 229.294 26.0917V23.1843C230.533 23.7609 231.791 24.0492 233.067 24.0492C234.612 24.0492 235.385 23.6321 235.385 22.7979C235.385 22.3686 235.201 22.0619 234.833 21.8779C234.477 21.6939 233.895 21.6019 233.085 21.6019H231.208V18.7681H232.993C234.342 18.7681 235.017 18.3694 235.017 17.5721C235.017 17.1918 234.858 16.9035 234.539 16.7072C234.22 16.5109 233.772 16.4128 233.195 16.4128C231.834 16.4128 230.607 16.7563 229.515 17.4433V14.4623C230.079 14.1679 230.73 13.9409 231.466 13.7815C232.202 13.6097 232.956 13.5239 233.729 13.5239C235.483 13.5239 236.783 13.8673 237.63 14.5543C238.489 15.2413 238.918 16.1981 238.918 17.4249C238.918 17.9401 238.801 18.4369 238.568 18.9153C238.348 19.3937 238.016 19.817 237.575 20.185C238.176 20.5039 238.605 20.8965 238.863 21.3626C239.133 21.8288 239.268 22.3686 239.268 22.9819C239.268 25.6194 237.385 26.9381 233.619 26.9381Z" fill="#140707"/>
<defs>
<linearGradient id="paint0_linear_4905_22380" x1="268.852" y1="153.818" x2="323.528" y2="169.487" gradientUnits="userSpaceOnUse">
<stop/>
<stop offset="1" stop-color="#464646"/>
</linearGradient>
<linearGradient id="paint1_linear_4905_22380" x1="-1.98266e-08" y1="179.794" x2="174.195" y2="214.646" gradientUnits="userSpaceOnUse">
<stop stop-color="#140707"/>
<stop offset="1" stop-color="#474747"/>
</linearGradient>
<linearGradient id="paint2_linear_4905_22380" x1="80.8477" y1="118.462" x2="32.0619" y2="157.49" gradientUnits="userSpaceOnUse">
<stop stop-color="#FFB43C"/>
<stop offset="1" stop-color="#FFA006"/>
</linearGradient>
</defs>
</svg>
