<svg width="325" height="210" viewBox="0 0 325 210" fill="none" xmlns="http://www.w3.org/2000/svg">
<path d="M233.923 0L301.442 105.779L284.337 205.256H138.047L29.1172 171.497L29.1172 0H233.923Z" fill="url(#paint0_linear_4905_22353)"/>
<path d="M252.814 111.077C252.725 105.918 256.835 101.736 261.994 101.736H298.032C303.193 101.736 307.449 105.92 307.538 111.079L309.045 198.166C309.135 203.325 305.025 207.507 299.865 207.507H263.827C258.667 207.507 254.411 203.323 254.321 198.163L252.814 111.077Z" fill="black"/>
<rect width="54.7241" height="106.779" rx="9.34314" transform="matrix(1 0 -0.139173 0.990268 252.836 101.736)" fill="black"/>
<path d="M159.584 103.066H295.318C299.729 103.066 302.686 106.585 301.925 110.929L286.607 198.35C285.845 202.701 281.643 206.231 277.225 206.231H141.49C137.079 206.231 134.123 202.711 134.884 198.368L150.201 110.946C150.964 106.595 155.166 103.066 159.584 103.066Z" fill="#F3FAFF" stroke="black" stroke-width="2.70074"/>
<path d="M199.941 114.719C200.319 112.765 202.24 111.18 204.23 111.18H240.094C242.081 111.18 243.386 112.76 243.009 114.71L239.064 135.131C238.687 137.084 236.766 138.67 234.775 138.67H198.911C196.924 138.67 195.62 137.089 195.996 135.139L199.941 114.719Z" fill="white"/>
<path d="M193.66 146.228C194.038 144.275 195.959 142.689 197.949 142.689H234.579C236.566 142.689 237.871 144.269 237.494 146.22L233.549 166.64C233.172 168.594 231.251 170.179 229.26 170.179H192.63C190.643 170.179 189.339 168.599 189.716 166.649L193.66 146.228Z" fill="white"/>
<path d="M151.49 111.501C152.19 107.591 155.969 104.428 159.939 104.428H194.999L177.023 204.805H142.003C138.018 204.805 135.352 201.618 136.055 197.693L151.49 111.501Z" fill="white"/>
<path d="M247.719 114.719C248.096 112.765 250.017 111.18 252.008 111.18H289.773C291.76 111.18 293.064 112.76 292.688 114.71L288.744 135.13C288.366 137.084 286.445 138.67 284.455 138.67H246.69C244.703 138.67 243.398 137.09 243.775 135.139L247.719 114.719Z" fill="white"/>
<path opacity="0.3" d="M158.002 112.991C158.132 111.992 159.065 111.18 160.081 111.18H184.222C185.229 111.18 185.939 111.979 185.81 112.97C185.679 113.968 184.746 114.781 183.73 114.781H159.59C158.582 114.781 157.873 113.981 158.002 112.991Z" fill="#DBDBDB"/>
<path opacity="0.3" d="M154.808 123.791C154.94 122.794 155.872 121.982 156.887 121.982H175.008C176.017 121.982 176.726 122.784 176.596 123.775C176.464 124.772 175.532 125.583 174.517 125.583H156.396C155.387 125.583 154.678 124.782 154.808 123.791Z" fill="#DBDBDB"/>
<path opacity="0.3" d="M153.91 131.894C154.041 130.897 154.974 130.086 155.989 130.086H173.311C174.32 130.086 175.029 130.887 174.898 131.879C174.767 132.876 173.834 133.687 172.819 133.687H155.497C154.488 133.687 153.779 132.886 153.91 131.894Z" fill="#DBDBDB"/>
<path opacity="0.3" d="M152.109 139.996C152.24 138.998 153.173 138.188 154.188 138.188H170.637C171.646 138.188 172.355 138.989 172.224 139.98C172.092 140.978 171.16 141.788 170.145 141.788H153.696C152.687 141.788 151.978 140.987 152.109 139.996Z" fill="#DBDBDB"/>
<path opacity="0.3" d="M141.306 196.709C141.439 195.712 142.371 194.902 143.385 194.902H155.02C156.03 194.902 156.739 195.705 156.607 196.697C156.474 197.694 155.543 198.503 154.529 198.503H142.893C141.884 198.503 141.174 197.701 141.306 196.709Z" fill="#DBDBDB"/>
<path d="M241.418 146.229C241.795 144.275 243.716 142.689 245.707 142.689H283.073C285.06 142.689 286.364 144.269 285.988 146.22L282.044 166.64C281.666 168.594 279.745 170.179 277.755 170.179H240.389C238.402 170.179 237.097 168.599 237.474 166.649L241.418 146.229Z" fill="white"/>
<path d="M233.923 0L301.442 105.779L284.337 205.256H138.047L29.1172 171.497L29.1172 0H233.923Z" fill="url(#paint1_linear_4905_22353)"/>
<path d="M51.8041 112.664C48.9222 105.383 52.4885 97.1442 59.7697 94.2623L110.901 74.0243C118.182 71.1424 126.421 74.7087 129.303 81.9899C132.185 89.2711 128.619 97.5099 121.337 100.392L118.716 101.43L70.206 120.63C62.9249 123.512 54.686 119.945 51.8041 112.664Z" fill="#E6F3FF"/>
<path d="M62.3234 104.133L65.0641 103.048L68.1617 107.244L67.4974 102.085L69.4185 101.325L72.3675 105.594L71.7366 100.407L74.4901 99.3174L75.6513 109.212L73.1667 110.196L70.0694 105.926L70.7334 111.159L68.2488 112.142L62.3234 104.133ZM77.2406 98.2287L79.7892 97.22L86.9057 104.758L84.1906 105.833L82.8504 104.393L79.9176 105.554L79.913 107.526L77.1979 108.6L77.2406 98.2287ZM81.4399 102.625L79.5882 100.455L79.7237 103.305L81.4399 102.625ZM84.1289 95.5023L86.78 94.453L90.3233 103.405L87.6722 104.454L84.1289 95.5023ZM90.6475 95.4998L88.2397 96.4528L87.3577 94.2244L94.8242 91.2691L95.7063 93.4975L93.2985 94.4505L95.9598 101.174L93.3087 102.224L90.6475 95.4998ZM95.3977 91.0421L98.0487 89.9928L101.592 98.945L98.9409 99.9943L95.3977 91.0421ZM99.0747 89.5867L101.649 88.5679L106.296 92.1502L104.441 87.4628L107.092 86.4135L110.635 95.3657L108.074 96.3795L103.414 92.8022L105.269 97.4896L102.618 98.5389L99.0747 89.5867ZM116.398 93.3068C115.408 93.6988 114.467 93.854 113.575 93.7723C112.684 93.6907 111.899 93.3792 111.221 92.8379C110.542 92.2966 110.014 91.5478 109.635 90.5916C109.257 89.6353 109.13 88.7277 109.254 87.8687C109.375 87.0012 109.732 86.2327 110.326 85.563C110.92 84.8933 111.713 84.3625 112.703 83.9704C114.035 83.4433 115.175 83.2786 116.122 83.4764L117.09 85.9226C116.603 85.7895 116.099 85.7519 115.579 85.8097C115.059 85.8674 114.491 86.018 113.876 86.2613C113.074 86.579 112.543 87.0213 112.283 87.5881C112.032 88.1516 112.05 88.7962 112.338 89.522C112.638 90.2819 113.063 90.7805 113.611 91.0178C114.164 91.2431 114.817 91.2071 115.568 90.9098C115.935 90.7644 116.214 90.5949 116.404 90.4012L115.953 89.2614L114.723 89.748L114.059 88.0703L117.709 86.6256L119.483 91.1081C118.801 92.0298 117.773 92.7627 116.398 93.3068Z" fill="#438CD1"/>
<path d="M129.197 36.4449C131.709 29.0281 139.759 25.0524 147.175 27.565L187.596 41.2581C195.013 43.7706 198.989 51.8199 196.476 59.2367C193.964 66.6534 185.914 70.6291 178.498 68.1166L178.205 68.0176L138.077 54.4234C130.66 51.9109 126.684 43.8616 129.197 36.4449Z" fill="#FFF0EB"/>
<path d="M144.442 46.6872C143.52 46.3749 142.749 45.8905 142.128 45.2341C141.515 44.5807 141.113 43.8237 140.919 42.9633C140.738 42.097 140.804 41.1986 141.12 40.2681C141.435 39.3375 141.928 38.5834 142.599 38.006C143.278 37.4314 144.059 37.0708 144.943 36.9241C145.835 36.7804 146.742 36.8647 147.664 37.177C148.586 37.4893 149.349 37.9706 149.952 38.6211C150.565 39.2746 150.962 40.0344 151.143 40.9006C151.334 41.7698 151.271 42.6697 150.956 43.6003C150.641 44.5308 150.143 45.2834 149.464 45.8579C148.796 46.4267 148.021 46.7845 147.137 46.9312C146.262 47.0808 145.364 46.9995 144.442 46.6872ZM145.3 44.1563C145.7 44.2918 146.09 44.3271 146.471 44.2622C146.863 44.1915 147.211 44.0234 147.514 43.7577C147.821 43.4833 148.05 43.12 148.203 42.6678C148.43 41.9981 148.407 41.394 148.134 40.8555C147.861 40.3169 147.415 39.9431 146.798 39.7339C146.172 39.5217 145.582 39.545 145.029 39.8036C144.485 40.0652 144.099 40.5309 143.872 41.2005C143.719 41.6528 143.681 42.0809 143.757 42.4849C143.837 42.8802 144.011 43.2252 144.279 43.5198C144.551 43.8057 144.891 44.0178 145.3 44.1563ZM153.285 39.2992L157.525 40.7355C158.62 41.1067 159.392 41.6782 159.838 42.4499C160.287 43.2129 160.335 44.1162 159.981 45.1598C159.752 45.8382 159.412 46.3679 158.963 46.7491C158.523 47.1331 157.999 47.3629 157.392 47.4383L157.88 51.0211L155.114 50.0842L154.689 46.9591L153.802 46.6585L152.896 49.3329L150.196 48.4181L153.285 39.2992ZM155.531 44.8594C155.949 45.0008 156.297 45.0315 156.576 44.9516C156.867 44.8659 157.08 44.623 157.216 44.2229C157.351 43.8229 157.328 43.5048 157.146 43.2687C156.976 43.0269 156.682 42.8352 156.265 42.6938L155.26 42.3535L154.527 44.5191L155.531 44.8594ZM161.859 42.2038L165.238 43.3484C166.246 43.6901 167.063 44.1703 167.687 44.789C168.32 45.4106 168.724 46.1342 168.9 46.9597C169.088 47.7795 169.027 48.646 168.718 49.5592C168.205 51.0724 167.368 52.0687 166.208 52.548C165.049 53.0186 163.688 52.9887 162.122 52.4584L158.77 51.3226L161.859 42.2038ZM163.087 50.2547C163.757 50.4816 164.34 50.4467 164.838 50.15C165.345 49.8563 165.721 49.3485 165.965 48.6267C166.183 47.9831 166.182 47.3864 165.961 46.8365C165.74 46.2866 165.312 45.9041 164.677 45.689L163.79 45.3885L162.239 49.9675L163.087 50.2547ZM171.031 45.3111L177.645 47.5517L176.876 49.8216L172.963 48.4958L172.539 49.7482L175.356 50.7028L174.654 52.777L171.836 51.8225L171.412 53.0748L175.325 54.4006L174.556 56.6706L167.942 54.4299L171.031 45.3111ZM178.293 47.7711L182.533 49.2074C183.629 49.5786 184.4 50.1501 184.846 50.9218C185.295 51.6847 185.343 52.5881 184.99 53.6317C184.76 54.3101 184.42 54.8398 183.971 55.2209C183.531 55.605 183.007 55.8347 182.4 55.9102L182.888 59.4929L180.122 58.556L179.697 55.4309L178.81 55.1304L177.904 57.8047L175.204 56.8899L178.293 47.7711ZM180.54 53.3312C180.957 53.4726 181.305 53.5034 181.585 53.4234C181.875 53.3377 182.088 53.0949 182.224 52.6948C182.36 52.2947 182.336 51.9767 182.155 51.7406C181.984 51.4987 181.691 51.3071 181.273 51.1657L180.269 50.8254L179.535 52.9909L180.54 53.3312Z" fill="#FF4103"/>
<defs>
<linearGradient id="paint0_linear_4905_22353" x1="147.95" y1="57.1652" x2="280.286" y2="203.905" gradientUnits="userSpaceOnUse">
<stop stop-color="#D0F0FF" stop-opacity="0"/>
<stop offset="1" stop-color="#D0F0FF" stop-opacity="0.5"/>
</linearGradient>
<linearGradient id="paint1_linear_4905_22353" x1="147.95" y1="57.1652" x2="280.286" y2="203.905" gradientUnits="userSpaceOnUse">
<stop stop-color="#D0F0FF" stop-opacity="0"/>
<stop offset="1" stop-color="#D0F0FF" stop-opacity="0.1"/>
</linearGradient>
</defs>
</svg>
