<svg width="325" height="210" viewBox="0 0 325 210" fill="none" xmlns="http://www.w3.org/2000/svg">
<rect x="109.52" y="51.5762" width="59.8073" height="10.1559" rx="5.07797" transform="rotate(90 109.52 51.5762)" fill="#A12300"/>
<path d="M135.102 199.402L170.459 86.5586L205.817 199.402H135.102Z" fill="url(#paint0_linear_4905_22414)"/>
<path d="M36.0191 86.5586H170.454L136.378 199.402H2.31641L36.0191 86.5586Z" fill="#FF4D12"/>
<path d="M103.722 86.5586L70.0195 199.402" stroke="#DE3000" stroke-width="1.50459"/>
<path d="M70.6246 86.5586L36.9219 199.402" stroke="#DE3000" stroke-width="1.50459"/>
<path d="M136.832 86.5586L103.129 199.402" stroke="#DE3000" stroke-width="1.50459"/>
<rect x="54.2305" y="44.8066" width="100.431" height="32.7247" rx="16.3624" fill="#FF4D12"/>
<path d="M71.0847 54.1669H78.0866C79.3911 54.1669 80.4334 54.493 81.2135 55.1453C82.0065 55.7847 82.4029 56.7055 82.4029 57.9077C82.4029 58.4448 82.2814 58.95 82.0384 59.4232C81.8082 59.8964 81.4693 60.2801 81.0217 60.5742C81.6484 60.8556 82.1024 61.2264 82.3837 61.6868C82.6779 62.1473 82.825 62.7483 82.825 63.4901C82.825 64.3214 82.6267 65.0503 82.2303 65.677C81.8338 66.2909 81.2967 66.7641 80.6189 67.0966C79.9538 67.4163 79.2121 67.5762 78.3936 67.5762H71.0847V54.1669ZM77.0507 59.3656C77.4856 59.3656 77.8117 59.2697 78.0291 59.0779C78.2593 58.8861 78.3744 58.5791 78.3744 58.1571C78.3744 57.7223 78.2657 57.4217 78.0483 57.2555C77.8309 57.0764 77.4919 56.9869 77.0315 56.9869H75.0556V59.3656H77.0507ZM77.2809 64.7562C77.8053 64.7562 78.1889 64.6603 78.4319 64.4685C78.6749 64.2766 78.7964 63.9441 78.7964 63.4709C78.7964 63.0105 78.6685 62.6716 78.4128 62.4542C78.1698 62.2368 77.7797 62.1281 77.2426 62.1281H75.0556V64.7562H77.2809ZM90.3542 67.8639C88.9985 67.8639 87.7644 67.5698 86.6518 66.9815C85.5519 66.3932 84.6823 65.5747 84.0428 64.526C83.4161 63.4645 83.1028 62.2496 83.1028 60.8811C83.1028 59.5127 83.4161 58.2978 84.0428 57.2363C84.6823 56.1748 85.5519 55.3499 86.6518 54.7616C87.7644 54.1733 88.9985 53.8792 90.3542 53.8792C91.7098 53.8792 92.9311 54.1733 94.0182 54.7616C95.1181 55.3499 95.9813 56.1748 96.608 57.2363C97.2474 58.2978 97.5671 59.5127 97.5671 60.8811C97.5671 62.2496 97.2474 63.4645 96.608 64.526C95.9813 65.5747 95.1181 66.3932 94.0182 66.9815C92.9311 67.5698 91.7098 67.8639 90.3542 67.8639ZM90.3542 64.1423C90.9425 64.1423 91.4732 64.0144 91.9464 63.7587C92.4324 63.4901 92.816 63.1128 93.0974 62.6268C93.3788 62.1281 93.5194 61.5462 93.5194 60.8811C93.5194 59.8964 93.2189 59.1099 92.6178 58.5216C92.0167 57.9333 91.2622 57.6391 90.3542 57.6391C89.4334 57.6391 88.666 57.9333 88.0521 58.5216C87.4511 59.1099 87.1505 59.8964 87.1505 60.8811C87.1505 61.5462 87.2912 62.1281 87.5726 62.6268C87.8539 63.1128 88.2376 63.4901 88.7236 63.7587C89.2095 64.0144 89.7531 64.1423 90.3542 64.1423ZM105.491 67.8639C104.135 67.8639 102.901 67.5698 101.789 66.9815C100.689 66.3932 99.8192 65.5747 99.1798 64.526C98.5531 63.4645 98.2398 62.2496 98.2398 60.8811C98.2398 59.5127 98.5531 58.2978 99.1798 57.2363C99.8192 56.1748 100.689 55.3499 101.789 54.7616C102.901 54.1733 104.135 53.8792 105.491 53.8792C106.847 53.8792 108.068 54.1733 109.155 54.7616C110.255 55.3499 111.118 56.1748 111.745 57.2363C112.384 58.2978 112.704 59.5127 112.704 60.8811C112.704 62.2496 112.384 63.4645 111.745 64.526C111.118 65.5747 110.255 66.3932 109.155 66.9815C108.068 67.5698 106.847 67.8639 105.491 67.8639ZM105.491 64.1423C106.079 64.1423 106.61 64.0144 107.083 63.7587C107.569 63.4901 107.953 63.1128 108.234 62.6268C108.516 62.1281 108.656 61.5462 108.656 60.8811C108.656 59.8964 108.356 59.1099 107.755 58.5216C107.154 57.9333 106.399 57.6391 105.491 57.6391C104.57 57.6391 103.803 57.9333 103.189 58.5216C102.588 59.1099 102.287 59.8964 102.287 60.8811C102.287 61.5462 102.428 62.1281 102.71 62.6268C102.991 63.1128 103.375 63.4901 103.861 63.7587C104.346 64.0144 104.89 64.1423 105.491 64.1423ZM116.115 57.5049H112.508V54.1669H123.692V57.5049H120.086V67.5762H116.115V57.5049ZM124.551 54.1669H128.522V59.0971H132.992V54.1669H136.963V67.5762H132.992V62.435H128.522V67.5762H124.551V54.1669Z" fill="#140707"/>
<path d="M167.192 133.91L225.796 91.2976C226.362 90.8859 226.421 90.0635 225.919 89.5757L204.494 68.7546C203.767 68.0485 204.267 66.8169 205.28 66.8169L239.857 66.8169C240.48 66.8169 240.985 66.3117 240.985 65.6884L240.985 31.3946C240.985 30.3593 242.262 29.8705 242.953 30.6413L269.447 60.1916C269.908 60.7063 270.72 60.6889 271.159 60.1549L300.728 24.1784C301.506 23.2327 303.021 24.0279 302.685 25.2049L288.675 74.2415C288.509 74.8205 288.828 75.4274 289.398 75.6204L322.688 86.88C323.786 87.2516 323.677 88.8396 322.538 89.0573L289.685 95.3381C289.001 95.4689 288.597 96.1816 288.837 96.8352L303.091 135.683C303.456 136.677 302.372 137.581 301.459 137.044L271.127 119.193C270.661 118.919 270.066 119.013 269.708 119.418L238.758 154.477C238.083 155.243 236.819 154.789 236.784 153.769L235.383 112.941C235.356 112.174 234.589 111.656 233.868 111.919L168.243 135.883C167.014 136.332 166.134 134.68 167.192 133.91Z" fill="#EEEEEE"/>
<rect x="275.691" y="46.5234" width="6.21675" height="14.8287" rx="1.67029" transform="rotate(14.0077 275.691 46.5234)" fill="black"/>
<path d="M255.583 60.0961C261.753 56.3224 269.17 55.1542 276.201 56.8486C283.232 58.5431 289.303 62.9614 293.076 69.1314C296.85 75.3013 298.018 82.718 296.324 89.7492C294.629 96.7805 290.211 102.851 284.041 106.625C277.871 110.398 270.454 111.566 263.423 109.872C256.392 108.178 250.322 103.759 246.548 97.5894C242.774 91.4194 241.606 84.0027 243.3 76.9715C244.995 69.9402 249.413 63.8698 255.583 60.0961Z" fill="white" stroke="black" stroke-width="5.64219"/>
<path d="M269.447 84.4649L271.554 72.1373" stroke="black" stroke-width="5.39032" stroke-linecap="round" stroke-linejoin="round"/>
<rect x="267.863" y="42.8672" width="23.8332" height="4.62486" transform="rotate(14.0077 267.863 42.8672)" fill="black" stroke="black" stroke-width="1.22116"/>
<path d="M269.173 84.6004L285.727 77.6192" stroke="#FF4D12" stroke-width="5.39032" stroke-linecap="round" stroke-linejoin="round"/>
<path d="M313.077 53.7324L300.445 61.6408L297.455 57.7084L309.627 45.4706L313.077 53.7324Z" fill="black"/>
<ellipse cx="308.615" cy="67.2594" rx="3.49457" ry="4.70842" transform="rotate(85.2729 308.615 67.2594)" fill="black"/>
<defs>
<linearGradient id="paint0_linear_4905_22414" x1="205.065" y1="170.063" x2="165.946" y2="153.513" gradientUnits="userSpaceOnUse">
<stop stop-color="#641A03"/>
<stop offset="1" stop-color="#140707"/>
</linearGradient>
</defs>
</svg>
