<svg width="16" height="16" viewBox="0 0 16 16" fill="none" xmlns="http://www.w3.org/2000/svg">
<mask id="mask0_3494_15283" style="mask-type:alpha" maskUnits="userSpaceOnUse" x="0" y="0" width="16" height="16">
<rect width="16" height="16" fill="#D9D9D9"/>
</mask>
<g mask="url(#mask0_3494_15283)">
<path d="M7.73255 9.24366H3.95477C3.7407 9.24366 3.56126 9.17126 3.41644 9.02644C3.27163 8.88163 3.19922 8.70218 3.19922 8.48811C3.19922 8.27403 3.27163 8.09459 3.41644 7.94977C3.56126 7.80496 3.7407 7.73255 3.95477 7.73255H7.73255V3.95477C7.73255 3.7407 7.80496 3.56126 7.94977 3.41644C8.09459 3.27163 8.27403 3.19922 8.48811 3.19922C8.70218 3.19922 8.88163 3.27163 9.02644 3.41644C9.17126 3.56126 9.24366 3.7407 9.24366 3.95477V7.73255H13.0214C13.2355 7.73255 13.415 7.80496 13.5598 7.94977C13.7046 8.09459 13.777 8.27403 13.777 8.48811C13.777 8.70218 13.7046 8.88163 13.5598 9.02644C13.415 9.17126 13.2355 9.24366 13.0214 9.24366H9.24366V13.0214C9.24366 13.2355 9.17126 13.415 9.02644 13.5598C8.88163 13.7046 8.70218 13.777 8.48811 13.777C8.27403 13.777 8.09459 13.7046 7.94977 13.5598C7.80496 13.415 7.73255 13.2355 7.73255 13.0214V9.24366Z" fill="#666666"/>
</g>
</svg>
