<svg width="24" height="24" viewBox="0 0 24 24" fill="none" xmlns="http://www.w3.org/2000/svg">
<rect x="0.5" y="0.5" width="23" height="23" rx="11.5" fill="white"/>
<rect x="0.5" y="0.5" width="23" height="23" rx="11.5" stroke="#DDDDDD"/>
<mask id="mask0_3696_24868" style="mask-type:alpha" maskUnits="userSpaceOnUse" x="2" y="2" width="20" height="20">
<rect x="2" y="2" width="20" height="20" fill="#666666"/>
</mask>
<g mask="url(#mask0_3696_24868)">
<path d="M11.9952 13.0213L8.72629 16.2903C8.58012 16.4364 8.41401 16.5062 8.22797 16.4996C8.04194 16.4929 7.87583 16.4165 7.72966 16.2703C7.58349 16.1242 7.5104 15.9547 7.5104 15.7621C7.5104 15.5694 7.58349 15.4 7.72966 15.2538L10.9787 12.0048L7.70973 8.73582C7.56355 8.58965 7.49379 8.42022 7.50043 8.22754C7.50708 8.03486 7.58349 7.86543 7.72966 7.71926C7.87583 7.57309 8.04526 7.5 8.23794 7.5C8.43062 7.5 8.60005 7.57309 8.74622 7.71926L11.9952 10.9882L15.2642 7.71926C15.4104 7.57309 15.5798 7.5 15.7725 7.5C15.9651 7.5 16.1346 7.57309 16.2807 7.71926C16.4269 7.86543 16.5 8.03486 16.5 8.22754C16.5 8.42022 16.4269 8.58965 16.2807 8.73582L13.0118 12.0048L16.2807 15.2737C16.4269 15.4199 16.5 15.586 16.5 15.772C16.5 15.9581 16.4269 16.1242 16.2807 16.2703C16.1346 16.4165 15.9651 16.4896 15.7725 16.4896C15.5798 16.4896 15.4104 16.4165 15.2642 16.2703L11.9952 13.0213Z" fill="#222222"/>
</g>
</svg>
