<svg width="38" height="38" viewBox="0 0 38 38" fill="none" xmlns="http://www.w3.org/2000/svg">
<circle cx="19" cy="19" r="19" fill="#00DE5A"/>
<path d="M32.7972 15.8351L31.3709 19.0853L29.7591 15.8351H28.5184L30.8036 20.3472L29.8598 22.4521H31.0634L34.0007 15.8351H32.7972ZM27.8292 20.8615H26.6468V20.3895C26.2226 20.7554 25.7083 20.9622 25.0933 20.9622C23.683 20.9622 22.5748 19.8116 22.5748 18.3483C22.5748 16.8796 23.6777 15.7344 25.0933 15.7344C25.7083 15.7344 26.2173 15.9359 26.6468 16.307V15.8351H27.8292V20.8615ZM26.7847 18.3483C26.7847 17.3992 26.1219 16.6834 25.2471 16.6834C24.3722 16.6834 23.7095 17.4045 23.7095 18.3483C23.7095 19.2973 24.3722 20.0131 25.2471 20.0131C26.1219 20.0131 26.7847 19.2973 26.7847 18.3483ZM16.7162 22.4521H17.9464V20.4373C18.3599 20.7766 18.8582 20.9675 19.4466 20.9675C20.857 20.9675 21.9651 19.8169 21.9651 18.3536C21.9651 16.8849 20.8623 15.7397 19.4466 15.7397C18.8317 15.7397 18.3228 15.9411 17.8933 16.3122V15.8404H16.7109V22.4521H16.7162ZM19.2982 16.6834C20.173 16.6834 20.8358 17.4045 20.8358 18.3483C20.8358 19.2973 20.173 20.0131 19.2982 20.0131C18.4234 20.0131 17.7607 19.292 17.7607 18.3483C17.7554 17.3992 18.4181 16.6834 19.2982 16.6834Z" fill="black"/>
<path d="M14.5094 18.5001C14.5094 21.3314 12.2136 23.6272 9.38232 23.6272C6.55103 23.6272 4.25 21.3314 4.25 18.5001C4.25 15.6688 6.54573 13.373 9.38232 13.373C12.2136 13.373 14.5094 15.6688 14.5094 18.5001ZM10.2361 16.0877V18.6698L8.44386 16.0877H6.96459V20.9072H8.5182V18.3252L10.3102 20.9072H11.7895V16.0877H10.2361Z" fill="black"/>
</svg>
