<svg width="16" height="16" viewBox="0 0 16 16" fill="none" xmlns="http://www.w3.org/2000/svg">
<path d="M1.3275 13V4.6585H2.59485V8.27622H6.74255V4.6585H8.00991V13H6.74255V9.35924H2.59485V13H1.3275ZM9.24592 13V12.0783L12.1378 9.16337C13.048 8.2071 13.5088 7.67711 13.5088 6.95126C13.5088 6.13324 12.8406 5.60326 11.965 5.60326C11.0433 5.60326 10.4442 6.19085 10.4442 7.078H9.24592C9.2344 5.55717 10.3981 4.54329 11.988 4.54329C13.601 4.54329 14.7071 5.55717 14.7186 6.9167C14.7071 7.84993 14.2693 8.5873 12.7023 10.1312L11.0087 11.8479V11.917H14.8568V13H9.24592Z" fill="#444444"/>
</svg>
