<svg width="16" height="16" viewBox="0 0 16 16" fill="none" xmlns="http://www.w3.org/2000/svg">
<g clip-path="url(#clip0_2073_10416)">
<path d="M8.47443 0.732422C11.0973 0.732422 12.9361 2.42792 13.0848 4.78125C13.0917 4.89149 13.053 5.00053 12.9774 5.08105C12.9018 5.16149 12.7958 5.20703 12.6854 5.20703H12.0545C11.845 5.20701 11.6705 5.04487 11.6551 4.83594C11.5952 4.024 11.2604 3.35364 10.7254 2.88477C10.189 2.41486 9.42547 2.125 8.47443 2.125C6.54198 2.12517 5.29594 3.27178 5.29572 4.73047C5.29581 5.32724 5.50803 5.80349 5.91974 6.20117C6.29084 6.5595 6.83544 6.86401 7.56037 7.11426L7.88263 7.21875H7.88459L9.43049 7.69629C10.5868 8.03927 11.5462 8.49391 12.2195 9.13281C12.9072 9.78546 13.2772 10.6132 13.2772 11.6406C13.2771 12.8487 12.7755 13.9068 11.8973 14.6572C11.023 15.4043 9.79665 15.83 8.36017 15.8301C6.98531 15.8301 5.81863 15.4448 4.97053 14.751C4.11864 14.0539 3.61373 13.0643 3.53986 11.9141C3.53296 11.8041 3.57096 11.6957 3.64631 11.6152C3.72192 11.5347 3.82878 11.4893 3.93928 11.4893H4.57013L4.64631 11.4961C4.81988 11.5298 4.95567 11.6769 4.96955 11.8594C5.0282 12.6278 5.37501 13.2561 5.94318 13.6982C6.51677 14.1444 7.33865 14.418 8.36017 14.418C9.44692 14.4179 10.3223 14.1166 10.9178 13.6299C11.5066 13.1485 11.8454 12.4679 11.8455 11.6406C11.8455 11.0079 11.6423 10.5366 11.2186 10.1406C10.7757 9.72696 10.0703 9.37473 9.02912 9.05566V9.05664L7.44025 8.57812L7.43928 8.57715C6.31159 8.23093 5.41779 7.75437 4.80353 7.11621C4.17965 6.46791 3.86417 5.67343 3.86408 4.75C3.86408 2.38708 5.90228 0.732604 8.47443 0.732422ZM6.14826 14.3076C6.74985 14.6358 7.50035 14.8184 8.36115 14.8184C8.91842 14.8183 9.43207 14.7427 9.89142 14.6035C9.43187 14.7428 8.91771 14.8174 8.36017 14.8174C7.49981 14.8174 6.7497 14.6355 6.14826 14.3076ZM10.3621 14.4287C10.2166 14.4928 10.0643 14.5498 9.9051 14.5986C10.0644 14.5498 10.2166 14.4928 10.3621 14.4287ZM4.95197 14.1963C5.05716 14.302 5.1709 14.4005 5.29084 14.4941C5.12225 14.3625 4.96717 14.2196 4.82795 14.0645L4.95197 14.1963ZM10.5701 14.3301C11.6175 13.7911 12.2459 12.8391 12.2459 11.6406C12.2459 11.2887 12.1888 10.9734 12.075 10.6875C12.1886 10.9733 12.2459 11.2888 12.2459 11.6406L12.241 11.8164C12.1824 12.932 11.5657 13.8178 10.5701 14.3301ZM5.84553 14.1221C5.88727 14.1509 5.92992 14.1789 5.97345 14.2061C5.92991 14.1789 5.88728 14.1509 5.84553 14.1221ZM5.46369 13.8125C5.53743 13.8829 5.61528 13.95 5.69709 14.0137C5.61489 13.9497 5.53677 13.8822 5.46271 13.8115L5.46369 13.8125ZM4.06037 12.6406C4.07471 12.6943 4.0906 12.7473 4.10724 12.7998C4.07209 12.6888 4.04222 12.5751 4.0174 12.459L4.06037 12.6406ZM12.8094 10.9541C12.8182 10.9966 12.8267 11.0395 12.8338 11.083C12.8268 11.0395 12.8181 10.9966 12.8094 10.9541ZM12.4178 9.98828C12.45 10.0382 12.4806 10.0889 12.5096 10.1406C12.4807 10.0889 12.45 10.0382 12.4178 9.98828ZM11.492 9.84863C11.5752 9.92635 11.6494 10.0084 11.7186 10.0918C11.5965 9.94457 11.4549 9.80478 11.2889 9.6748L11.492 9.84863ZM11.2528 8.90137C11.6331 9.13564 11.952 9.39819 12.2029 9.69824C11.9521 9.39808 11.6331 9.13572 11.2528 8.90137ZM10.8055 9.35352C10.8482 9.37793 10.8887 9.40467 10.9295 9.42969C10.804 9.35268 10.6704 9.27659 10.5262 9.20508L10.8055 9.35352ZM6.93049 7.29883C7.18747 7.40909 7.4662 7.51155 7.7674 7.60254L9.31818 8.08105C9.9461 8.26732 10.4989 8.48517 10.9715 8.73926C10.4987 8.48492 9.94563 8.26648 9.3172 8.08008L7.7674 7.60156C7.4664 7.51063 7.18737 7.40902 6.93049 7.29883ZM4.33088 5.4082C4.43983 5.93803 4.68535 6.40368 5.0672 6.80957C4.68555 6.40364 4.43967 5.93805 4.33088 5.4082ZM8.2508 1.13672C5.95254 1.2284 4.26349 2.72881 4.26349 4.75C4.26351 4.91833 4.27936 5.0807 4.30256 5.23828C4.27943 5.08085 4.26447 4.91816 4.26447 4.75C4.2647 2.66421 6.06345 1.13331 8.47443 1.13281L8.2508 1.13672ZM11.6815 3.46484C11.8656 3.81619 11.9872 4.2102 12.0379 4.6377L12.0545 4.80762C12.0181 4.31435 11.8899 3.86227 11.6815 3.46484ZM12.1727 3.07031C12.1691 3.06413 12.1655 3.05792 12.1619 3.05176C12.1656 3.05792 12.1691 3.06413 12.1727 3.07031ZM12.0965 2.94531C12.0836 2.92501 12.0707 2.90479 12.0574 2.88477C12.0707 2.90479 12.0836 2.92502 12.0965 2.94531ZM12.0135 2.82031C11.9939 2.79209 11.9743 2.76398 11.9539 2.73633C11.9743 2.76397 11.9939 2.79209 12.0135 2.82031ZM11.8904 2.65332C11.8771 2.63616 11.8631 2.61946 11.8494 2.60254C11.8631 2.61945 11.877 2.63617 11.8904 2.65332ZM11.7908 2.53125C11.7697 2.5065 11.7482 2.4822 11.7264 2.45801C11.7482 2.4822 11.7697 2.50651 11.7908 2.53125ZM11.659 2.38477C11.6412 2.36608 11.6235 2.34743 11.6053 2.3291C11.6235 2.34742 11.6412 2.36609 11.659 2.38477ZM11.5379 2.2627C11.5127 2.23849 11.4868 2.21494 11.4608 2.19141C11.4868 2.21493 11.5126 2.2385 11.5379 2.2627ZM11.409 2.14551C11.3782 2.11867 11.347 2.09231 11.3153 2.06641C11.347 2.09229 11.3782 2.11869 11.409 2.14551ZM11.284 2.04102C11.2453 2.0101 11.206 1.97971 11.1658 1.9502C11.206 1.97969 11.2453 2.01012 11.284 2.04102ZM11.1444 1.93457C11.1024 1.9042 11.0598 1.87453 11.0164 1.8457C11.0598 1.87451 11.1024 1.90421 11.1444 1.93457ZM10.9852 1.8252C10.9449 1.79898 10.9037 1.77389 10.8621 1.74902C10.9037 1.77388 10.9449 1.799 10.9852 1.8252ZM10.8231 1.72559C10.7844 1.70305 10.7456 1.68054 10.7059 1.65918C10.7456 1.68052 10.7844 1.70307 10.8231 1.72559ZM10.1365 1.40625C10.3194 1.47156 10.494 1.54824 10.66 1.63477C10.494 1.54816 10.3194 1.47163 10.1365 1.40625ZM8.47834 1.13281C9.00647 1.13307 9.49764 1.20614 9.94416 1.34277C9.56098 1.22539 9.14507 1.15466 8.70099 1.13672L8.47834 1.13281ZM10.4178 14.4053C10.4583 14.3867 10.4976 14.3664 10.5369 14.3467C10.4976 14.3664 10.4583 14.3867 10.4178 14.4053ZM10.1365 1.40625C10.0823 1.38685 10.0272 1.36901 9.9715 1.35156C10.0272 1.36899 10.0823 1.38687 10.1365 1.40625Z" fill="#444444"/>
<path d="M1.60156 8L14.4016 8" stroke="#444444" stroke-width="1.44" stroke-linecap="round" stroke-linejoin="round"/>
</g>
<defs>
<clipPath id="clip0_2073_10416">
<rect width="16" height="16" fill="white"/>
</clipPath>
</defs>
</svg>
