<svg width="20" height="20" viewBox="0 0 20 20" fill="none" xmlns="http://www.w3.org/2000/svg">
<mask id="mask0_2475_11735" style="mask-type:alpha" maskUnits="userSpaceOnUse" x="0" y="0" width="20" height="20">
<rect width="20" height="20" fill="currentColor"/>
</mask>
<g mask="url(#mask0_2475_11735)">
<path d="M4.95833 10.0003L11.0833 16.1253C11.2917 16.3337 11.3924 16.5767 11.3854 16.8545C11.3785 17.1323 11.2708 17.3753 11.0625 17.5837C10.8542 17.792 10.6111 17.8962 10.3333 17.8962C10.0556 17.8962 9.8125 17.792 9.60417 17.5837L3.1875 11.1878C3.02083 11.0212 2.89583 10.8337 2.8125 10.6253C2.72917 10.417 2.6875 10.2087 2.6875 10.0003C2.6875 9.792 2.72917 9.58367 2.8125 9.37534C2.89583 9.167 3.02083 8.9795 3.1875 8.81284L9.60417 2.39617C9.8125 2.18784 10.059 2.08714 10.3438 2.09409C10.6285 2.10103 10.875 2.20867 11.0833 2.417C11.2917 2.62534 11.3958 2.86839 11.3958 3.14617C11.3958 3.42395 11.2917 3.667 11.0833 3.87534L4.95833 10.0003Z" fill="#C1C1C1"/>
</g>
</svg>
