<svg width="20" height="20" viewBox="0 0 20 20" fill="none" xmlns="http://www.w3.org/2000/svg">
<mask id="mask0_2722_12292" style="mask-type:alpha" maskUnits="userSpaceOnUse" x="0" y="0" width="20" height="20">
<rect width="20" height="20" fill="#D9D9D9"/>
</mask>
<g mask="url(#mask0_2722_12292)">
<path d="M15.0602 9.9987L8.93523 3.8737C8.7269 3.66536 8.6262 3.41884 8.63315 3.13411C8.64009 2.84939 8.74773 2.60286 8.95607 2.39453C9.1644 2.1862 9.41093 2.08203 9.69565 2.08203C9.98037 2.08203 10.2269 2.1862 10.4352 2.39453L16.8311 8.8112C16.9977 8.97786 17.1227 9.16536 17.2061 9.3737C17.2894 9.58203 17.3311 9.79036 17.3311 9.9987C17.3311 10.207 17.2894 10.4154 17.2061 10.6237C17.1227 10.832 16.9977 11.0195 16.8311 11.1862L10.4144 17.6029C10.2061 17.8112 9.96301 17.9119 9.68523 17.9049C9.40745 17.898 9.1644 17.7904 8.95607 17.582C8.74773 17.3737 8.64357 17.1272 8.64357 16.8424C8.64357 16.5577 8.74773 16.3112 8.95607 16.1029L15.0602 9.9987Z" fill="#222222"/>
</g>
</svg>
