<svg width="58" height="24" viewBox="0 0 58 24" fill="none" xmlns="http://www.w3.org/2000/svg">
<path d="M23.249 1C27.3362 1.0001 28.0723 4.09703 28.0723 7.91699C28.0722 11.7368 27.0091 14.8339 23.249 14.834C19.4888 14.834 18.4258 11.7369 18.4258 7.91699C18.4258 4.09697 19.5704 1 23.249 1ZM23.917 4.41895C22.4597 4.18544 21.9136 5.71281 21.5391 7.64453C21.1645 9.5762 21.2653 11.2071 22.5605 11.415C23.8561 11.6228 24.5649 10.1213 24.9395 8.18945C25.3139 6.25774 25.172 4.6202 23.917 4.41895Z" fill="black"/>
<path d="M46.1328 1C50.3419 1 51.7041 4.09697 51.7041 7.91699C51.7041 11.7369 50.6306 14.834 46.1328 14.834C41.6354 14.8338 40.5625 11.7368 40.5625 7.91699C40.5625 4.09711 41.6766 1.00023 46.1328 1ZM46.8613 4.41895C45.404 4.18544 44.8579 5.71281 44.4834 7.64453C44.1089 9.5762 44.2096 11.2071 45.5049 11.415C46.8004 11.6228 47.5092 10.1213 47.8838 8.18945C48.2583 6.25774 48.1163 4.6202 46.8613 4.41895Z" fill="black"/>
<rect x="2.05788" y="1.15553" width="3.57616" height="14.1196" fill="black" stroke="black" stroke-width="0.162631"/>
<rect x="7.4446" y="12.5227" width="3.57616" height="11.2033" fill="black" stroke="black" stroke-width="0.162631"/>
<rect x="21.5696" y="15.8137" width="3.57616" height="7.91316" fill="black" stroke="black" stroke-width="0.162631"/>
<rect x="27.8406" y="15.8137" width="3.20228" height="9.10958" transform="rotate(90 27.8406 15.8137)" fill="black" stroke="black" stroke-width="0.162631"/>
<rect x="32.4031" y="20.5227" width="3.20228" height="5.22123" transform="rotate(90 32.4031 20.5227)" fill="black" stroke="black" stroke-width="0.162631"/>
<rect x="56.8523" y="20.5227" width="3.20228" height="7.68883" transform="rotate(90 56.8523 20.5227)" fill="black" stroke="black" stroke-width="0.162631"/>
<rect x="51.321" y="20.5867" width="3.57616" height="4.6978" transform="rotate(180 51.321 20.5867)" fill="black" stroke="black" stroke-width="0.162631"/>
<rect x="53.1321" y="1.15553" width="3.57616" height="16.5872" fill="black" stroke="black" stroke-width="0.162631"/>
<rect x="29.8001" y="1.15553" width="3.57616" height="22.5692" fill="black" stroke="black" stroke-width="0.162631"/>
<rect x="17.2976" y="20.5227" width="3.20228" height="15.7646" transform="rotate(90 17.2976 20.5227)" fill="black" stroke="black" stroke-width="0.162631"/>
<rect x="16.7742" y="12.3723" width="3.27706" height="14.7178" transform="rotate(90 16.7742 12.3723)" fill="black" stroke="black" stroke-width="0.162631"/>
<rect x="34.6594" y="1.15553" width="3.57616" height="22.5692" fill="black" stroke="black" stroke-width="0.162631"/>
<path d="M51.2471 21.4775L40.417 23.708V20.1553L51.2471 17.9258V21.4775Z" fill="black" stroke="black" stroke-width="0.162631"/>
</svg>
