<svg width="44" height="17" viewBox="0 0 44 17" fill="none" xmlns="http://www.w3.org/2000/svg">
<path d="M42.2308 4.58565L40.1333 9.36535L37.763 4.58565H35.9384L39.299 11.2211L37.9111 14.3166H39.6811L44.0007 4.58565H42.2308ZM34.9248 11.9774H33.186V11.2834C32.5622 11.8214 31.8059 12.1256 30.9014 12.1256C28.8273 12.1256 27.1977 10.4336 27.1977 8.28153C27.1977 6.1217 28.8195 4.4375 30.9014 4.4375C31.8059 4.4375 32.5544 4.73379 33.186 5.2796V4.58565H34.9248V11.9774ZM33.3887 8.28153C33.3887 6.88583 32.4141 5.8332 31.1275 5.8332C29.841 5.8332 28.8663 6.89363 28.8663 8.28153C28.8663 9.67724 29.841 10.7299 31.1275 10.7299C32.4141 10.7299 33.3887 9.67724 33.3887 8.28153ZM18.582 14.3166H20.3911V11.3536C20.9992 11.8527 21.732 12.1334 22.5974 12.1334C24.6714 12.1334 26.301 10.4414 26.301 8.28933C26.301 6.1295 24.6792 4.4453 22.5974 4.4453C21.693 4.4453 20.9446 4.74151 20.313 5.28732V4.59345H18.5742V14.3166H18.582ZM22.379 5.8332C23.6656 5.8332 24.6402 6.89363 24.6402 8.28153C24.6402 9.67724 23.6656 10.7299 22.379 10.7299C21.0926 10.7299 20.1181 9.66944 20.1181 8.28153C20.1103 6.88583 21.0848 5.8332 22.379 5.8332Z" fill="#03C75A"/>
<path d="M15.3376 8.50085C15.3376 12.6646 11.9614 16.0408 7.79764 16.0408C3.63392 16.0408 0.25 12.6646 0.25 8.50085C0.25 4.33713 3.62612 0.960938 7.79764 0.960938C11.9614 0.960938 15.3376 4.33713 15.3376 8.50085ZM9.05314 4.95312V8.75036L6.41753 4.95312H4.2421V12.0408H6.52684V8.24354L9.16215 12.0408H11.3377V4.95312H9.05314Z" fill="#03C75A"/>
</svg>
