<svg width="5" height="8" viewBox="0 0 5 8" fill="none" xmlns="http://www.w3.org/2000/svg">
<path d="M3.022 3.76244L0.567598 1.30804C0.45222 1.19266 0.394531 1.04582 0.394531 0.867506C0.394531 0.689195 0.45222 0.542351 0.567598 0.426973C0.682976 0.311595 0.82982 0.253906 1.00813 0.253906C1.18644 0.253906 1.33329 0.311595 1.44866 0.426973L4.3436 3.32191C4.40653 3.38484 4.45111 3.45302 4.47733 3.52644C4.50355 3.59986 4.51666 3.67853 4.51666 3.76244C4.51666 3.84635 4.50355 3.92502 4.47733 3.99844C4.45111 4.07186 4.40653 4.14004 4.3436 4.20297L1.44866 7.09791C1.33329 7.21328 1.18644 7.27097 1.00813 7.27097C0.82982 7.27097 0.682976 7.21328 0.567598 7.09791C0.45222 6.98253 0.394531 6.83568 0.394531 6.65737C0.394531 6.47906 0.45222 6.33222 0.567598 6.21684L3.022 3.76244Z" fill="#AAAAAA"/>
</svg>
