<svg width="12" height="12" viewBox="0 0 12 12" fill="none" xmlns="http://www.w3.org/2000/svg">
<g clip-path="url(#clip0_3696_25132)">
<path d="M5.69727 0.390625C6.8239 0.390625 7.90452 0.838122 8.70117 1.63477C9.49783 2.43142 9.94531 3.51203 9.94531 4.63867C9.94527 6.98465 7.8035 9.44943 6.56152 10.6816C6.07627 11.1631 5.31826 11.1631 4.83301 10.6816C3.59102 9.4494 1.44926 6.98458 1.44922 4.63867C1.44922 3.51207 1.89676 2.43141 2.69336 1.63477C3.48999 0.838136 4.57066 0.390653 5.69727 0.390625ZM5.69922 3.2207C4.91718 3.2207 4.2832 3.85468 4.2832 4.63672C4.2833 5.41867 4.91724 6.05273 5.69922 6.05273C6.48104 6.05255 7.11514 5.41856 7.11523 4.63672C7.11523 3.85479 6.4811 3.22088 5.69922 3.2207Z" fill="#CCCCCC"/>
</g>
<defs>
<clipPath id="clip0_3696_25132">
<rect width="11.328" height="11.328" fill="white" transform="translate(0.03125 0.0351562)"/>
</clipPath>
</defs>
</svg>
