<svg width="236" height="158" viewBox="0 0 236 158" fill="none" xmlns="http://www.w3.org/2000/svg">
<rect width="236.63" height="157.753" transform="translate(-0.816406 0.125)" fill="#F9F9F9"/>
<mask id="mask0_3696_25518" style="mask-type:alpha" maskUnits="userSpaceOnUse" x="89" y="50" width="58" height="58">
<rect x="89.418" y="50.6055" width="56.7912" height="56.7912" fill="#D9D9D9"/>
</mask>
<g mask="url(#mask0_3696_25518)">
<path d="M97.6979 97.9389C96.7514 97.9389 95.9232 97.584 95.2133 96.8741C94.5034 96.1642 94.1484 95.336 94.1484 94.3895V63.6276C94.1484 62.6811 94.5034 61.8529 95.2133 61.143C95.9232 60.4331 96.7514 60.0781 97.6979 60.0781H137.925C138.872 60.0781 139.7 60.4331 140.41 61.143C141.119 61.8529 141.474 62.6811 141.474 63.6276V94.3895C141.474 95.336 141.119 96.1642 140.41 96.8741C139.7 97.584 138.872 97.9389 137.925 97.9389H97.6979ZM97.6979 94.3895H137.925V63.6276H97.6979V94.3895ZM115.8 86.9948L111.067 80.3691C110.87 80.1325 110.634 80.0043 110.358 79.9846C110.082 79.9649 109.845 80.0734 109.648 80.31L104.501 87.0539C104.264 87.3695 104.235 87.685 104.412 88.0005C104.59 88.316 104.856 88.4737 105.211 88.4737H130.471C130.806 88.4737 131.058 88.316 131.225 88.0005C131.393 87.685 131.378 87.3695 131.181 87.0539L124.26 77.6479C124.062 77.4113 123.826 77.293 123.55 77.293C123.274 77.293 123.037 77.4113 122.84 77.6479L115.8 86.9948Z" fill="#CCCCCC"/>
</g>
</svg>
