<svg width="325" height="210" viewBox="0 0 325 210" fill="none" xmlns="http://www.w3.org/2000/svg">
<rect x="117.168" y="53.0254" width="54.0325" height="9.17533" rx="4.58767" transform="rotate(90 117.168 53.0254)" fill="#A12300"/>
<path d="M140.281 186.577L172.225 84.6289L204.169 186.577H140.281Z" fill="url(#paint0_linear_4879_22526)"/>
<path d="M50.7649 84.6289H172.219L141.434 186.577H20.3164L50.7649 84.6289Z" fill="#FF4D12"/>
<path d="M111.933 84.6289L81.4844 186.577" stroke="#DE3000" stroke-width="1.35931"/>
<path d="M82.0305 84.6289L51.582 186.577" stroke="#DE3000" stroke-width="1.35931"/>
<path d="M141.843 84.6289L111.395 186.577" stroke="#DE3000" stroke-width="1.35931"/>
<rect x="67.2148" y="46.9082" width="90.7339" height="29.565" rx="14.7825" fill="#FF4D12"/>
<path d="M82.2296 54.9109H88.5555C89.734 54.9109 90.6756 55.2055 91.3804 55.7948C92.0968 56.3725 92.455 57.2044 92.455 58.2905C92.455 58.7757 92.3452 59.2321 92.1257 59.6596C91.9177 60.0871 91.6115 60.4338 91.2071 60.6995C91.7733 60.9537 92.1834 61.2888 92.4376 61.7047C92.7034 62.1207 92.8363 62.6637 92.8363 63.3338C92.8363 64.0849 92.6572 64.7435 92.299 65.3096C91.9408 65.8642 91.4555 66.2917 90.8432 66.5921C90.2424 66.881 89.5722 67.0254 88.8328 67.0254H82.2296V54.9109ZM87.6196 59.6076C88.0124 59.6076 88.307 59.521 88.5035 59.3477C88.7114 59.1744 88.8154 58.8971 88.8154 58.5158C88.8154 58.1229 88.7172 57.8514 88.5208 57.7012C88.3244 57.5395 88.0182 57.4586 87.6022 57.4586H85.8171V59.6076H87.6196ZM87.8275 64.4777C88.3013 64.4777 88.6479 64.3911 88.8674 64.2177C89.0869 64.0444 89.1967 63.744 89.1967 63.3165C89.1967 62.9006 89.0812 62.5944 88.8501 62.398C88.6306 62.2015 88.2782 62.1033 87.7929 62.1033H85.8171V64.4777H87.8275ZM99.6385 67.2854C98.4137 67.2854 97.2988 67.0196 96.2936 66.4881C95.2999 65.9566 94.5142 65.2172 93.9365 64.2697C93.3704 63.3107 93.0873 62.2131 93.0873 60.9768C93.0873 59.7405 93.3704 58.6429 93.9365 57.6839C94.5142 56.7249 95.2999 55.9796 96.2936 55.4482C97.2988 54.9167 98.4137 54.6509 99.6385 54.6509C100.863 54.6509 101.967 54.9167 102.949 55.4482C103.942 55.9796 104.722 56.7249 105.288 57.6839C105.866 58.6429 106.155 59.7405 106.155 60.9768C106.155 62.2131 105.866 63.3107 105.288 64.2697C104.722 65.2172 103.942 65.9566 102.949 66.4881C101.967 67.0196 100.863 67.2854 99.6385 67.2854ZM99.6385 63.9231C100.17 63.9231 100.649 63.8076 101.077 63.5765C101.516 63.3338 101.863 62.993 102.117 62.5539C102.371 62.1033 102.498 61.5776 102.498 60.9768C102.498 60.0871 102.227 59.3766 101.684 58.8451C101.141 58.3136 100.459 58.0478 99.6385 58.0478C98.8066 58.0478 98.1133 58.3136 97.5587 58.8451C97.0157 59.3766 96.7442 60.0871 96.7442 60.9768C96.7442 61.5776 96.8713 62.1033 97.1255 62.5539C97.3796 62.993 97.7263 63.3338 98.1653 63.5765C98.6044 63.8076 99.0954 63.9231 99.6385 63.9231ZM113.314 67.2854C112.089 67.2854 110.974 67.0196 109.969 66.4881C108.975 65.9566 108.19 65.2172 107.612 64.2697C107.046 63.3107 106.763 62.2131 106.763 60.9768C106.763 59.7405 107.046 58.6429 107.612 57.6839C108.19 56.7249 108.975 55.9796 109.969 55.4482C110.974 54.9167 112.089 54.6509 113.314 54.6509C114.539 54.6509 115.642 54.9167 116.624 55.4482C117.618 55.9796 118.398 56.7249 118.964 57.6839C119.542 58.6429 119.83 59.7405 119.83 60.9768C119.83 62.2131 119.542 63.3107 118.964 64.2697C118.398 65.2172 117.618 65.9566 116.624 66.4881C115.642 67.0196 114.539 67.2854 113.314 67.2854ZM113.314 63.9231C113.845 63.9231 114.325 63.8076 114.752 63.5765C115.191 63.3338 115.538 62.993 115.792 62.5539C116.046 62.1033 116.174 61.5776 116.174 60.9768C116.174 60.0871 115.902 59.3766 115.359 58.8451C114.816 58.3136 114.134 58.0478 113.314 58.0478C112.482 58.0478 111.789 58.3136 111.234 58.8451C110.691 59.3766 110.42 60.0871 110.42 60.9768C110.42 61.5776 110.547 62.1033 110.801 62.5539C111.055 62.993 111.402 63.3338 111.841 63.5765C112.28 63.8076 112.771 63.9231 113.314 63.9231ZM122.912 57.9265H119.653V54.9109H129.758V57.9265H126.499V67.0254H122.912V57.9265ZM130.533 54.9109H134.121V59.365H138.159V54.9109H141.747V67.0254H138.159V62.3806H134.121V67.0254H130.533V54.9109Z" fill="#140707"/>
<path d="M169.272 127.408L222.217 88.9102C222.728 88.5383 222.781 87.7952 222.328 87.3545L202.971 68.5438C202.315 67.9059 202.767 66.7932 203.682 66.7932L234.92 66.7932C235.483 66.7932 235.94 66.3368 235.94 65.7737L235.939 34.7911C235.939 33.8558 237.093 33.4142 237.718 34.1106L261.653 60.8077C262.07 61.2727 262.803 61.2569 263.2 60.7745L289.914 28.2717C290.616 27.4173 291.986 28.1358 291.682 29.1991L279.025 73.5009C278.875 74.0241 279.163 74.5724 279.678 74.7467L309.753 84.9191C310.746 85.2548 310.647 86.6895 309.618 86.8862L279.937 92.5606C279.319 92.6787 278.954 93.3226 279.171 93.9131L292.049 129.01C292.378 129.908 291.399 130.725 290.574 130.239L263.171 114.112C262.75 113.864 262.212 113.95 261.889 114.316L233.927 145.99C233.317 146.681 232.176 146.271 232.144 145.35L230.878 108.463C230.854 107.771 230.161 107.303 229.509 107.541L170.221 129.19C169.111 129.596 168.316 128.103 169.272 127.408Z" fill="#EEEEEE"/>
<rect x="267.297" y="48.457" width="5.61649" height="13.3969" rx="1.50902" transform="rotate(14.0077 267.297 48.457)" fill="black"/>
<path d="M249.123 60.7195C254.698 57.3103 261.398 56.2548 267.75 57.7856C274.102 59.3165 279.586 63.3086 282.995 68.8827C286.405 74.4569 287.46 81.1573 285.929 87.5095C284.398 93.8615 280.407 99.3453 274.833 102.755C269.259 106.164 262.559 107.219 256.206 105.688C249.854 104.158 244.37 100.167 240.96 94.5925C237.551 89.0184 236.496 82.3179 238.026 75.9657C239.557 69.6133 243.549 64.1288 249.123 60.7195Z" fill="white" stroke="black" stroke-width="5.09741"/>
<path d="M261.648 82.7361L263.551 71.5988" stroke="black" stroke-width="4.86985" stroke-linecap="round" stroke-linejoin="round"/>
<rect x="260.218" y="45.157" width="21.532" height="4.17831" transform="rotate(14.0077 260.218 45.157)" fill="black" stroke="black" stroke-width="1.10325"/>
<path d="M261.399 82.8593L276.355 76.5523" stroke="#FF4D12" stroke-width="4.86985" stroke-linecap="round" stroke-linejoin="round"/>
<path d="M301.072 54.9709L289.66 62.1157L286.959 58.5629L297.956 47.5068L301.072 54.9709Z" fill="black"/>
<ellipse cx="297.036" cy="67.1942" rx="3.15715" ry="4.25379" transform="rotate(85.2729 297.036 67.1942)" fill="black"/>
<defs>
<linearGradient id="paint0_linear_4879_22526" x1="203.489" y1="160.071" x2="168.147" y2="145.118" gradientUnits="userSpaceOnUse">
<stop stop-color="#641A03"/>
<stop offset="1" stop-color="#140707"/>
</linearGradient>
</defs>
</svg>
