<svg width="325" height="210" viewBox="0 0 325 210" fill="none" xmlns="http://www.w3.org/2000/svg">
<rect width="73.6135" height="80.6917" transform="matrix(1 0 -0.173648 0.984808 218.766 117.936)" fill="#FF4D12"/>
<rect x="1.75473" y="2.0912" width="24.0659" height="24.0659" rx="3.53911" transform="matrix(1 0 -0.173648 0.984808 255.875 126.333)" stroke="black" stroke-width="4.24693"/>
<rect width="11.3251" height="11.3251" rx="1.41564" transform="matrix(1 0 -0.173648 0.984808 262.527 134.666)" fill="black"/>
<rect width="8.49386" height="8.49386" rx="1.06173" transform="matrix(1 0 -0.173648 0.984808 242.523 127.693)" fill="black"/>
<rect width="8.49386" height="8.49386" rx="1.06173" transform="matrix(1 0 -0.173648 0.984808 225.535 127.693)" fill="black"/>
<rect width="8.49386" height="16.9877" rx="1.06173" transform="matrix(1 0 -0.173648 0.984808 229.602 152.789)" fill="black"/>
<rect width="8.49386" height="8.49386" rx="1.06173" transform="matrix(1 0 -0.173648 0.984808 232.551 136.061)" fill="black"/>
<rect width="8.49386" height="8.49386" rx="1.06173" transform="matrix(1 0 -0.173648 0.984808 222.59 144.426)" fill="black"/>
<rect width="8.49386" height="8.49386" rx="1.06173" transform="matrix(1 0 -0.173648 0.984808 239.578 144.426)" fill="black"/>
<rect width="8.49386" height="8.49386" rx="1.06173" transform="matrix(1 0 -0.173648 0.984808 217.914 170.912)" fill="black"/>
<rect width="8.49386" height="8.49386" rx="1.06173" transform="matrix(1 0 -0.173648 0.984808 234.902 170.912)" fill="black"/>
<rect width="8.49386" height="8.49386" rx="1.06173" transform="matrix(1 0 -0.173648 0.984808 270.602 161.152)" fill="black"/>
<rect width="16.9877" height="8.49386" rx="1.06173" transform="matrix(1 0 -0.173648 0.984808 241.672 180.672)" fill="black"/>
<rect width="16.9877" height="8.49386" rx="1.06173" transform="matrix(1 0 -0.173648 0.984808 245.121 161.152)" fill="black"/>
<path d="M300.874 197.465L292.292 117.936L275.699 197.465H300.874Z" fill="url(#paint0_linear_4879_22527)"/>
<path d="M47.3778 166.573C46.3825 165.18 47.3786 163.244 49.091 163.244H196.398C198.111 163.244 199.107 165.18 198.112 166.573L177.198 195.853C176.802 196.406 176.164 196.734 175.485 196.734H70.0049C69.325 196.734 68.6869 196.406 68.2917 195.853L47.3778 166.573Z" fill="#140707"/>
<path d="M47.3778 166.573C46.3825 165.18 47.3786 163.244 49.091 163.244H196.398C198.111 163.244 199.107 165.18 198.112 166.573L177.198 195.853C176.802 196.406 176.164 196.734 175.485 196.734H70.0049C69.325 196.734 68.6869 196.406 68.2917 195.853L47.3778 166.573Z" fill="url(#paint1_linear_4879_22527)"/>
<path d="M183.744 163.243C183.744 153.092 179.711 143.357 172.534 136.179C165.356 129.001 155.621 124.969 145.47 124.969C135.319 124.969 125.583 129.001 118.406 136.179C111.228 143.357 107.195 153.092 107.195 163.243L145.47 163.243H183.744Z" fill="#FFA006"/>
<path d="M140.685 163.243C140.685 153.092 136.653 143.357 129.475 136.179C122.297 129.001 112.562 124.969 102.411 124.969C92.2601 124.969 82.5248 129.001 75.347 136.179C68.1692 143.357 64.1367 153.092 64.1367 163.243L102.411 163.243H140.685Z" fill="url(#paint2_linear_4879_22527)"/>
<path d="M177.367 119.908C180.451 117.419 184.97 117.901 187.459 120.985L187.553 121.102C188.599 122.397 189.118 123.946 189.143 125.491C191.203 125.52 193.236 126.432 194.631 128.16L194.725 128.276C197.214 131.36 196.732 135.879 193.647 138.368C190.866 140.614 186.918 140.441 184.344 138.122L174.598 145.072C171.948 146.961 168.27 146.345 166.381 143.695C164.492 141.046 165.108 137.367 167.757 135.479L175.995 129.604C173.848 126.54 174.412 122.293 177.367 119.908Z" fill="#F0F0F0"/>
<path d="M186.051 83.3657C186.051 74.064 193.591 66.5234 202.893 66.5234H288.157C297.458 66.5234 304.999 74.064 304.999 83.3657C304.999 92.6674 297.458 100.208 288.157 100.208H280.74H202.893C193.591 100.208 186.051 92.6674 186.051 83.3657Z" fill="#EEEEEE"/>
<path d="M162.891 43.3676C162.891 34.0659 170.431 26.5254 179.733 26.5254H250.26C259.561 26.5254 267.102 34.0659 267.102 43.3676C267.102 52.6693 259.561 60.2098 250.26 60.2098H245.848H179.733C170.431 60.2098 162.891 52.6693 162.891 43.3676Z" fill="#EEEEEE"/>
<path d="M276.195 97H265.907C264.231 97 263.227 98.8633 264.149 100.263L269.418 108.264C270.261 109.544 272.146 109.524 272.96 108.225L277.978 100.224C278.857 98.8218 277.85 97 276.195 97Z" fill="#EEEEEE"/>
<path d="M181.046 40.1891H177.88V37.2585H187.699V40.1891H184.532V49.0312H181.046V40.1891ZM190.726 37.2585H194.078L198.777 49.0312H195.207L194.331 46.7912H190.474L189.581 49.0312H186.011L190.726 37.2585ZM193.522 44.147L192.394 40.8459L191.265 44.147H193.522ZM199.785 37.2585H205.933C207.078 37.2585 207.993 37.5449 208.678 38.1175C209.374 38.6789 209.722 39.4873 209.722 40.5428C209.722 41.0144 209.615 41.4579 209.402 41.8733C209.2 42.2887 208.902 42.6256 208.509 42.8838C209.06 43.1309 209.458 43.4565 209.705 43.8607C209.963 44.2649 210.093 44.7926 210.093 45.4439C210.093 46.1737 209.918 46.8137 209.57 47.3639C209.222 47.9028 208.751 48.3183 208.156 48.6102C207.572 48.8909 206.921 49.0312 206.202 49.0312H199.785V37.2585ZM205.023 41.8228C205.405 41.8228 205.691 41.7386 205.882 41.5701C206.084 41.4017 206.185 41.1322 206.185 40.7617C206.185 40.38 206.09 40.1161 205.899 39.9701C205.708 39.8129 205.41 39.7343 205.006 39.7343H203.271V41.8228H205.023ZM205.225 46.5554C205.685 46.5554 206.022 46.4712 206.236 46.3028C206.449 46.1344 206.556 45.8425 206.556 45.427C206.556 45.0228 206.443 44.7253 206.219 44.5344C206.005 44.3435 205.663 44.2481 205.191 44.2481H203.271V46.5554H205.225ZM211.101 37.2585H214.587V46.1007H219.337V49.0312H211.101V37.2585ZM219.769 37.2585H228.308V40.1891H223.255V41.8059H226.893V44.4838H223.255V46.1007H228.308V49.0312H219.769V37.2585Z" fill="#140707"/>
<path d="M205.628 81.8803L203.287 83.5645V80.2972L206.218 78.1413H209.114V89.9141H205.628V81.8803ZM221.991 90.1667C220.689 90.1667 219.549 89.9197 218.572 89.4256C217.596 88.9316 216.843 88.2242 216.316 87.3035C215.788 86.3828 215.524 85.2937 215.524 84.0361C215.524 82.7786 215.788 81.6894 216.316 80.7687C216.843 79.8368 217.596 79.1238 218.572 78.6298C219.549 78.1357 220.689 77.8887 221.991 77.8887C222.833 77.8887 223.586 77.9673 224.248 78.1245C224.911 78.2817 225.528 78.5343 226.101 78.8824V82.0993C225.607 81.7175 225.051 81.4424 224.433 81.274C223.816 81.1056 223.103 81.0214 222.294 81.0214C221.239 81.0214 220.436 81.274 219.886 81.7793C219.347 82.2845 219.078 83.0368 219.078 84.0361C219.078 85.0354 219.358 85.7933 219.92 86.3098C220.481 86.8151 221.273 87.0677 222.294 87.0677C223.092 87.0677 223.805 86.9779 224.433 86.7983C225.073 86.6186 225.674 86.3323 226.236 85.9393V89.1393C225.146 89.8242 223.732 90.1667 221.991 90.1667ZM227.242 78.1413H230.729V82.4698H234.653V78.1413H238.139V89.9141H234.653V85.4003H230.729V89.9141H227.242V78.1413ZM239.479 78.1413H242.966V89.9141H239.479V78.1413ZM250.445 90.1667C249.143 90.1667 248.003 89.9197 247.027 89.4256C246.05 88.9316 245.297 88.2242 244.77 87.3035C244.242 86.3828 243.978 85.2937 243.978 84.0361C243.978 82.7786 244.242 81.6894 244.77 80.7687C245.297 79.8368 246.05 79.1238 247.027 78.6298C248.003 78.1357 249.143 77.8887 250.445 77.8887C251.288 77.8887 252.04 77.9673 252.702 78.1245C253.365 78.2817 253.982 78.5343 254.555 78.8824V82.0993C254.061 81.7175 253.505 81.4424 252.888 81.274C252.27 81.1056 251.557 81.0214 250.749 81.0214C249.693 81.0214 248.89 81.274 248.34 81.7793C247.801 82.2845 247.532 83.0368 247.532 84.0361C247.532 85.0354 247.812 85.7933 248.374 86.3098C248.935 86.8151 249.727 87.0677 250.749 87.0677C251.546 87.0677 252.259 86.9779 252.888 86.7983C253.528 86.6186 254.128 86.3323 254.69 85.9393V89.1393C253.601 89.8242 252.186 90.1667 250.445 90.1667ZM255.697 78.1413H259.183V82.7056L262.804 78.1413H266.913L262.383 83.8509L267.233 89.9141H263.124L259.183 84.9961V89.9141H255.697V78.1413ZM268.246 78.1413H276.785V81.0719H271.732V82.6887H275.37V85.3667H271.732V86.9835H276.785V89.9141H268.246V78.1413ZM277.621 78.1413H281.006L284.678 84.3056V78.1413H288.164V89.9141H284.796L281.107 83.7498V89.9141H277.621V78.1413Z" fill="#140707"/>
<rect x="235.527" y="32.8398" width="21.0528" height="21.0528" rx="10.5264" fill="white"/>
<path d="M245.748 49.0982C245.032 49.0982 244.348 49.0403 243.695 48.9245C243.042 48.8087 242.49 48.6245 242.037 48.3719V45.8771C243.1 46.3718 244.179 46.6192 245.274 46.6192C246.6 46.6192 247.264 46.2613 247.264 45.5455C247.264 45.1771 247.106 44.9139 246.79 44.756C246.485 44.5981 245.985 44.5192 245.29 44.5192H243.679V42.0876H245.211C246.369 42.0876 246.948 41.7455 246.948 41.0613C246.948 40.735 246.811 40.4876 246.537 40.3192C246.264 40.1507 245.879 40.0665 245.385 40.0665C244.216 40.0665 243.164 40.3613 242.227 40.9507V38.3928C242.711 38.1402 243.269 37.9455 243.9 37.8086C244.532 37.6612 245.179 37.5876 245.842 37.5876C247.348 37.5876 248.464 37.8823 249.19 38.4718C249.927 39.0613 250.295 39.8823 250.295 40.935C250.295 41.3771 250.195 41.8034 249.995 42.2139C249.806 42.6244 249.521 42.9876 249.142 43.3034C249.658 43.5771 250.027 43.9139 250.248 44.3139C250.479 44.7139 250.595 45.1771 250.595 45.7034C250.595 47.9666 248.979 49.0982 245.748 49.0982Z" fill="#140707"/>
<defs>
<linearGradient id="paint0_linear_4879_22527" x1="275.699" y1="157.7" x2="322.616" y2="171.146" gradientUnits="userSpaceOnUse">
<stop/>
<stop offset="1" stop-color="#464646"/>
</linearGradient>
<linearGradient id="paint1_linear_4879_22527" x1="45" y1="179.989" x2="194.475" y2="209.896" gradientUnits="userSpaceOnUse">
<stop stop-color="#140707"/>
<stop offset="1" stop-color="#474747"/>
</linearGradient>
<linearGradient id="paint2_linear_4879_22527" x1="114.372" y1="127.361" x2="72.5092" y2="160.851" gradientUnits="userSpaceOnUse">
<stop stop-color="#FFB43C"/>
<stop offset="1" stop-color="#FFA006"/>
</linearGradient>
</defs>
</svg>
